<!-- Generated by IcoMoon.io -->
<svg version="1.1" xmlns="http://www.w3.org/2000/svg" width="1086" height="1024" viewBox="0 0 1086 1024">
<title></title>
<g id="icomoon-ignore">
</g>
<path d="M301.050 583.546l-231.296-230.744c-86.115-86.667-86.115-226.328 0-312.443l387.518 386.414-156.222 156.774zM594.173 564.777l379.79 379.79-77.835 77.835-379.79-379.79-379.79 379.79-77.835-77.835 532.699-533.251-11.040-12.144c-43.058-42.506-43.058-112.060 0-155.118l239.577-241.233 51.338 50.786-178.854 179.959 52.994 51.89 178.854-179.407 50.786 50.786-179.407 178.854 51.89 52.994 179.959-179.407 50.786 51.89-241.233 239.577c-43.058 43.058-112.612 43.058-155.118 0l-12.144-11.040-75.627 75.075z"></path>
</svg>
