<?xml version="1.0" encoding="UTF-8"?>
<svg width="70px" height="66px" viewBox="0 0 70 66" version="1.1" xmlns="http://www.w3.org/2000/svg" xmlns:xlink="http://www.w3.org/1999/xlink">
    <!-- Generator: Sketch 45.2 (43514) - http://www.bohemiancoding.com/sketch -->
    <title>alimentos</title>
    <desc>Created with Sketch.</desc>
    <defs></defs>
    <g id="Page-1" stroke="none" stroke-width="1" fill="none" fill-rule="evenodd">
        <g id="Listagem" transform="translate(-514.000000, -382.000000)" fill-rule="nonzero" fill="#FF974B">
            <g id="categorias" transform="translate(405.000000, 256.000000)">
                <g id="Icones" transform="translate(73.000000, 89.000000)">
                    <g id="laranja">
                        <g id="row-1" transform="translate(0.333075, 0.181801)">
                            <g id="Alimentos">
                                <path d="M55.0705661,74.429544 L40.1627915,59.5573487 C34.6124028,53.9713807 34.6124028,44.9697888 40.1627915,39.4194002 L65.1395404,64.3249903 L55.0705661,74.429544 L55.0705661,74.429544 Z M73.9632352,73.2198439 L98.4418723,97.698481 L93.4251749,102.715178 L68.9465378,78.2365413 L44.4679006,102.715178 L39.4512032,97.698481 L73.7853381,63.3287667 L73.0737498,62.5460196 C70.2985555,59.8064046 70.2985555,55.3233984 73.0737498,52.5482041 L88.5152157,37 L91.8241012,40.2733061 L80.296371,51.8721952 L83.7119947,55.2166602 L95.239725,43.6533505 L98.5130311,46.9266566 L86.9497215,58.4543869 L90.2941864,61.8700107 L101.893076,50.306701 L105.166382,53.651166 L89.6181775,69.0926318 C86.8429832,71.8678261 82.359977,71.8678261 79.6203621,69.0926318 L78.837615,68.3810435 L73.9632352,73.2198439 Z" id="alimentos"></path>
                            </g>
                        </g>
                    </g>
                </g>
            </g>
        </g>
    </g>
</svg>