<!-- Generated by IcoMoon.io -->
<svg version="1.1" xmlns="http://www.w3.org/2000/svg" width="1024" height="1024" viewBox="0 0 1024 1024">
<title></title>
<g id="icomoon-ignore">
</g>
<path fill="#000" d="M345.6 569.173l-178.773-178.347c-66.56-66.987-66.56-174.933 0-241.493l299.52 298.667-120.747 121.173zM572.16 554.667l293.547 293.547-60.16 60.16-293.547-293.547-293.547 293.547-60.16-60.16 411.733-412.16-8.533-9.387c-33.28-32.853-33.28-86.613 0-119.893l185.173-186.453 39.68 39.253-138.24 139.093 40.96 40.107 138.24-138.667 39.253 39.253-138.667 138.24 40.107 40.96 139.093-138.667 39.253 40.107-186.453 185.173c-33.28 33.28-87.040 33.28-119.893 0l-9.387-8.533-58.453 58.027z"></path>
</svg>
