<!-- Generated by IcoMoon.io -->
<svg version="1.1" xmlns="http://www.w3.org/2000/svg" width="1024" height="1024" viewBox="0 0 1024 1024">
<title></title>
<g id="icomoon-ignore">
</g>
<path fill="#000" d="M512 176c74.24 0 143.36 21.333 202.24 57.6 27.307-34.987 69.973-57.6 117.76-57.6 82.475 0 149.333 66.859 149.333 149.333v0c0 64-40.533 118.613-97.28 139.947 7.68 30.72 11.947 61.867 11.947 94.72 0 212.077-171.923 384-384 384v0c-212.077 0-384-171.923-384-384v0c0-32.853 4.267-64 11.947-94.72-56.747-21.333-97.28-75.947-97.28-139.947 0-82.475 66.859-149.333 149.333-149.333v0c47.787 0 90.453 22.613 117.76 57.6 58.88-36.267 128-57.6 202.24-57.6zM512 261.333c-164.949 0-298.667 133.718-298.667 298.667v0c0 164.949 133.718 298.667 298.667 298.667v0c164.949 0 298.667-133.718 298.667-298.667v0c0-164.949-133.718-298.667-298.667-298.667v0zM690.773 487.467c15.36 56.747-4.693 111.36-44.373 122.027-40.107 11.093-84.48-26.453-99.84-83.627-15.36-56.747 4.693-111.36 44.373-122.027 40.107-10.667 84.48 26.453 99.84 83.627zM333.227 487.467c15.36-57.173 59.733-94.293 99.84-83.627 39.68 10.667 59.733 65.28 44.373 122.027-15.36 57.173-59.733 94.72-99.84 83.627-39.68-10.667-59.733-65.28-44.373-122.027zM512 645.333c25.6 0 48.213 8.107 64 21.333l-42.667 42.667c0 17.92 14.507 32 32 32 17.673 0 32-14.327 32-32v0c0-11.782 9.551-21.333 21.333-21.333v0c11.782 0 21.333 9.551 21.333 21.333v0c0 41.237-33.429 74.667-74.667 74.667v0c-20.907 0-39.68-8.533-53.333-22.613-13.653 14.080-32.427 22.613-53.333 22.613-41.237 0-74.667-33.429-74.667-74.667v0c0-11.782 9.551-21.333 21.333-21.333v0c11.782 0 21.333 9.551 21.333 21.333v0c0 17.673 14.327 32 32 32v0c17.673 0 32-14.327 32-32v0l-42.667-42.667c15.787-13.227 38.4-21.333 64-21.333z"></path>
</svg>
