<?xml version="1.0" encoding="UTF-8"?>
<svg width="70px" height="57px" viewBox="0 0 70 57" version="1.1" xmlns="http://www.w3.org/2000/svg" xmlns:xlink="http://www.w3.org/1999/xlink">
    <!-- Generator: Sketch 45.2 (43514) - http://www.bohemiancoding.com/sketch -->
    <title>brinquedos</title>
    <desc>Created with Sketch.</desc>
    <defs></defs>
    <g id="Page-1" stroke="none" stroke-width="1" fill="none" fill-rule="evenodd">
        <g id="Listagem" transform="translate(-956.000000, -387.000000)" fill-rule="nonzero" fill="#FF974B">
            <g id="categorias" transform="translate(405.000000, 256.000000)">
                <g id="Icones" transform="translate(73.000000, 89.000000)">
                    <g id="laranja">
                        <g id="row-1" transform="translate(0.333075, 0.181801)">
                            <g id="Brinquedos" transform="translate(442.000000, 0.000000)">
                                <path d="M70.4076689,42 C75.8503365,42 80.9176477,43.5639849 85.2342462,46.2227594 C87.2361469,43.657824 90.3641168,42 93.8674431,42 C99.9137984,42 104.815338,46.9015394 104.815338,52.9478946 C104.815338,57.6398495 101.843766,61.643651 97.6835664,63.2076359 C98.246601,65.4597742 98.559398,67.7431923 98.559398,70.1517291 C98.559398,85.6994997 85.9554395,98.3034582 70.4076689,98.3034582 C54.8598982,98.3034582 42.2559398,85.6994997 42.2559398,70.1517291 C42.2559398,67.7431923 42.5687368,65.4597742 43.1317714,63.2076359 C38.9715714,61.643651 36,57.6398495 36,52.9478946 C36,46.9015394 40.9015394,42 46.9478946,42 C50.4512209,42 53.5791908,43.657824 55.5810916,46.2227594 C59.89769,43.5639849 64.9650013,42 70.4076689,42 L70.4076689,42 Z M70.4076689,48.2559398 C58.3149584,48.2559398 48.5118796,58.0590186 48.5118796,70.1517291 C48.5118796,82.2444396 58.3149584,92.0475184 70.4076689,92.0475184 C82.5003794,92.0475184 92.3034582,82.2444396 92.3034582,70.1517291 C92.3034582,58.0590186 82.5003794,48.2559398 70.4076689,48.2559398 L70.4076689,48.2559398 Z M83.5138628,64.8341803 C84.6399319,68.9943802 83.1697861,72.9981817 80.2607741,73.7801742 C77.3204824,74.5934463 74.0673937,71.8408328 72.9413245,67.6493532 C71.8152553,63.4891532 73.2854012,59.4853517 76.1944132,58.7033593 C79.1347049,57.9213668 82.3877936,60.6427006 83.5138628,64.8341803 L83.5138628,64.8341803 Z M57.301475,64.8341803 C58.4275442,60.6427006 61.6806329,57.9213668 64.6209246,58.7033593 C67.5299366,59.4853517 69.0000824,63.4891532 67.8740133,67.6493532 C66.7479441,71.8408328 63.4948554,74.5934463 60.5545637,73.7801742 C57.6455517,72.9981817 56.1754058,68.9943802 57.301475,64.8341803 L57.301475,64.8341803 Z M70.4076689,76.4076689 C72.2844508,76.4076689 73.9422749,77.0019832 75.0996237,77.9716538 L71.9716538,81.0996237 C71.9716538,82.4133711 73.0351636,83.4456011 74.3176313,83.4456011 C75.6132788,83.4456011 76.6636087,82.3952713 76.6636087,81.0996237 C76.6636087,80.2358587 77.3638286,79.5356388 78.2275936,79.5356388 C79.0913587,79.5356388 79.7915786,80.2358587 79.7915786,81.0996237 C79.7915786,84.1228014 77.3408089,86.573571 74.3176313,86.573571 C72.784926,86.573571 71.4086192,85.9479771 70.4076689,84.915747 C69.4067185,85.9479771 68.0304118,86.573571 66.4977065,86.573571 C63.4745289,86.573571 61.0237592,84.1228014 61.0237592,81.0996237 C61.0237592,80.2358587 61.7239791,79.5356388 62.5877441,79.5356388 C63.4515092,79.5356388 64.1517291,80.2358587 64.1517291,81.0996237 C64.1517291,82.3952713 65.202059,83.4456011 66.4977065,83.4456011 C67.7933541,83.4456011 68.8436839,82.3952713 68.8436839,81.0996237 L65.715714,77.9716538 C66.8730629,77.0019832 68.5308869,76.4076689 70.4076689,76.4076689 Z" id="brinquedos"></path>
                            </g>
                        </g>
                    </g>
                </g>
            </g>
        </g>
    </g>
</svg>