<!-- Generated by IcoMoon.io -->
<svg version="1.1" xmlns="http://www.w3.org/2000/svg" width="1258" height="1024" viewBox="0 0 1258 1024">
<title></title>
<g id="icomoon-ignore">
</g>
<path d="M624.114 3.266c97.777 0 188.811 28.097 266.358 75.862 35.964-46.079 92.158-75.862 155.095-75.862 108.622 0 196.678 88.056 196.678 196.678 0 84.291-53.384 156.219-128.122 184.315 10.115 40.459 15.734 81.481 15.734 124.75 0 279.314-226.429 505.743-505.743 505.743s-505.743-226.429-505.743-505.743c0-43.269 5.619-84.291 15.734-124.75-74.738-28.097-128.122-100.025-128.122-184.315 0-108.622 88.056-196.678 196.678-196.678 62.937 0 119.131 29.783 155.095 75.862 77.547-47.765 168.581-75.862 266.358-75.862v0zM624.114 115.653c-217.244 0-393.356 176.111-393.356 393.356s176.111 393.356 393.356 393.356c217.244 0 393.356-176.111 393.356-393.356s-176.111-393.356-393.356-393.356v0zM859.566 413.48c20.23 74.738-6.181 146.666-58.441 160.714-52.822 14.61-111.264-34.84-131.493-110.14-20.23-74.738 6.181-146.666 58.441-160.714 52.822-14.048 111.264 34.84 131.493 110.14v0zM388.663 413.48c20.23-75.3 78.671-124.188 131.493-110.14 52.26 14.048 78.671 85.976 58.441 160.714-20.23 75.3-78.671 124.75-131.493 110.14-52.26-14.048-78.671-85.976-58.441-160.714v0zM624.114 621.397c33.716 0 63.499 10.677 84.291 28.097l-56.194 56.194c0 23.601 19.106 42.145 42.145 42.145 23.276 0 42.145-18.869 42.145-42.145 0-15.517 12.579-28.097 28.097-28.097s28.097 12.579 28.097 28.097c0 54.311-44.028 98.339-98.339 98.339-27.535 0-52.26-11.239-70.242-29.783-17.982 18.544-42.707 29.783-70.242 29.783-54.311 0-98.339-44.028-98.339-98.339 0-15.517 12.579-28.097 28.097-28.097s28.097 12.579 28.097 28.097c0 23.276 18.869 42.145 42.145 42.145s42.145-18.869 42.145-42.145l-56.194-56.194c20.792-17.42 50.574-28.097 84.291-28.097z"></path>
</svg>
