<?xml version="1.0" encoding="UTF-8"?>
<svg width="70px" height="59px" viewBox="0 0 70 59" version="1.1" xmlns="http://www.w3.org/2000/svg" xmlns:xlink="http://www.w3.org/1999/xlink">
    <!-- Generator: Sketch 45.2 (43514) - http://www.bohemiancoding.com/sketch -->
    <title>construcao</title>
    <desc>Created with Sketch.</desc>
    <defs></defs>
    <g id="Page-1" stroke="none" stroke-width="1" fill="none" fill-rule="evenodd">
        <g id="Listagem" transform="translate(-734.000000, -605.000000)" fill-rule="nonzero" fill="#FF974B">
            <g id="categorias" transform="translate(405.000000, 256.000000)">
                <g id="Icones" transform="translate(73.000000, 89.000000)">
                    <g id="laranja">
                        <g id="row-2" transform="translate(0.333075, 219.426893)">
                            <g id="construcao" transform="translate(220.000000, 0.000000)">
                                <path d="M39.4390021,82.2680249 L70.3900208,82.2680249 L70.3900208,99.4630353 L39.4390021,99.4630353 L39.4390021,82.2680249 L39.4390021,82.2680249 Z M36,61.6340125 L56.6340125,61.6340125 L56.6340125,78.8290229 L36,78.8290229 L36,61.6340125 L36,61.6340125 Z M60.0730145,61.6340125 L80.707027,61.6340125 L80.707027,78.8290229 L60.0730145,78.8290229 L60.0730145,61.6340125 L60.0730145,61.6340125 Z M84.1460291,61.6340125 L104.780042,61.6340125 L104.780042,78.8290229 L84.1460291,78.8290229 L84.1460291,61.6340125 L84.1460291,61.6340125 Z M73.8290229,82.2680249 L101.341039,82.2680249 L101.341039,99.4630353 L73.8290229,99.4630353 L73.8290229,82.2680249 L73.8290229,82.2680249 Z M39.4390021,41 L66.9510187,41 L66.9510187,58.1950104 L39.4390021,58.1950104 L39.4390021,41 L39.4390021,41 Z M70.3900208,41 L101.341039,41 L101.341039,58.1950104 L70.3900208,58.1950104 L70.3900208,41 Z"></path>
                            </g>
                        </g>
                    </g>
                </g>
            </g>
        </g>
    </g>
</svg>