<?xml version="1.0" encoding="UTF-8"?>
<svg width="67px" height="71px" viewBox="0 0 67 71" version="1.1" xmlns="http://www.w3.org/2000/svg" xmlns:xlink="http://www.w3.org/1999/xlink">
    <!-- Generator: Sketch 45.2 (43514) - http://www.bohemiancoding.com/sketch -->
    <title>domesticos</title>
    <desc>Created with Sketch.</desc>
    <defs></defs>
    <g id="Page-1" stroke="none" stroke-width="1" fill="none" fill-rule="evenodd">
        <g id="Listagem" transform="translate(-515.000000, -818.000000)" fill-rule="nonzero" fill="#FF974B">
            <g id="categorias" transform="translate(405.000000, 256.000000)">
                <g id="Icones" transform="translate(73.000000, 89.000000)">
                    <g id="laranja">
                        <g id="row-3" transform="translate(0.333075, 438.671984)">
                            <g id="Domesticos">
                                <path d="M68.1625012,35 C50.9681329,35 37,44.8620151 37,56.9970597 L37,56.9970597 C37,61.3598099 38.8330883,65.575913 42.2792943,69.2054278 C38.9430736,73.4948545 37,78.8474723 37,84.4933843 C37,88.6728257 37,93.0355758 37,97.3250025 C37,101.394459 40.2628972,104.657356 44.3323532,104.657356 L91.9926492,104.657356 C96.0621053,104.657356 99.3250025,101.394459 99.3250025,97.3250025 C99.3250025,93.1088994 99.3250025,88.5628404 99.3250025,84.4933843 C99.3250025,80.0206488 98.0785024,75.5845751 95.6588259,71.6617662 L102.991179,64.3294129 L91.9926492,53.3308831 L84.2936783,61.029854 C79.4543252,58.3902068 73.845075,56.9970597 68.1625012,56.9970597 C61.3800745,56.9970597 55.1475742,58.9401333 50.014927,62.1663687 C48.6951034,60.553251 47.9985298,58.830148 47.9985298,56.9970597 C47.9985298,50.4346036 57.0173243,45.0819857 68.1625012,45.0819857 L68.1625012,45.0819857 C73.4051338,45.0819857 78.4277958,46.291824 82.2039577,48.4548682 L89.6096344,41.0491914 C83.8170754,37.1630442 76.1547663,35 68.1625012,35 L68.1625012,35 Z M68.1625012,64.3294129 C69.4090013,64.3294129 70.6188396,64.47606 71.8286779,64.6593688 C60.4268686,66.4191336 51.6647065,76.2444869 51.6647065,88.1595609 L51.6647065,97.3250025 L44.3323532,97.3250025 L44.3323532,88.1595609 C44.3323532,74.9985336 55.0014739,64.3294129 68.1625012,64.3294129 L68.1625012,64.3294129 Z" id="domesticos"></path>
                            </g>
                        </g>
                    </g>
                </g>
            </g>
        </g>
    </g>
</svg>