<!-- Generated by IcoMoon.io -->
<svg version="1.1" xmlns="http://www.w3.org/2000/svg" width="966" height="1024" viewBox="0 0 966 1024">
<title></title>
<g id="icomoon-ignore">
</g>
<path d="M454.246 9.692c-247.986 0-449.442 142.235-449.442 317.253v0c0 62.922 26.438 123.729 76.141 176.076-48.117 61.864-76.141 139.063-76.141 220.491 0 60.278 0 123.2 0 185.064 0 58.692 47.059 105.751 105.751 105.751h687.382c58.692 0 105.751-47.059 105.751-105.751 0-60.807 0-126.373 0-185.064 0-64.508-17.978-128.488-52.876-185.064l105.751-105.751-158.627-158.627-111.039 111.039c-69.796-38.070-150.695-58.163-232.652-58.163-97.82 0-187.708 28.024-261.734 74.555-19.035-23.265-29.082-48.117-29.082-74.555 0-94.647 130.074-171.846 290.816-171.846v0c75.612 0 148.052 17.449 202.513 48.646l106.809-106.809c-83.543-56.048-194.053-87.245-309.322-87.245v0zM454.246 432.696c17.978 0 35.427 2.115 52.876 4.759-164.443 25.38-290.816 167.087-290.816 338.932v132.189h-105.751v-132.189c0-189.815 153.876-343.691 343.691-343.691v0z"></path>
</svg>
