<!-- Generated by IcoMoon.io -->
<svg version="1.1" xmlns="http://www.w3.org/2000/svg" width="1024" height="1024" viewBox="0 0 1024 1024">
<title></title>
<g id="icomoon-ignore">
</g>
<path fill="#000" d="M517.333 96c-200.107 0-362.667 114.773-362.667 256v0c0 50.773 21.333 99.84 61.44 142.080-38.827 49.92-61.44 112.213-61.44 177.92 0 48.64 0 99.413 0 149.333 0 47.36 37.973 85.333 85.333 85.333h554.667c47.36 0 85.333-37.973 85.333-85.333 0-49.067 0-101.973 0-149.333 0-52.053-14.507-103.68-42.667-149.333l85.333-85.333-128-128-89.6 89.6c-56.32-30.72-121.6-46.933-187.733-46.933-78.933 0-151.467 22.613-211.2 60.16-15.36-18.773-23.467-38.827-23.467-60.16 0-76.373 104.96-138.667 234.667-138.667v0c61.013 0 119.467 14.080 163.413 39.253l86.187-86.187c-67.413-45.227-156.587-70.4-249.6-70.4zM517.333 437.333c14.507 0 28.587 1.707 42.667 3.84-132.693 20.48-234.667 134.827-234.667 273.493v106.667h-85.333v-106.667c0-153.167 124.166-277.333 277.333-277.333v0z"></path>
</svg>
