<?xml version="1.0" encoding="UTF-8"?>
<svg width="70px" height="63px" viewBox="0 0 70 63" version="1.1" xmlns="http://www.w3.org/2000/svg" xmlns:xlink="http://www.w3.org/1999/xlink">
    <!-- Generator: Sketch 45.2 (43514) - http://www.bohemiancoding.com/sketch -->
    <title>equipamentos</title>
    <desc>Created with Sketch.</desc>
    <defs></defs>
    <g id="Page-1" stroke="none" stroke-width="1" fill="none" fill-rule="evenodd">
        <g id="Listagem" transform="translate(-1398.000000, -603.000000)" fill-rule="nonzero" fill="#FF974B">
            <g id="categorias" transform="translate(405.000000, 256.000000)">
                <g id="Icones" transform="translate(73.000000, 89.000000)">
                    <g id="laranja">
                        <g id="row-2" transform="translate(0.333075, 219.426893)">
                            <g id="Equipamentos" transform="translate(884.000000, 0.000000)">
                                <path d="M57.1907691,39 L52.3402846,43.8504845 L61.2500398,52.7602397 L42.8801198,52.7602397 C39.0616533,52.7602397 36,55.821893 36,59.6403595 L36,94.0409586 C36,97.8594251 39.0616533,100.921078 42.8801198,100.921078 L97.9210785,100.921078 C101.739545,100.921078 104.801198,97.8594251 104.801198,94.0409586 L104.801198,59.6403595 C104.801198,55.821893 101.739545,52.7602397 97.9210785,52.7602397 L79.5511585,52.7602397 L88.4609137,43.8504845 L83.6104292,39 L70.4005991,52.2098301 L57.1907691,39 L57.1907691,39 Z M42.8801198,59.6403595 L87.6008987,59.6403595 L87.6008987,94.0409586 L42.8801198,94.0409586 L42.8801198,59.6403595 L42.8801198,59.6403595 Z M96.2010485,59.6403595 C98.1009411,59.6403595 99.6411084,61.1805268 99.6411084,63.0804194 C99.6411084,64.980312 98.1009411,66.5204793 96.2010485,66.5204793 C94.3011559,66.5204793 92.7609886,64.980312 92.7609886,63.0804194 C92.7609886,61.1805268 94.3011559,59.6403595 96.2010485,59.6403595 L96.2010485,59.6403595 Z M96.2010485,69.9605392 C98.1009411,69.9605392 99.6411084,71.5007065 99.6411084,73.4005991 C99.6411084,75.3004918 98.1009411,76.8406591 96.2010485,76.8406591 C94.3011559,76.8406591 92.7609886,75.3004918 92.7609886,73.4005991 C92.7609886,71.5007065 94.3011559,69.9605392 96.2010485,69.9605392 Z" id="equipamentos"></path>
                            </g>
                        </g>
                    </g>
                </g>
            </g>
        </g>
    </g>
</svg>