<!-- Generated by IcoMoon.io -->
<svg version="1.1" xmlns="http://www.w3.org/2000/svg" width="1138" height="1024" viewBox="0 0 1138 1024">
<title></title>
<g id="icomoon-ignore">
</g>
<path d="M349.848 6.939l-78.84 78.84 144.819 144.819h-298.584c-62.065 0-111.829 49.764-111.829 111.829v559.146c0 62.065 49.764 111.829 111.829 111.829h894.634c62.065 0 111.829-49.764 111.829-111.829v-559.146c0-62.065-49.764-111.829-111.829-111.829h-298.584l144.819-144.819-78.84-78.84-214.712 214.712-214.712-214.712zM117.243 342.426h726.89v559.146h-726.89v-559.146zM983.92 342.426c30.881 0 55.915 25.034 55.915 55.915s-25.034 55.915-55.915 55.915c-30.881 0-55.915-25.034-55.915-55.915s25.034-55.915 55.915-55.915v0zM983.92 510.17c30.881 0 55.915 25.034 55.915 55.915s-25.034 55.915-55.915 55.915c-30.881 0-55.915-25.034-55.915-55.915s25.034-55.915 55.915-55.915z"></path>
</svg>
