<!-- Generated by IcoMoon.io -->
<svg version="1.1" xmlns="http://www.w3.org/2000/svg" width="1024" height="1024" viewBox="0 0 1024 1024">
<title></title>
<g id="icomoon-ignore">
</g>
<path fill="#000" d="M348.16 96l-60.16 60.16 110.507 110.507h-227.84c-47.36 0-85.333 37.973-85.333 85.333v426.667c0 47.36 37.973 85.333 85.333 85.333h682.667c47.36 0 85.333-37.973 85.333-85.333v-426.667c0-47.36-37.973-85.333-85.333-85.333h-227.84l110.507-110.507-60.16-60.16-163.84 163.84-163.84-163.84zM170.667 352h554.667v426.667h-554.667v-426.667zM832 352c23.564 0 42.667 19.103 42.667 42.667v0c0 23.564-19.103 42.667-42.667 42.667v0c-23.564 0-42.667-19.103-42.667-42.667v0c0-23.564 19.103-42.667 42.667-42.667v0zM832 480c23.564 0 42.667 19.103 42.667 42.667v0c0 23.564-19.103 42.667-42.667 42.667v0c-23.564 0-42.667-19.103-42.667-42.667v0c0-23.564 19.103-42.667 42.667-42.667v0z"></path>
</svg>
