<!-- Generated by IcoMoon.io -->
<svg version="1.1" xmlns="http://www.w3.org/2000/svg" width="658" height="1024" viewBox="0 0 658 1024">
<title></title>
<g id="icomoon-ignore">
</g>
<path d="M321.299 259.583c-1.344-18.657-16.873-33.105-35.577-33.105h-190.827c-18.704 0-34.233 14.448-35.577 33.105l-51.72 717.832c-0.709 9.877 2.718 19.612 9.468 26.863 6.746 7.251 16.204 11.368 26.109 11.368h294.264c0.020 0 0.048 0 0.068 0 19.7 0 35.669-15.969 35.669-35.669 0-1.651-0.113-3.278-0.327-4.871l-51.55-715.523z"></path>
<path d="M123.429 177.436h133.755c0.034 0.003 0.051 0.003 0.068 0 19.7 0 35.669-15.972 35.669-35.669 0-2.998-0.368-5.914-1.068-8.697l-15.795-86.854c-3.087-16.962-17.855-29.288-35.093-29.288h-102.673c-17.436 0-32.317 12.606-35.185 29.803l-14.864 89.17c-1.726 10.345 1.19 20.921 7.971 28.923 6.777 8.002 16.73 12.613 27.214 12.613z"></path>
<path d="M611.198 2.659c-19.697 0-35.669 15.969-35.669 35.669v229.624l-57.024 171.069c-1.211 3.636-1.828 7.446-1.828 11.279v529.68c0 19.697 15.972 35.669 35.669 35.669s35.669-15.969 35.669-35.669v-523.888l57.024-171.069c1.211-3.636 1.828-7.442 1.828-11.279v-235.415c0-19.7-15.972-35.669-35.669-35.669z"></path>
<path d="M553.986 231.236v-209.259c0-10.669-8.65-19.318-19.318-19.318h-53.801c-19.697 0-35.669 15.969-35.669 35.669 0 12.221 6.156 22.999 15.526 29.428-9.373 6.429-15.526 17.204-15.526 29.428s6.156 22.999 15.526 29.428c-9.373 6.429-15.526 17.204-15.526 29.428s6.156 22.999 15.526 29.428c-9.373 6.426-15.526 17.204-15.526 29.428 0 19.697 15.972 35.669 35.669 35.669h53.801c10.669-0.010 19.318-8.66 19.318-19.329z"></path>
</svg>
