<!-- Generated by IcoMoon.io -->
<svg version="1.1" xmlns="http://www.w3.org/2000/svg" width="1024" height="1024" viewBox="0 0 1024 1024">
<title></title>
<g id="icomoon-ignore">
</g>
<path fill="#000" d="M506.049 259.717c-1.358-18.86-17.056-33.464-35.964-33.464h-192.902c-18.908 0-34.606 14.605-35.964 33.464l-52.283 725.637c-0.717 9.985 2.748 19.825 9.571 27.155 6.82 7.33 16.381 11.492 26.393 11.492h297.463c0.021 0 0.048 0 0.069 0 19.915 0 36.057-16.143 36.057-36.057 0-1.669-0.114-3.313-0.331-4.923l-52.11-723.303z"></path>
<path fill="#000" d="M306.028 176.676h135.209c0.034 0.003 0.052 0.003 0.069 0 19.915 0 36.057-16.146 36.057-36.057 0-3.031-0.372-5.979-1.079-8.792l-15.967-87.799c-3.12-17.146-18.049-29.606-35.475-29.606h-103.789c-17.625 0-32.668 12.743-35.568 30.127l-15.026 90.14c-1.745 10.457 1.203 21.149 8.058 29.237 6.851 8.089 16.912 12.75 27.51 12.75z"></path>
<path fill="#000" d="M799.099 0c-19.911 0-36.057 16.143-36.057 36.057v232.12l-57.644 172.928c-1.224 3.675-1.848 7.527-1.848 11.402v535.438c0 19.911 16.146 36.057 36.057 36.057s36.057-16.143 36.057-36.057v-529.584l57.644-172.928c1.224-3.675 1.848-7.523 1.848-11.402v-237.975c0-19.915-16.146-36.057-36.057-36.057z"></path>
<path fill="#000" d="M741.266 231.062v-211.534c0-10.785-8.744-19.528-19.528-19.528h-54.386c-19.911 0-36.057 16.143-36.057 36.057 0 12.354 6.223 23.249 15.694 29.748-9.475 6.499-15.694 17.391-15.694 29.748s6.223 23.249 15.694 29.748c-9.475 6.499-15.694 17.391-15.694 29.748s6.223 23.249 15.694 29.748c-9.475 6.496-15.694 17.391-15.694 29.748 0 19.911 16.146 36.057 36.057 36.057h54.386c10.785-0.010 19.528-8.754 19.528-19.539z"></path>
</svg>
