<?xml version="1.0" encoding="UTF-8"?>
<svg width="45px" height="70px" viewBox="0 0 45 70" version="1.1" xmlns="http://www.w3.org/2000/svg" xmlns:xlink="http://www.w3.org/1999/xlink">
    <!-- Generator: Sketch 45.2 (43514) - http://www.bohemiancoding.com/sketch -->
    <title>higiene</title>
    <desc>Created with Sketch.</desc>
    <defs></defs>
    <g id="Page-1" stroke="none" stroke-width="1" fill="none" fill-rule="evenodd">
        <g id="Listagem" transform="translate(-1411.000000, -380.000000)" fill-rule="nonzero" fill="#FF974B">
            <g id="categorias" transform="translate(405.000000, 256.000000)">
                <g id="Icones" transform="translate(73.000000, 89.000000)">
                    <g id="laranja">
                        <g id="row-1" transform="translate(0.333075, 0.181801)">
                            <g id="higiene" transform="translate(884.000000, 0.000000)">
                                <g transform="translate(49.000000, 35.000000)" id="Shape">
                                    <path d="M21.6307568,17.5631281 C21.5388936,16.2877682 20.4773372,15.300122 19.1987131,15.300122 L6.15390298,15.300122 C4.8752789,15.300122 3.81372248,16.2877682 3.72185926,17.5631281 L0.186291145,66.6337079 C0.137794827,67.3089259 0.372115979,67.9743513 0.833530467,68.4700396 C1.2947118,68.965728 1.94125166,69.2471465 2.61833487,69.2471465 L22.734048,69.2471465 C22.735447,69.2471465 22.7373122,69.2471465 22.7387111,69.2471465 C24.0854166,69.2471465 25.1770501,68.155513 25.1770501,66.8088076 C25.1770501,66.6959604 25.1693559,66.5847453 25.1546671,66.4758617 L21.6307568,17.5631281 Z"></path>
                                    <path d="M8.10448085,11.9475809 L17.2479021,11.9475809 C17.2502336,11.9478141 17.2513994,11.9478141 17.2525652,11.9475809 C18.5992706,11.9475809 19.6909041,10.8557143 19.6909041,9.50924199 C19.6909041,9.30429841 19.6657233,9.10495056 19.6179264,8.91469578 L18.5381839,2.97739414 C18.3271783,1.81791246 17.3176155,0.975288935 16.1392482,0.975288935 L9.12057197,0.975288935 C7.9286817,0.975288935 6.91142479,1.8370312 6.71534112,3.01260061 L5.69925,9.10821474 C5.58127338,9.81537499 5.78062122,10.5383898 6.24413411,11.0853723 C6.70741384,11.6323548 7.38776122,11.9475809 8.10448085,11.9475809 Z"></path>
                                    <path d="M41.4480311,0 C40.1015588,0 39.0096922,1.09163347 39.0096922,2.43833892 L39.0096922,18.1352914 L35.1115674,29.8294324 C35.0287973,30.077976 34.9865962,30.3384106 34.9865962,30.6004772 L34.9865962,66.8090407 C34.9865962,68.155513 36.0784628,69.2473796 37.4249351,69.2473796 C38.7714074,69.2473796 39.863274,68.1557462 39.863274,66.8090407 L39.863274,30.9963751 L43.7613987,19.3022341 C43.8441689,19.0536904 43.88637,18.793489 43.88637,18.5311892 L43.88637,2.43833892 C43.88637,1.09163347 42.7945034,0 41.4480311,0 Z"></path>
                                    <path d="M37.5370828,15.6253738 L37.5370828,1.32059205 C37.5370828,0.591282032 36.9458008,0 36.2164908,0 L32.5386979,0 C31.1922256,0 30.100359,1.09163347 30.100359,2.43833892 C30.100359,3.27373463 30.5212044,4.01050561 31.1616822,4.45000349 C30.5209713,4.88950138 30.100359,5.62603921 30.100359,6.46166807 C30.100359,7.29729694 30.5212044,8.03383477 31.1616822,8.47333265 C30.5209713,8.91283054 30.100359,9.64936837 30.100359,10.4849972 C30.100359,11.3206261 30.5212044,12.0571639 31.1616822,12.4966618 C30.5209713,12.9359265 30.100359,13.6726975 30.100359,14.5083264 C30.100359,15.8547987 31.1922256,16.9466653 32.5386979,16.9466653 L36.2164908,16.9466653 C36.9458008,16.9459658 37.5370828,16.3546838 37.5370828,15.6253738 Z"></path>
                                </g>
                            </g>
                        </g>
                    </g>
                </g>
            </g>
        </g>
    </g>
</svg>