<!-- Generated by IcoMoon.io -->
<svg version="1.1" xmlns="http://www.w3.org/2000/svg" width="1024" height="1024" viewBox="0 0 1024 1024">
<title></title>
<g id="icomoon-ignore">
</g>
<path fill="#000" d="M804.218 62.546l-208.727 187.854v459.199l208.727-187.854v-459.199zM282.4 187.782c-81.404 0-169.069 16.699-229.6 62.618v611.987c0 10.437 10.437 20.872 20.872 20.872 4.175 0 6.262-2.923 10.437-2.923 56.356-27.134 137.76-45.503 198.291-45.503 81.404 0 169.069 16.699 229.6 62.618 56.356-35.484 158.632-62.618 229.6-62.618 68.88 0 139.847 12.941 198.291 44.25 4.175 2.087 6.262 1.252 10.437 1.252 10.437 0 20.872-10.437 20.872-20.872v-609.066c-25.047-18.785-52.181-31.309-83.49-41.746v563.563c-45.92-14.611-96.014-20.872-146.109-20.872-70.967 0-173.244 27.134-229.6 62.618v-563.563c-60.531-45.92-148.197-62.618-229.6-62.618v0z"></path>
</svg>
