<?xml version="1.0" encoding="UTF-8"?>
<svg width="68px" height="62px" viewBox="0 0 68 62" version="1.1" xmlns="http://www.w3.org/2000/svg" xmlns:xlink="http://www.w3.org/1999/xlink">
    <!-- Generator: Sketch 45.2 (43514) - http://www.bohemiancoding.com/sketch -->
    <title>livros</title>
    <desc>Created with Sketch.</desc>
    <defs></defs>
    <g id="Page-1" stroke="none" stroke-width="1" fill="none" fill-rule="evenodd">
        <g id="Listagem" transform="translate(-735.000000, -819.000000)" fill-rule="nonzero" fill="#FF974B">
            <g id="categorias" transform="translate(405.000000, 256.000000)">
                <g id="Icones" transform="translate(73.000000, 89.000000)">
                    <g id="laranja">
                        <g id="row-3" transform="translate(0.333075, 438.671984)">
                            <g id="Livros" transform="translate(220.000000, 0.000000)">
                                <path d="M92.1798948,36 L76.8521462,49.7949737 L76.8521462,83.5160205 L92.1798948,69.7210468 L92.1798948,36 L92.1798948,36 Z M53.8605234,45.1966491 C47.8827015,45.1966491 41.4450471,46.422869 37,49.7949737 L37,94.7359324 C37,95.5023199 37.7663874,96.2687073 38.5327749,96.2687073 C38.8393298,96.2687073 38.9926073,96.0541188 39.2991623,96.0541188 C43.4376544,94.0615115 49.4154763,92.7126696 53.8605234,92.7126696 C59.8383453,92.7126696 66.2759997,93.9388895 70.7210468,97.3109942 C74.8595389,94.7052769 82.3701357,92.7126696 87.5815702,92.7126696 C92.6397272,92.7126696 97.8511617,93.66299 102.142931,95.9621523 C102.449486,96.1154298 102.602764,96.0541188 102.909319,96.0541188 C103.675706,96.0541188 104.442094,95.2877314 104.442094,94.521344 L104.442094,49.7949737 C102.602764,48.4154763 100.610156,47.4958114 98.3109942,46.729424 L98.3109942,52.8605234 L98.3109942,69.7210468 L98.3109942,88.1143451 C94.9388895,87.0414027 91.2602299,86.5815702 87.5815702,86.5815702 C82.3701357,86.5815702 74.8595389,88.5741775 70.7210468,91.1798948 L70.7210468,69.7210468 L70.7210468,55.9260731 L70.7210468,49.7949737 C66.2759997,46.422869 59.8383453,45.1966491 53.8605234,45.1966491 L53.8605234,45.1966491 Z" id="livros"></path>
                            </g>
                        </g>
                    </g>
                </g>
            </g>
        </g>
    </g>
</svg>