<!-- Generated by IcoMoon.io -->
<svg version="1.1" xmlns="http://www.w3.org/2000/svg" width="1123" height="1024" viewBox="0 0 1123 1024">
<title></title>
<g id="icomoon-ignore">
</g>
<path d="M916.859 11.099l-253.155 227.84v556.941l253.155-227.84v-556.941zM283.972 162.992c-98.73 0-205.056 20.252-278.471 75.947v742.251c0 12.658 12.658 25.316 25.316 25.316 5.063 0 7.595-3.544 12.658-3.544 68.352-32.91 167.082-55.188 240.497-55.188 98.73 0 205.056 20.252 278.471 75.947 68.352-43.036 192.398-75.947 278.471-75.947 83.541 0 169.614 15.696 240.497 53.669 5.063 2.532 7.595 1.519 12.658 1.519 12.658 0 25.316-12.658 25.316-25.316v-738.707c-30.379-22.784-63.289-37.973-101.262-50.631v683.519c-55.694-17.721-116.451-25.316-177.209-25.316-86.073 0-210.119 32.91-278.471 75.947v-683.519c-73.415-55.694-179.74-75.947-278.471-75.947v0z"></path>
</svg>
