<!-- Generated by IcoMoon.io -->
<svg version="1.1" xmlns="http://www.w3.org/2000/svg" width="1870" height="1024" viewBox="0 0 1870 1024">
<title></title>
<g id="icomoon-ignore">
</g>
<path d="M552.589 20.245h152.545c84.248 0 152.545 68.297 152.545 152.545v305.089h-457.634v-305.089c0-84.248 68.297-152.545 152.545-152.545v0zM1162.767 20.245h152.545c84.248 0 152.545 68.297 152.545 152.545v305.089h-457.634v-305.089c0-84.248 68.297-152.545 152.545-152.545v0zM94.956 249.061h76.272c42.124 0 76.272 34.148 76.272 76.272v152.545c0 84.248 68.297 152.545 152.545 152.545h1067.812c84.248 0 152.545-68.297 152.545-152.545v-152.545c0-42.124 34.148-76.272 76.272-76.272h76.272c42.124 0 76.272 34.148 76.272 76.272v686.451h-228.817v-152.545h-1372.901v152.545h-228.817v-686.451c0-42.124 34.148-76.272 76.272-76.272z"></path>
</svg>
