<?xml version="1.0" encoding="UTF-8"?>
<svg width="84px" height="46px" viewBox="0 0 84 46" version="1.1" xmlns="http://www.w3.org/2000/svg" xmlns:xlink="http://www.w3.org/1999/xlink">
    <!-- Generator: Sketch 45.2 (43514) - http://www.bohemiancoding.com/sketch -->
    <title>moveis</title>
    <desc>Created with Sketch.</desc>
    <defs></defs>
    <g id="Page-1" stroke="none" stroke-width="1" fill="none" fill-rule="evenodd">
        <g id="Listagem" transform="translate(-1170.000000, -611.000000)" fill-rule="nonzero" fill="#FF974B">
            <g id="categorias" transform="translate(405.000000, 256.000000)">
                <g id="Icones" transform="translate(73.000000, 89.000000)">
                    <g id="laranja">
                        <g id="row-2" transform="translate(0.333075, 219.426893)">
                            <g id="moveis" transform="translate(663.000000, 0.000000)">
                                <path d="M53.4902676,47.4825312 L60.3428551,47.4825312 C64.1274347,47.4825312 67.1954426,50.5505391 67.1954426,54.3351187 L67.1954426,68.0402936 L46.6376802,68.0402936 L46.6376802,54.3351187 C46.6376802,50.5505391 49.7056881,47.4825312 53.4902676,47.4825312 L53.4902676,47.4825312 Z M80.9006175,47.4825312 L87.753205,47.4825312 C91.5377845,47.4825312 94.6057925,50.5505391 94.6057925,54.3351187 L94.6057925,68.0402936 L74.04803,68.0402936 L74.04803,54.3351187 C74.04803,50.5505391 77.116038,47.4825312 80.9006175,47.4825312 L80.9006175,47.4825312 Z M32.9325052,57.7614124 L36.3587989,57.7614124 C38.2510887,57.7614124 39.7850927,59.2954164 39.7850927,61.1877062 L39.7850927,68.0402936 C39.7850927,71.8248732 42.8531006,74.8928811 46.6376802,74.8928811 L94.6057925,74.8928811 C98.390372,74.8928811 101.45838,71.8248732 101.45838,68.0402936 L101.45838,64.6139999 L101.45838,61.1877062 C101.45838,59.2954164 102.992384,57.7614124 104.884674,57.7614124 L108.310967,57.7614124 C110.203257,57.7614124 111.737261,59.2954164 111.737261,61.1877062 L111.737261,92.0243498 L101.45838,92.0243498 L101.45838,85.1717623 L39.7850927,85.1717623 L39.7850927,92.0243498 L29.5062115,92.0243498 L29.5062115,61.1877062 C29.5062115,59.2954164 31.0402154,57.7614124 32.9325052,57.7614124 Z"></path>
                            </g>
                        </g>
                    </g>
                </g>
            </g>
        </g>
    </g>
</svg>