<?xml version="1.0" encoding="UTF-8"?>
<svg width="63px" height="71px" viewBox="0 0 63 71" version="1.1" xmlns="http://www.w3.org/2000/svg" xmlns:xlink="http://www.w3.org/1999/xlink">
    <!-- Generator: Sketch 45.2 (43514) - http://www.bohemiancoding.com/sketch -->
    <title>outros</title>
    <desc>Created with Sketch.</desc>
    <defs></defs>
    <g id="Page-1" stroke="none" stroke-width="1" fill="none" fill-rule="evenodd">
        <g id="Listagem" transform="translate(-1402.000000, -818.000000)" fill-rule="nonzero" fill="#FF974B">
            <g id="categorias" transform="translate(405.000000, 256.000000)">
                <g id="Icones" transform="translate(73.000000, 89.000000)">
                    <g id="laranja">
                        <g id="row-3" transform="translate(0.333075, 438.671984)">
                            <g id="Outros" transform="translate(884.000000, 0.000000)">
                                <path d="M102.492742,85.3413758 C102.492742,86.6606671 101.76366,87.8063673 100.652678,88.3965766 L73.2253081,103.811453 C72.669817,104.228071 71.9754532,104.43638 71.2463712,104.43638 C70.5172892,104.43638 69.8229254,104.228071 69.2674344,103.811453 L41.8400641,88.3965766 C40.729082,87.8063673 40,86.6606671 40,85.3413758 L40,54.0950046 C40,52.7757134 40.729082,51.6300131 41.8400641,51.0398039 L69.2674344,35.6249274 C69.8229254,35.2083091 70.5172892,35 71.2463712,35 C71.9754532,35 72.669817,35.2083091 73.2253081,35.6249274 L100.652678,51.0398039 C101.76366,51.6300131 102.492742,52.7757134 102.492742,54.0950046 L102.492742,85.3413758 L102.492742,85.3413758 Z M71.2463712,42.4644109 L46.943638,56.1433779 L46.943638,83.2930026 L71.2463712,96.9719696 L95.5491044,83.2930026 L95.5491044,56.1433779 L71.2463712,42.4644109 L71.2463712,42.4644109 Z M71.2463712,49.6857945 L88.2582844,59.5110423 L71.2463712,69.3362901 L54.234458,59.5110423 L71.2463712,49.6857945 L71.2463712,49.6857945 Z M88.6054663,79.7517472 L74.7181902,87.7716491 L74.7181902,75.342537 L88.6054663,67.3226351 L88.6054663,79.7517472 L88.6054663,79.7517472 Z M67.7745522,87.7716491 L53.8872761,79.7517472 L53.8872761,67.3226351 L67.7745522,75.342537 L67.7745522,87.7716491 Z" id="outros"></path>
                            </g>
                        </g>
                    </g>
                </g>
            </g>
        </g>
    </g>
</svg>