<!-- Generated by IcoMoon.io -->
<svg version="1.1" xmlns="http://www.w3.org/2000/svg" width="909" height="1024" viewBox="0 0 909 1024">
<title></title>
<g id="icomoon-ignore">
</g>
<path d="M906.108 735.742c0 19.028-10.515 35.551-26.538 44.064l-395.572 222.322c-8.012 6.009-18.026 9.013-28.541 9.013s-20.53-3.004-28.541-9.013l-395.572-222.322c-16.023-8.512-26.538-25.036-26.538-44.064v-450.652c0-19.028 10.515-35.551 26.538-44.064l395.572-222.322c8.012-6.009 18.026-9.013 28.541-9.013s20.53 3.004 28.541 9.013l395.572 222.322c16.023 8.512 26.538 25.036 26.538 44.064v450.652zM455.456 117.347l-350.507 197.285v391.566l350.507 197.285 350.507-197.285v-391.566l-350.507-197.285zM455.456 221.498l245.355 141.705-245.355 141.705-245.355-141.705 245.355-141.705zM705.818 655.125l-200.29 115.667v-179.259l200.29-115.667v179.259zM405.383 770.793l-200.29-115.667v-179.259l200.29 115.667v179.259z"></path>
</svg>
