<!-- Generated by IcoMoon.io -->
<svg version="1.1" xmlns="http://www.w3.org/2000/svg" width="1138" height="1024" viewBox="0 0 1138 1024">
<title></title>
<g id="icomoon-ignore">
</g>
<path d="M362.056 11.762c65.849-9.487 135.605 62.501 155.694 161.833 20.090 98.774-16.183 186.945-82.033 196.99-65.291 10.045-135.605-61.943-156.253-161.275-20.648-98.774 16.741-186.945 82.591-197.548v0zM761.058 11.762c66.407 10.603 103.238 98.774 83.707 197.548-21.206 99.332-90.961 171.32-156.811 161.275-66.407-10.045-102.68-98.216-82.033-196.99 20.090-99.332 89.845-171.32 155.136-161.833v0zM63.502 268.462c63.617-27.344 150.114 22.322 195.316 108.819 42.411 88.171 27.902 180.807-35.157 208.151s-148.998-21.764-193.084-109.377c-44.086-87.613-28.46-180.807 32.925-207.593v0zM1067.983 268.462c61.385 26.786 77.010 119.98 32.925 207.593s-130.024 136.721-193.084 109.377c-63.059-27.344-77.568-119.98-35.157-208.151 45.202-86.497 131.699-136.163 195.316-108.819v0zM974.789 870.035c2.232 52.456-37.947 110.493-85.939 132.257-99.89 45.76-218.196-49.108-329.246-49.108s-230.473 98.774-328.688 49.108c-55.804-27.344-94.31-99.89-87.055-160.159 10.045-83.149 109.935-127.792 169.088-188.619 78.684-78.684 134.489-226.566 246.656-226.566 111.609 0 170.762 145.65 246.098 226.566 61.943 68.081 165.181 125.56 169.088 216.521z"></path>
</svg>
