<!-- Generated by IcoMoon.io -->
<svg version="1.1" xmlns="http://www.w3.org/2000/svg" width="1024" height="1024" viewBox="0 0 1024 1024">
<title></title>
<g id="icomoon-ignore">
</g>
<path fill="#000" d="M372.267 128c50.347-7.253 103.68 47.787 119.040 123.733 15.36 75.52-12.373 142.933-62.72 150.613-49.92 7.68-103.68-47.36-119.467-123.307-15.787-75.52 12.8-142.933 63.147-151.040zM677.333 128c50.773 8.107 78.933 75.52 64 151.040-16.213 75.947-69.547 130.987-119.893 123.307-50.773-7.68-78.507-75.093-62.72-150.613 15.36-75.947 68.693-130.987 118.613-123.733zM144 324.267c48.64-20.907 114.773 17.067 149.333 83.2 32.427 67.413 21.333 138.24-26.88 159.147s-113.92-16.64-147.627-83.627c-33.707-66.987-21.76-138.24 25.173-158.72zM912 324.267c46.933 20.48 58.88 91.733 25.173 158.72s-99.413 104.533-147.627 83.627c-48.213-20.907-59.307-91.733-26.88-159.147 34.56-66.133 100.693-104.107 149.333-83.2zM840.747 784.213c1.707 40.107-29.013 84.48-65.707 101.12-76.373 34.987-166.827-37.547-251.733-37.547s-176.213 75.52-251.307 37.547c-42.667-20.907-72.107-76.373-66.56-122.453 7.68-63.573 84.053-97.707 129.28-144.213 60.16-60.16 102.827-173.227 188.587-173.227 85.333 0 130.56 111.36 188.16 173.227 47.36 52.053 126.293 96 129.28 165.547z"></path>
</svg>
