<?xml version="1.0" encoding="UTF-8"?>
<svg width="70px" height="63px" viewBox="0 0 70 63" version="1.1" xmlns="http://www.w3.org/2000/svg" xmlns:xlink="http://www.w3.org/1999/xlink">
    <!-- Generator: Sketch 45.2 (43514) - http://www.bohemiancoding.com/sketch -->
    <title>pet</title>
    <desc>Created with Sketch.</desc>
    <defs></defs>
    <g id="Page-1" stroke="none" stroke-width="1" fill="none" fill-rule="evenodd">
        <g id="Listagem" transform="translate(-1177.000000, -822.000000)" fill-rule="nonzero" fill="#FF974B">
            <g id="categorias" transform="translate(405.000000, 256.000000)">
                <g id="Icones" transform="translate(73.000000, 89.000000)">
                    <g id="laranja">
                        <g id="row-3" transform="translate(0.333075, 438.671984)">
                            <g id="Pet" transform="translate(663.000000, 0.000000)">
                                <path d="M57.9418471,39.0516472 C61.9931215,38.467989 66.2847259,42.8969246 67.5207079,49.0081692 C68.7566899,55.0850809 66.5250557,60.5096688 62.4737812,61.1276598 C58.4568396,61.7456508 54.1309024,57.3167152 52.8605875,51.2054706 C51.5902727,45.1285589 53.8905726,39.703971 57.9418471,39.0516472 L57.9418471,39.0516472 Z M82.4898238,39.0516472 C86.5754311,39.703971 88.8413982,45.1285589 87.639749,51.2054706 C86.3351012,57.3167152 82.0434969,61.7456508 77.9922224,61.1276598 C73.9066151,60.5096688 71.6749809,55.0850809 72.9452958,49.0081692 C74.1812778,42.8969246 78.4728821,38.467989 82.4898238,39.0516472 L82.4898238,39.0516472 Z M39.5737806,54.8447511 C43.4877237,53.1624422 48.8093131,56.2180644 51.5902727,61.5396538 C54.1995681,66.9642417 53.3069144,72.6634922 49.4273041,74.3458011 C45.5476938,76.02811 40.2604372,73.0068206 37.5481433,67.6165655 C34.8358494,62.2263105 35.7971688,56.4927271 39.5737806,54.8447511 L39.5737806,54.8447511 Z M101.372883,54.8447511 C105.149495,56.4927271 106.110814,62.2263105 103.39852,67.6165655 C100.686226,73.0068206 95.3989696,76.02811 91.5193593,74.3458011 C87.639749,72.6634922 86.7470953,66.9642417 89.3563907,61.5396538 C92.1373503,56.2180644 97.4589396,53.1624422 101.372883,54.8447511 L101.372883,54.8447511 Z M95.6392994,91.8555467 C95.7766308,95.0828332 93.3046667,98.653448 90.3520429,99.9924285 C84.2064655,102.807721 76.9279046,96.9711391 70.0956705,96.9711391 C63.2634364,96.9711391 55.9162098,103.048051 49.8736309,99.9924285 C46.4403475,98.3101196 44.0713819,93.8468511 44.5177087,90.138905 C45.1356998,85.0233127 51.2812771,82.2766859 54.9205576,78.5344069 C59.7614873,73.6934772 63.1947707,64.5952761 70.0956705,64.5952761 C76.9622374,64.5952761 80.6015179,73.5561459 85.2364505,78.5344069 C89.0473952,82.7230127 95.3989696,86.2592947 95.6392994,91.8555467 Z" id="pet"></path>
                            </g>
                        </g>
                    </g>
                </g>
            </g>
        </g>
    </g>
</svg>