<!-- Generated by IcoMoon.io -->
<svg version="1.1" xmlns="http://www.w3.org/2000/svg" width="1024" height="1024" viewBox="0 0 1024 1024">
<title></title>
<g id="icomoon-ignore">
</g>
<path fill="#000" d="M698.667 928h-341.333c-23.564 0-42.667-19.103-42.667-42.667v0-338.347l-55.467 44.8c-16.64 16.213-43.52 16.213-60.16 0l-120.747-120.747c-16.64-16.64-16.64-43.52 0-60.16l250.88-250.88h70.827c0 46.933 57.173 85.333 128 85.333s128-38.4 128-85.333h70.827l250.88 250.88c16.64 16.64 16.64 43.52 0 60.16l-120.747 120.747c-16.64 16.213-43.52 16.213-60.16 0l-55.467-44.8v338.347c0 23.564-19.103 42.667-42.667 42.667v0zM887.253 440.747l-183.893-183.467c-13.227 14.933-29.013 28.16-47.36 39.253-35.84 21.333-79.787 34.133-128 34.133-72.533 0-136.96-29.013-175.36-73.387l-183.893 183.467 60.587 60.587 128-85.333h42.667v426.667h256v-426.667h42.667l128 85.333 60.587-60.587z"></path>
</svg>
