<!-- Generated by IcoMoon.io -->
<svg version="1.1" xmlns="http://www.w3.org/2000/svg" width="1232" height="1024" viewBox="0 0 1232 1024">
<title></title>
<g id="icomoon-ignore">
</g>
<path d="M833.935 1008.163h-446.67c-30.836 0-55.834-24.998-55.834-55.834v-442.762l-72.584 58.625c-21.775 21.217-56.95 21.217-78.726 0l-158.009-158.009c-21.775-21.775-21.775-56.95 0-78.726l328.302-328.302h92.684c0 61.417 74.817 111.667 167.501 111.667s167.501-50.25 167.501-111.667h92.684l328.302 328.302c21.775 21.775 21.775 56.95 0 78.726l-158.009 158.009c-21.775 21.217-56.95 21.217-78.726 0l-72.584-58.625v442.762c0 30.836-24.998 55.834-55.834 55.834v0zM1080.72 370.541l-240.643-240.085c-17.308 19.542-37.967 36.85-61.975 51.367-46.9 27.917-104.409 44.667-167.501 44.667-94.917 0-179.226-37.967-229.477-96.034l-240.643 240.085 79.284 79.284 167.501-111.667h55.834v558.337h335.002v-558.337h55.834l167.501 111.667 79.284-79.284z"></path>
</svg>
