<?xml version="1.0" encoding="UTF-8"?>
<svg width="71px" height="59px" viewBox="0 0 71 59" version="1.1" xmlns="http://www.w3.org/2000/svg" xmlns:xlink="http://www.w3.org/1999/xlink">
    <!-- Generator: Sketch 45.2 (43514) - http://www.bohemiancoding.com/sketch -->
    <title>roupas</title>
    <desc>Created with Sketch.</desc>
    <defs></defs>
    <g id="Page-1" stroke="none" stroke-width="1" fill="none" fill-rule="evenodd">
        <g id="Listagem" transform="translate(-734.000000, -386.000000)" fill-rule="nonzero" fill="#FF974B">
            <g id="categorias" transform="translate(405.000000, 256.000000)">
                <g id="Icones" transform="translate(73.000000, 89.000000)">
                    <g id="laranja">
                        <g id="row-1" transform="translate(0.333075, 0.181801)">
                            <g id="Roupas" transform="translate(220.000000, 0.000000)">
                                <path d="M83.7158996,98.905693 L57.980036,98.905693 C56.2033454,98.905693 54.763053,97.4654007 54.763053,95.6887101 L54.763053,70.1780353 L50.5809752,73.5558674 C49.3263519,74.7783209 47.2996526,74.7783209 46.0450293,73.5558674 L36.9409675,64.4518057 C35.6863442,63.1971823 35.6863442,61.1704831 36.9409675,59.9158597 L55.8568272,41 L61.1970189,41 C61.1970189,44.5386812 65.5077761,47.4339659 70.8479678,47.4339659 C76.1881595,47.4339659 80.4989166,44.5386812 80.4989166,41 L85.8391083,41 L104.754968,59.9158597 C106.009591,61.1704831 106.009591,63.1971823 104.754968,64.4518057 L95.6509063,73.5558674 C94.3962829,74.7783209 92.3695837,74.7783209 91.1149603,73.5558674 L86.9328825,70.1780353 L86.9328825,95.6887101 C86.9328825,97.4654007 85.4925902,98.905693 83.7158996,98.905693 L83.7158996,98.905693 Z M97.9349642,62.1677478 L84.0697677,48.3347211 C83.072503,49.4606652 81.8822193,50.4579299 80.4989166,51.2943454 C77.7966509,52.9028369 74.4831585,53.8679318 70.8479678,53.8679318 C65.3790968,53.8679318 60.5214525,51.6803834 57.6261679,48.3347211 L43.7609714,62.1677478 L48.3290871,66.7358636 L57.980036,60.3018977 L61.1970189,60.3018977 L61.1970189,92.4717272 L80.4989166,92.4717272 L80.4989166,60.3018977 L83.7158996,60.3018977 L93.3668484,66.7358636 L97.9349642,62.1677478 Z" id="roupas"></path>
                            </g>
                        </g>
                    </g>
                </g>
            </g>
        </g>
    </g>
</svg>