<!-- Generated by IcoMoon.io -->
<svg version="1.1" xmlns="http://www.w3.org/2000/svg" width="1236" height="1024" viewBox="0 0 1236 1024">
<title></title>
<g id="icomoon-ignore">
</g>
<path d="M340.587 3.21c-184.854 0-334.707 149.853-334.707 334.707 0 30.428 5.477 60.856 13.388 91.284h248.292l77.287-205.084c18.257-48.685 90.067-53.553 113.192 0l125.972 326.796 35.905-86.415c7.911-20.082 29.211-35.296 55.379-35.296h534.314c7.911-30.428 13.388-60.856 13.388-91.284 0-184.854-149.853-334.707-334.707-334.707-113.192 0-212.995 56.596-273.851 142.403-60.856-85.807-160.659-142.403-273.851-142.403v0 0zM66.736 520.484c-33.61 0-60.856 27.246-60.856 60.856s27.246 60.856 60.856 60.856h148.488l338.358 334.707c60.856 54.77 60.856 54.77 121.712 0l338.358-334.707h148.488c33.61 0 60.856-27.246 60.856-60.856s-27.246-60.856-60.856-60.856h-462.504l-56.596 139.968c-24.342 61.464-94.326 52.945-116.843 1.826l-124.754-324.361-58.422 141.794c-9.128 23.125-29.819 40.773-57.204 40.773h-219.081z"></path>
</svg>
