<?xml version="1.0" encoding="UTF-8"?>
<svg width="70px" height="58px" viewBox="0 0 70 58" version="1.1" xmlns="http://www.w3.org/2000/svg" xmlns:xlink="http://www.w3.org/1999/xlink">
    <!-- Generator: Sketch 45.2 (43514) - http://www.bohemiancoding.com/sketch -->
    <title>saude</title>
    <desc>Created with Sketch.</desc>
    <defs></defs>
    <g id="Page-1" stroke="none" stroke-width="1" fill="none" fill-rule="evenodd">
        <g id="Listagem" transform="translate(-1177.000000, -386.000000)" fill-rule="nonzero" fill="#FF974B">
            <g id="categorias" transform="translate(405.000000, 256.000000)">
                <g id="Icones" transform="translate(73.000000, 89.000000)">
                    <g id="laranja">
                        <g id="row-1" transform="translate(0.333075, 0.181801)">
                            <g id="saude" transform="translate(663.000000, 0.000000)">
                                <path d="M54.9580071,41 C44.4877889,41 36,49.4877889 36,59.9580071 C36,61.6814623 36.3102219,63.4049174 36.7583203,65.1283726 L50.8217146,65.1283726 L55.1992908,53.5122847 C56.2333639,50.7547564 60.3007181,50.4790035 61.6105441,53.5122847 L68.7456486,72.0221934 L70.7793257,67.1275806 C71.227424,65.9901002 72.4338427,65.1283726 73.9160141,65.1283726 L104.179887,65.1283726 C104.627986,63.4049174 104.938208,61.6814623 104.938208,59.9580071 C104.938208,49.4877889 96.4504186,41 85.9802004,41 C79.5689471,41 73.9160141,44.2056266 70.4691038,49.0657703 C67.0221934,44.2056266 61.3692604,41 54.9580071,41 L54.9580071,41 L54.9580071,41 Z M39.4469104,70.2987382 C37.5432343,70.2987382 36,71.8419725 36,73.7456486 C36,75.6493246 37.5432343,77.1925589 39.4469104,77.1925589 L47.8573717,77.1925589 L67.0221934,96.150566 C70.4691038,99.2527853 70.4691038,99.2527853 73.9160141,96.150566 L93.0808358,77.1925589 L101.491297,77.1925589 C103.394973,77.1925589 104.938208,75.6493246 104.938208,73.7456486 C104.938208,71.8419725 103.394973,70.2987382 101.491297,70.2987382 L75.2947783,70.2987382 L72.0891516,78.2266321 C70.7103875,81.7080115 66.7464406,81.2254441 65.4710837,78.3300394 L58.4049174,59.9580071 L55.0958835,67.9893082 C54.5788469,69.2991342 53.4068974,70.2987382 51.8557877,70.2987382 L39.4469104,70.2987382 Z"></path>
                            </g>
                        </g>
                    </g>
                </g>
            </g>
        </g>
    </g>
</svg>