<!-- Generated by IcoMoon.io -->
<svg version="1.1" xmlns="http://www.w3.org/2000/svg" width="1024" height="1024" viewBox="0 0 1024 1024">
<title></title>
<g id="icomoon-ignore">
</g>
<path fill="#000" d="M320 202.667c-129.603 0-234.667 105.064-234.667 234.667v0c0 21.333 3.84 42.667 9.387 64h174.080l54.187-143.787c12.8-34.133 63.147-37.547 79.36 0l88.32 229.12 25.173-60.587c5.547-14.080 20.48-24.747 38.827-24.747h374.613c5.547-21.333 9.387-42.667 9.387-64 0-129.603-105.064-234.667-234.667-234.667v0c-79.36 0-149.333 39.68-192 99.84-42.667-60.16-112.64-99.84-192-99.84v0zM128 565.333c-23.564 0-42.667 19.103-42.667 42.667v0c0 23.564 19.103 42.667 42.667 42.667v0h104.107l237.227 234.667c42.667 38.4 42.667 38.4 85.333 0l237.227-234.667h104.107c23.564 0 42.667-19.103 42.667-42.667v0c0-23.564-19.103-42.667-42.667-42.667v0h-324.267l-39.68 98.133c-17.067 43.093-66.133 37.12-81.92 1.28l-87.467-227.413-40.96 99.413c-6.4 16.213-20.907 28.587-40.107 28.587h-153.6z"></path>
</svg>
