<?xml version="1.0" encoding="UTF-8"?>
<svg width="69px" height="69px" viewBox="0 0 69 69" version="1.1" xmlns="http://www.w3.org/2000/svg" xmlns:xlink="http://www.w3.org/1999/xlink">
    <!-- Generator: Sketch 45.2 (43514) - http://www.bohemiancoding.com/sketch -->
    <title>servicos</title>
    <desc>Created with Sketch.</desc>
    <defs></defs>
    <g id="Page-1" stroke="none" stroke-width="1" fill="none" fill-rule="evenodd">
        <g id="Listagem" transform="translate(-514.000000, -600.000000)" fill-rule="nonzero" fill="#FF974B">
            <g id="categorias" transform="translate(405.000000, 256.000000)">
                <g id="Icones" transform="translate(73.000000, 89.000000)">
                    <g id="laranja">
                        <g id="row-2" transform="translate(0.333075, 219.426893)">
                            <g id="servicos">
                                <path d="M103.740778,91.7648032 L75.3913251,63.41535 C78.1951172,56.2501036 76.6374549,47.8387273 70.7183383,41.9196107 C64.4876892,35.6889616 55.1417156,34.4428318 47.6649368,37.8696888 L61.0608322,51.2655843 L51.7148586,60.6115579 L38.0074307,47.2156624 C34.2690413,54.6924413 35.8267035,64.0384149 42.0573526,70.269064 C47.9764692,76.1881806 56.3878454,77.7458428 63.5530919,74.9420508 L91.9025451,103.291504 C93.1486749,104.537634 95.0178697,104.537634 96.2639995,103.291504 L103.429246,96.1262576 C104.986908,94.8801278 104.986908,92.6994006 103.740778,91.7648032 Z"></path>
                            </g>
                        </g>
                    </g>
                </g>
            </g>
        </g>
    </g>
</svg>