<!-- Generated by IcoMoon.io -->
<svg version="1.1" xmlns="http://www.w3.org/2000/svg" width="1024" height="1024" viewBox="0 0 1024 1024">
<title></title>
<g id="icomoon-ignore">
</g>
<path fill="#000" d="M64 170.667v64c0 177.067 94.293 331.947 234.667 418.133v200.533h640v-85.333c0-113.493-227.413-170.667-341.333-170.667 0 0-7.253 0-10.667 0-202.667 0-373.333-170.667-373.333-362.667v-64zM597.333 170.667c-94.257 0-170.667 76.41-170.667 170.667v0c0 94.257 76.41 170.667 170.667 170.667v0c94.257 0 170.667-76.41 170.667-170.667v0c0-94.257-76.41-170.667-170.667-170.667v0z"></path>
</svg>
