<?xml version="1.0" encoding="UTF-8"?>
<svg width="287px" height="54px" viewBox="0 0 287 54" version="1.1" xmlns="http://www.w3.org/2000/svg" xmlns:xlink="http://www.w3.org/1999/xlink">
    <!-- Generator: Sketch 50.2 (55047) - http://www.bohemiancoding.com/sketch -->
    <title>Vitrine Social</title>
    <desc>Created with Sketch.</desc>
    <defs>
        <path d="M201.997,258.37 C198.149,258.37 196.151,257.704 194.227,252.82 C191.045,244.68 193.043,217.3 195.707,217.3 C199.555,217.3 201.849,218.262 202.441,219.372 C199.777,221.074 197.853,254.078 200.813,254.078 C205.401,254.078 215.021,215.82 210.507,213.156 C211.099,211.232 219.239,214.266 219.239,217.448 C219.239,226.92 209.693,258.37 201.997,258.37 Z M304.511334,247.110025 C304.49512,246.818977 304.487,246.526753 304.487,246.234 C304.487,238.094 309.297,228.252 314.255,228.252 C314.847,228.252 315.587,228.4 316.327,228.696 C316.993,227.734 318.177,227.142 318.917,227.142 C322.025,227.956 323.283,230.768 323.283,234.024 C323.283,240.906 317.733,249.638 311.517,246.456 L311.517,247.418 C311.517,250.526 313.145,253.782 316.401,253.782 C321.951,253.782 326.909,244.236 328.611,239.13 C329.721,239.13 330.461,239.944 330.609,240.462 C330.609,240.462 326.021,258 314.477,258 C309.975622,258 306.960685,255.303665 305.503069,251.682997 C303.863248,254.583658 301.859258,256.89 299.677,256.89 C295.607,256.89 292.573,254.004 292.129,250.304 C291.611,245.42 293.683,238.168 294.719,234.32 C295.163,232.766 294.349,232.618 293.165,234.246 C290.871,237.576 285.987,245.79 285.321,255.336 C282.641856,255.336 280.375272,253.869119 279.351059,251.693012 C277.740553,254.439044 275.74672,256.594 273.481,256.594 C271.541078,256.594 267.968464,255.203188 267.026888,251.492288 C265.278136,254.333299 263.147644,256.594 260.827,256.594 C257.941,256.594 254.019,254.892 253.649,250.23 C253.427,247.418 254.833,238.316 256.905,234.394 C255.129,234.69 253.649,234.838 252.391,234.764 L250.023,242.46 C250.012449,242.469044 250.00156,242.477658 249.990351,242.485842 C248.422992,247.262931 244.055722,257.482 238.553,257.482 C234.210789,257.482 231.623361,254.791332 230.790717,251.594168 C229.170238,254.387155 227.155836,256.594 224.863,256.594 C222.717,256.594 218.573,254.892 218.203,250.23 C217.907,246.53 219.313,230.916 222.273,230.916 C223.309,230.916 226.713,231.878 228.193,232.914 C227.305,234.542 224.715,245.124 224.715,249.86 C224.715,251.636 225.085,252.376 225.751,252.376 C227.262522,252.376 229.140676,248.96053 230.616873,245.617805 C230.890769,242.250957 231.539544,238.004006 232.337,233.876 L232.263,233.876 C228.563,233.876 229.007,229.806 229.525,229.214 C230.117,229.51 231.597,229.51 233.299,229.362 C234.705,223.294 236.185,218.41 237.073,218.41 C238.923,218.41 242.327,219.298 243.437,220.778 C242.993,221.592 241.957,224.552 240.921,228.4 C242.179,228.252 243.289,228.104 243.955,228.104 C245.805,228.104 246.545,230.768 245.657,233.358 C245.287,232.988 242.549,233.136 239.589,233.358 C237.295,242.534 235.519,253.264 238.923,253.264 C241.957,253.264 246.101,246.308 248.617,239.13 C248.621908,239.128773 248.626871,239.127602 248.631889,239.126487 C249.057481,237.771872 249.609373,235.954406 250.097,234.394 C247.803,233.654 246.693,232.1 246.693,230.028 C246.693,227.512 248.247,223.368 250.541,223.368 C252.317,223.368 254.389,224.478 255.425,226.032 C254.907,226.402 253.575,229.806 252.835,231.804 C254.907,231.804 257.867,230.546 258.459,230.324 C259.865,230.324 264.527,233.284 264.749,234.468 C263.861,236.096 260.161,245.124 260.161,249.86 C260.161,251.636 261.049,252.376 261.715,252.376 C263.280185,252.376 265.295785,249.035426 266.911193,245.718896 C267.314922,239.765665 268.662575,230.916 270.891,230.916 C271.927,230.916 275.331,231.878 276.811,232.914 C275.923,234.542 273.333,245.124 273.333,249.86 C273.333,251.636 273.703,252.376 274.369,252.376 C275.730792,252.376 277.390178,249.603681 278.785096,246.609936 C279.105041,240.101622 281.178181,229.732 282.361,229.732 C283.767,229.732 286.727,230.102 288.799,232.026 C288.133,233.58 286.801,237.724 285.839,241.942 C288.725,234.838 293.387,228.03 294.867,228.03 C298.123,228.03 303.007,232.248 303.007,233.58 C301.749,235.874 296.495,252.672 299.973,252.672 C301.350659,252.672 303.04819,250.040327 304.511334,247.110025 Z M226.639,212.046 C228.637,212.046 232.411,213.748 232.411,216.486 C232.411,219.594 229.007,225.662 226.121,225.662 C224.493,225.662 222.273,223.812 222.273,219.816 C222.273,216.56 223.457,212.046 226.639,212.046 Z M275.257,212.046 C277.255,212.046 281.029,213.748 281.029,216.486 C281.029,219.594 277.625,225.662 274.739,225.662 C273.111,225.662 270.891,223.812 270.891,219.816 C270.891,216.56 272.075,212.046 275.257,212.046 Z M311.739,244.31 C317.289,245.346 319.583,234.764 317.511,232.618 C315.217,233.95 312.553,239.13 311.739,244.31 Z M451.858718,244.667493 C451.906633,231.800726 457.256312,211.454 462.551,211.454 C463.439,211.454 464.697,211.824 465.807,212.564 C466.177,212.046 466.769,211.602 467.213,211.602 C468.915,211.602 469.729,214.044 469.729,218.04 C469.655,223.96 464.031,240.388 458.037,245.716 C457.963,250.304 458.703,253.56 460.997,253.56 C465.881,253.56 470.691,239.13 470.691,239.13 L470.913,239.13 C471.801,239.13 472.615,239.796 472.615,240.018 C472.689,240.684 468.767,257.778 459.591,257.778 C455.818699,257.778 453.155399,254.968531 452.2662,250.162495 C450.556445,253.317047 448.330678,256.002 445.753,256.002 C441.757,256.002 439.241,253.116 438.871,249.416 C438.797,249.268 438.797,249.046 438.797,248.898 C437.317,253.708 435.319,257.556 431.841,257.556 C429.740384,257.556 426.659696,255.905354 425.31213,252.13033 C423.749488,254.664418 421.84897,256.594 419.705,256.594 C417.679733,256.594 413.874957,255.078121 413.142256,250.988966 C410.560002,254.715313 406.866895,258 401.871,258 C396.000446,258 393.24607,253.413926 392.716924,248.172434 C391.515382,248.95078 390.196337,249.475274 388.847,249.712 C387.071,254.522 383.815,258.296 379.153,258.296 C372.345,258.296 369.459,251.784 369.459,246.308 C369.459,239.426 372.715,231.804 375.305,231.804 L375.453,231.804 C376.045,229.88 377.673,228.622 379.301,228.622 C382.483,228.622 386.701,231.434 387.663,232.248 C389.513,233.876 390.401,237.058 390.401,240.906 C390.401,242.608 390.179,244.384 389.883,246.086 C390.884719,245.779919 391.834124,245.243653 392.69187,244.481135 C393.303777,236.747926 397.782509,228.252 402.389,228.252 C403.351,228.252 404.461,228.622 405.571,229.14 C406.163,228.696 406.903,228.326 407.643,228.326 C409.419,228.326 411.639,230.916 411.787,233.506 C411.787,239.278 408.309,243.348 405.571,243.348 C404.831,243.348 403.943,243.052 403.499,242.164 C404.535,242.09 406.681,238.094 406.681,234.69 C406.681,233.95 406.533,233.136 406.311,232.322 C403.499,233.062 399.651,240.98 399.651,247.418 C399.651,250.526 400.539,253.782 403.795,253.782 C407.439284,253.782 410.796416,249.698052 413.154086,245.447856 C413.579735,239.500983 414.920153,230.916 417.115,230.916 C418.151,230.916 421.555,231.878 423.035,232.914 C422.147,234.542 419.557,245.124 419.557,249.86 C419.557,251.636 419.927,252.376 420.593,252.376 C421.833401,252.376 423.320705,250.075904 424.630158,247.403443 C424.665758,239.574195 428.487253,227.438 435.541,227.438 C438.649,227.438 446.937,231.656 445.087,235.06 L444.865,235.356 C446.271,236.022 447.603,237.132 448.121,238.538 C446.123,244.236 444.717,251.784 446.641,251.784 C448.338474,251.784 450.367054,248.053538 451.858718,244.667493 Z M358.137,211.824 C360.357,211.824 362.059,212.712 363.243,213.674 C365.759,214.118 369.977,215.82 369.977,219.446 C369.977,223.59 366.055,230.99 362.873,230.99 C361.763,230.99 361.097,230.102 360.875,229.362 C362.281,228.548 363.613,224.33 363.613,221 C363.613,219.298 363.243,217.448 362.873,215.968 C355.695,217.67 348.221,226.476 348.221,230.176 C348.221,237.058 366.055,230.694 366.055,246.012 C366.055,254.966 354.437,259.036 347.999,259.036 C341.339,259.036 341.339,256.224 341.043,255.04 C339.415,254.004 338.601,252.746 338.601,251.636 C338.601,248.454 344.003,245.716 346.149,245.716 C346.593,245.716 347.259,245.938 347.259,246.382 C347.259,246.382 342.227,249.342 342.227,251.266 C342.227,252.154 343.041,252.524 344.595,252.524 C352.291,252.524 360.949,248.75 360.949,244.384 C360.949,238.094 340.969,240.832 340.969,229.88 C340.969,222.11 351.477,211.824 358.137,211.824 Z M458.333,241.498 C459.517,230.398 463.957,215.598 465.733,215.598 C466.325,218.928 462.551,234.32 458.333,241.498 Z M432.655,253.042 C434.949,253.042 438.945,240.98 440.573,235.8 C440.129,233.062 439.389,231.73 438.205,231.73 C433.247,231.73 429.547,253.042 432.655,253.042 Z M378.191,239.796 C379.597,242.682 381.447,244.68 383.815,245.716 C384.481,243.052 384.925,240.166 384.925,237.798 C384.925,234.616 384.185,232.248 382.483,232.248 C381.743,232.248 380.855,232.692 380.041,233.432 C380.929,233.876 381.595,234.468 381.595,234.912 C381.595,235.06 381.595,235.134 381.447,235.282 C380.263,235.8 379.079,237.502 378.191,239.796 Z M382.705,249.268 C380.263,248.454 378.265,246.974 376.637,244.828 C376.267,246.604 376.045,248.38 376.045,249.934 C376.045,252.672 376.711,254.596 378.339,254.596 C379.967,254.596 381.521,252.376 382.705,249.268 Z M421.481,212.046 C423.479,212.046 427.253,213.748 427.253,216.486 C427.253,219.594 423.849,225.662 420.963,225.662 C419.335,225.662 417.115,223.812 417.115,219.816 C417.115,216.56 418.299,212.046 421.481,212.046 Z" id="path-1"></path>
        <filter x="-1.4%" y="-8.4%" width="103.6%" height="121.0%" filterUnits="objectBoundingBox" id="filter-2">
            <feOffset dx="1" dy="1" in="SourceAlpha" result="shadowOffsetOuter1"></feOffset>
            <feGaussianBlur stdDeviation="1.5" in="shadowOffsetOuter1" result="shadowBlurOuter1"></feGaussianBlur>
            <feColorMatrix values="0 0 0 0 0.941176471   0 0 0 0 0.48627451   0 0 0 0 0.62745098  0 0 0 0.722514719 0" type="matrix" in="shadowBlurOuter1"></feColorMatrix>
        </filter>
    </defs>
    <g id="Page-1" stroke="none" stroke-width="1" fill="none" fill-rule="evenodd">
        <g id="Letter" transform="translate(-374.000000, -290.000000)">
            <g id="Group-4" transform="translate(184.000000, 81.000000)">
                <g id="Vitrine-Social">
                    <use fill="black" fill-opacity="1" filter="url(#filter-2)" xlink:href="#path-1"></use>
                    <use fill="#FA578A" fill-rule="evenodd" xlink:href="#path-1"></use>
                </g>
            </g>
        </g>
    </g>
</svg>