<?xml version="1.0" encoding="UTF-8"?>
<svg width="291px" height="86px" viewBox="0 0 291 86" version="1.1" xmlns="http://www.w3.org/2000/svg" xmlns:xlink="http://www.w3.org/1999/xlink">
    <!-- Generator: Sketch 50 (54983) - http://www.bohemiancoding.com/sketch -->
    <title>logo</title>
    <desc>Created with Sketch.</desc>
    <defs></defs>
    <g id="Page-1" stroke="none" stroke-width="1" fill="none" fill-rule="evenodd">
        <g id="logo" transform="translate(-1.000000, 0.000000)" fill="#000000" fill-rule="nonzero">
            <path d="M32.23,28.79 C32.33,27.79 32.38,26.63 32.42,25.51 C32.46,24.39 32.52,23.06 32.64,22 C32.97,19 33.77,10.21 33.84,8.78 C33.84,8.62 33.84,8.39 33.84,8.11 C33.9836537,6.50320441 33.9836537,4.88679559 33.84,3.28 C33.6390376,1.72562802 32.5158738,0.448227004 31,0.05 C29.452458,-0.1454615 27.9498045,0.655953702 27.25,2.05 C25.73,4.56 25.33,8.63 25.12,10.81 C25.03,11.69 24.72,14.34 24.46,16.47 L24.37,17.26 C24.2337232,17.1192766 24.0901947,16.9857617 23.94,16.86 C23.0294083,16.1602424 21.9492097,15.7150488 20.81,15.57 C19.7217207,15.375041 18.5994954,15.5585496 17.63,16.09 C17.0328768,16.3891371 16.5256685,16.841139 16.16,17.4 C14.8917642,16.4706655 13.2950468,16.108598 11.75,16.4 C10.8842409,16.5460615 10.0633296,16.8881078 9.35,17.4 C9.3454447,16.8306506 9.29864956,16.262424 9.21,15.7 L9,14.34 C8.94,13.85 8.87,13.34 8.8,12.9 C8.8,12.72 8.74,12.54 8.72,12.36 C8.6417074,10.8932104 8.16456251,9.47560605 7.34,8.26 C6.75342287,7.70422731 5.96744603,7.40858465 5.16,7.44 C4.11137723,7.36146228 3.08754503,7.7843495 2.4,8.58 C0.92,10.36 1,11.89 1,14.43 L1,14.92 C1.05,16.92 1.16,18.73 1.27,20.66 C1.27,21.47 1.36,22.3 1.41,23.15 C1.45924194,24.9992614 1.38909618,26.8497731 1.2,28.69 C1.12,29.61 1.04,30.57 1,31.48 C0.740362973,34.2671733 1.00147124,37.0783259 1.77,39.77 L1.9,40.13 C2.44199183,41.8962873 3.22611491,43.5789549 4.23,45.13 C4.3,45.96 4.35,46.6 4.39,47.13 C4.60860543,49.4582132 4.60860543,51.8017868 4.39,54.13 L4.31,55.94 C4.08,62.24 6.12,67.15 10.43,70.5 L11.6,71.41 L11.6,69.93 C11.6,69.36 11.6,68.93 11.53,68.58 C11.4316041,67.7199312 11.4653273,66.8498723 11.63,66 C14.91,70 14.99,73.18 15.12,78.65 C15.12,80.24 15.21,82.04 15.34,84.09 L15.41,85.29 L16.41,84.64 C21.5175937,81.5825086 24.8970025,76.307966 25.54,70.39 C25.8617974,67.1779273 25.5906281,63.9340643 24.74,60.82 C25.8169161,61.5151758 27.025269,61.9814979 28.29,62.19 L29.92,62.53 L29.04,61.12 C26.35,56.82 26.33,52.48 26.3,48.66 L26.3,47.66 C27.4633844,46.9629776 28.5523897,46.1487367 29.55,45.23 C31.8537594,43.0594001 33.5057703,40.288732 34.32,37.23 C34.9275403,34.2455294 34.1600257,31.1460923 32.23,28.79 Z M25.82,16.64 C26.09,14.39 26.39,11.84 26.48,10.95 C26.68,8.88 27.06,5.02 28.41,2.78 C28.8163857,1.89210398 29.7371727,1.3556455 30.71,1.44 C31.6988198,1.70166458 32.4255565,2.5435672 32.54,3.56 C32.6137274,5.04010686 32.5869994,6.52350984 32.46,8 C32.46,8.29 32.46,8.53 32.46,8.69 C32.39,10.11 31.6,18.82 31.27,21.82 C31.14,22.94 31.09,24.21 31.05,25.43 C31.05,26.14 30.99,26.86 30.94,27.55 C29.1856516,26.3801521 27.2127326,25.5773782 25.14,25.19 C25.22,24.34 25.31,22.86 25.4,21.19 C25.4,20.5 25.48,19.89 25.49,19.75 L25.82,16.64 Z M18.24,17.35 C18.937422,16.9647173 19.7493335,16.840626 20.53,17 C21.4263332,17.1126843 22.2777301,17.4573794 23,18 C23.5359581,18.4710201 23.8898146,19.1150389 24,19.82 C24,20.06 24,20.5 23.92,21.18 C23.86,22.27 23.76,24.07 23.67,25.01 C22.8389847,24.9399323 22.0193721,25.239969 21.43,25.83 C20.26,27.02 20.23,29.12 20.61,30.69 C20.7598974,31.2957446 21.0136532,31.8709243 21.36,32.39 C20.1902847,33.0912711 18.7559524,33.1916 17.5,32.66 C17.1664942,32.3371078 16.9278519,31.9289949 16.81,31.48 C16.7952391,31.4424966 16.7785502,31.405781 16.76,31.37 C17.1098371,29.9391577 17.2943768,28.4729059 17.31,27 C17.31,26.8 17.31,26.62 17.31,26.44 C17.31,26.26 17.31,25.83 17.36,25.52 C17.4550905,24.3419157 17.4550905,23.1580843 17.36,21.98 C17.276976,20.8695653 17.1132098,19.7666495 16.87,18.68 L17.11,18.33 C17.3802376,17.8977226 17.7738407,17.5563677 18.24,17.35 Z M12,17.82 C13.12,17.6 15.07,17.94 15.51,18.82 C15.7745619,19.9161161 15.9385749,21.0340824 16,22.16 C16.0896143,23.2615137 16.0896143,24.3684863 16,25.47 C16,25.79 16,26.1 15.95,26.47 C15.95,26.64 15.95,26.83 15.95,27.04 C15.9429675,28.4457236 15.7684028,29.8455983 15.43,31.21 C14.85,32.84 14,33 13.77,33 C12.9244303,33.1971579 12.0349548,33.0104779 11.34,32.49 C10.34,31.71 9.74,30.04 9.63,27.92 C9.63,27.18 9.63,26.4 9.63,25.65 C9.63,24.9 9.63,24.14 9.58,23.39 C9.58,22.97 9.49,22.04 9.43,21.21 C9.43,20.63 9.35,20.08 9.33,19.79 L9.33,19.69 C9.82210271,18.6345083 10.839876,17.9216858 12,17.82 Z M33,37 C32.2401781,39.7551181 30.7390267,42.2489664 28.66,44.21 C27.6369398,45.1620652 26.5059032,45.9910445 25.29,46.68 C24.1922508,47.3352646 22.9554423,47.7224096 21.68,47.81 L21.74,49.23 C22.8507725,49.1674679 23.9397953,48.8960604 24.95,48.43 L24.95,48.69 C24.95,52.27 24.95,56.28 27.06,60.4 C25.37,59.81 24.61,58.94 23.59,57.18 C22.9674441,56.321907 22.2998409,55.497417 21.59,54.71 C21.752168,55.7515538 21.9860575,56.7806677 22.29,57.79 C24.29,62.79 27.5,74.95 16.69,82.79 C16.61,81.27 16.58,79.9 16.55,78.65 C16.4,72.56 16.31,68.89 11.74,64.01 L10.8,63 L10.52,64.33 C10.1622694,65.6316976 10.0104328,66.9813564 10.07,68.33 C7,65.3 5.54,61.25 5.77,56 L5.85,54.19 C6.06604047,51.8115625 6.06604047,49.4184375 5.85,47.04 L5.85,46.88 C6.32028731,47.2785213 6.81094769,47.6523578 7.32,48 C7.75997513,48.2974004 8.23318117,48.5423936 8.73,48.73 C8.98,48.83 9.21,48.93 9.46,49.05 L10.1,47.8 C9.8,47.65 9.54,47.54 9.28,47.43 C8.87370472,47.2817343 8.48741088,47.0835488 8.13,46.84 C7.54541511,46.4444616 6.99059653,46.0066229 6.47,45.53 C6.15904578,45.2500561 5.87451275,44.9420909 5.62,44.61 C4.57799725,43.0789868 3.78798771,41.3909322 3.28,39.61 L3.16,39.25 C2.45589098,36.7309912 2.21865095,34.104405 2.46,31.5 C2.51,30.61 2.58,29.71 2.66,28.75 C2.85512791,26.8499854 2.92527883,24.9392079 2.87,23.03 C2.87,22.18 2.78,21.35 2.73,20.53 C2.62,18.6 2.51,16.79 2.46,14.83 L2.46,14.34 C2.4,11.91 2.36,10.8 3.46,9.44 C3.8054751,9.05498061 4.29300113,8.82746846 4.81,8.81 C5.26921797,8.76477878 5.73161855,8.85517288 6.14,9.07 C6.8096827,10.0930202 7.1898049,11.2783103 7.24,12.5 C7.24,12.69 7.29,12.87 7.31,13.06 C7.39,13.53 7.45,14.06 7.52,14.48 C7.59,14.9 7.65,15.48 7.72,15.9 C7.84347321,16.5960929 7.88375587,17.3043964 7.84,18.01 C7.81367434,18.5263313 7.81367434,19.0436687 7.84,19.56 L7.84,19.86 C7.84,20.15 7.9,20.7 7.95,21.3 C8.01,22.11 8.08,23.03 8.1,23.44 C8.1,24.16 8.1,24.91 8.1,25.63 C8.1,26.35 8.1,27.2 8.1,27.98 C8.17,29.46 8.56,32.16 10.34,33.57 C11.3410927,34.3524179 12.63974,34.6458975 13.88,34.37 C14.7720085,34.2613732 15.5683514,33.7586129 16.05,33 C16.2074943,33.2401816 16.3957614,33.4587059 16.61,33.65 C17.3786252,34.1481447 18.2854178,34.3897227 19.2,34.34 C20.3048523,34.3493966 21.3826462,33.9983237 22.27,33.34 C22.52,33.59 22.79,33.83 23.07,34.06 C22.4769347,34.4420129 21.9357777,34.8991393 21.46,35.42 L21.2,35.7 C20.4409259,36.3848388 19.8578382,37.2423207 19.5,38.2 L20.86,38.56 C21.1784705,37.8434389 21.6454298,37.202648 22.23,36.68 C22.32,36.57 22.42,36.48 22.5,36.38 C23.0232912,35.7582483 23.6935699,35.2770226 24.45,34.98 C25.5320141,35.6421999 26.741796,36.0681794 28,36.23 L28.12,34.82 C26.9710301,34.6949312 25.8642856,34.3157687 24.88,33.71 C24.1458209,33.2679927 23.48743,32.7108926 22.93,32.06 C22.492683,31.5537929 22.1748373,30.9556963 22,30.31 C21.6015936,29.1219693 21.7711977,27.816755 22.46,26.77 C22.9208557,26.3597438 23.5686635,26.2332488 24.15,26.44 L24.26,26.44 C26.72,27.04 29.26,27.65 30.96,29.49 L31.08,29.62 C32.8200863,31.6542441 33.5280968,34.3756595 33,37 Z" id="Shape"></path>
            <path d="M142.28,59.72 L142.28,25.59 L153.59,25.59 L153.59,29.73 L146.84,29.73 L146.84,40.09 L151.17,40.09 L151.17,44.23 L146.84,44.23 L146.84,55.58 L153.59,55.58 L153.59,59.72 L142.28,59.72 Z M252.85,25.59 L248.28,25.59 L248.28,59.72 L252.85,59.72 L252.85,25.59 Z M256.85,42.59 L262.2,25.59 L258,25.59 L252.7,42.75 L252.7,43 L258.9,59.68 L263.47,59.68 L256.85,42.59 Z M171,42 L174,42 C175.36,42 176,41.17 176,39.53 L176,32.2 C176,30.55 175.32,29.73 174,29.73 L171,29.73 L171,42 Z M166.44,25.55 L175.38,25.55 C178.86,25.55 180.6,27.5 180.6,31.4 L180.6,39.81 C180.6,42.79 179.7,44.6766667 177.9,45.47 L181.9,59.68 L177.58,59.68 L173.75,45.9 L171,45.9 L171,59.72 L166.44,59.72 L166.44,25.55 Z M280.87,42 L283.87,42 C285.23,42 285.87,41.17 285.87,39.53 L285.87,32.2 C285.87,30.55 285.19,29.73 283.87,29.73 L280.87,29.73 L280.87,42 Z M276.31,25.55 L285.24,25.55 C288.733333,25.55 290.476667,27.5 290.47,31.4 L290.47,39.81 C290.47,42.79 289.566667,44.6766667 287.76,45.47 L291.76,59.68 L287.43,59.68 L283.61,45.9 L280.85,45.9 L280.85,59.72 L276.29,59.72 L276.31,25.55 Z M119.65,55.55 L123.07,55.55 C124.28,55.55 124.88,55.05 124.88,54.03 L124.88,32.2 C124.88,30.55 124.2,29.73 122.88,29.73 L119.69,29.73 L119.65,55.55 Z M115.09,59.69 L115.09,25.59 L123,25.59 C127.273333,25.59 129.41,27.7766667 129.41,32.15 L129.41,54.78 C129.41,58.0733333 127.59,59.72 123.95,59.72 L115.09,59.69 Z M91.49,53.56 C91.4165761,54.1096836 91.6035425,54.6621831 91.9956797,55.0543203 C92.3878169,55.4464575 92.9403164,55.6334239 93.49,55.56 L95.82,55.56 C97.02,55.56 97.63,54.9 97.63,53.56 L97.63,31.72 C97.6992406,31.1712453 97.5109071,30.6213025 97.1198023,30.2301977 C96.7286975,29.8390929 96.1787547,29.6507594 95.63,29.72 L93.48,29.72 C92.9284471,29.6378792 92.3706084,29.8219964 91.9763024,30.2163024 C91.5819964,30.6106084 91.3978792,31.1684471 91.48,31.72 L91.48,53.59 L91.49,53.56 Z M92.48,59.72 C88.8,59.72 86.96,57.7866667 86.96,53.92 L86.96,31.44 C86.96,27.54 88.79,25.59 92.43,25.59 L96.8,25.59 C100.446667,25.59 102.27,27.54 102.27,31.44 L102.27,53.92 C102.27,57.7866667 100.433333,59.72 96.76,59.72 L92.48,59.72 Z M74.13,51.72 L74.13,53.91 C74.13,57.7766667 72.31,59.71 68.67,59.71 L65.68,59.71 C62.04,59.71 60.21,57.78 60.21,53.91 L60.21,31.39 C60.21,27.53 62.04,25.59 65.68,25.59 L68.63,25.59 C72.27,25.59 74.09,27.53 74.09,31.39 L74.09,35.24 L69.53,35.24 L69.53,31.72 C69.6034239,31.1703164 69.4164575,30.6178169 69.0243203,30.2256797 C68.6321831,29.8335425 68.0796836,29.6465761 67.53,29.72 L66.62,29.72 C65.42,29.72 64.82,30.38 64.82,31.72 L64.82,53.59 C64.82,54.92 65.42,55.59 66.62,55.59 L67.76,55.59 C68.97,55.59 69.57,54.93 69.57,53.59 L69.57,51.73 L74.13,51.72 Z M235.49,51.72 L235.49,53.91 C235.49,57.78 233.66,59.71 230.02,59.71 L227,59.71 C223.36,59.71 221.54,57.7766667 221.54,53.91 L221.54,31.39 C221.54,27.53 223.36,25.59 227,25.59 L230,25.59 C233.64,25.59 235.47,27.53 235.47,31.39 L235.47,35.24 L230.9,35.24 L230.9,31.72 C230.973424,31.1703164 230.786457,30.6178169 230.39432,30.2256797 C230.002183,29.8335425 229.449684,29.6465761 228.9,29.72 L228,29.72 C226.79,29.72 226.19,30.38 226.19,31.72 L226.19,53.59 C226.19,54.92 226.79,55.59 228,55.59 L229.14,55.59 C230.34,55.59 230.94,54.93 230.94,53.59 L230.94,51.73 L235.49,51.72 Z M198,53.59 C197.927212,54.1486943 198.121717,54.7090535 198.525,55.1025002 C198.928283,55.4959469 199.493273,55.6765584 200.05,55.59 L202.38,55.59 C203.58,55.59 204.18,54.93 204.18,53.59 L204.18,31.72 C204.253424,31.1703164 204.066457,30.6178169 203.67432,30.2256797 C203.282183,29.8335425 202.729684,29.6465761 202.18,29.72 L200,29.72 C199.448447,29.6378792 198.890608,29.8219964 198.496302,30.2163024 C198.101996,30.6106084 197.917879,31.1684471 198,31.72 L198,53.59 Z M199,59.72 C195.32,59.72 193.48,57.7866667 193.48,53.92 L193.48,31.44 C193.48,27.54 195.303333,25.59 198.95,25.59 L203.32,25.59 C206.96,25.59 208.79,27.54 208.79,31.44 L208.79,53.92 C208.79,57.7866667 206.95,59.72 203.27,59.72 L199,59.72 Z" id="Shape"></path>
        </g>
    </g>
</svg>