<?xml version="1.0" encoding="UTF-8"?>
<svg width="679px" height="264px" viewBox="0 0 679 264" version="1.1" xmlns="http://www.w3.org/2000/svg" xmlns:xlink="http://www.w3.org/1999/xlink">
    <!-- Generator: Sketch 50.2 (55047) - http://www.bohemiancoding.com/sketch -->
    <title>Group 9</title>
    <desc>Created with Sketch.</desc>
    <defs></defs>
    <g id="Page-1" stroke="none" stroke-width="1" fill="none" fill-rule="evenodd">
        <g id="Letter" transform="translate(-174.000000, -1493.000000)">
            <g id="Group-9" transform="translate(174.000000, 1493.000000)">
                <g id="Crianças-Copy" transform="translate(27.000000, 0.000000)">
                    <g id="Julia" transform="translate(54.000000, 0.000000)">
                        <rect id="Rectangle-29" fill="#F4D57B" x="95.226361" y="44.5844402" width="35.8968481" height="122.732448"></rect>
                        <ellipse id="Oval-11" fill="#FACAC0" cx="88.495702" cy="142.26945" rx="49.1088825" ry="26.0493359"></ellipse>
                        <path d="M0.260763854,67.1989632 C0.083607096,64.7153365 1.94379911,62.5576594 4.415619,62.3796565 C6.88743889,62.2016535 9.03485876,64.0707308 9.21201552,66.5543575 C10.8011615,88.8331884 14.1405203,104.241105 18.9996586,112.552721 C23.73306,120.649263 33.4861027,127.983264 48.3765945,134.365322 C50.6560382,135.34229 51.715668,137.99096 50.7433439,140.281292 C49.7710197,142.571624 47.134941,143.636315 44.8554972,142.659346 C28.3553554,135.587393 17.118153,127.137348 11.2616976,117.119808 C5.5309792,107.317343 1.94081235,90.7521896 0.260763854,67.1989632 Z" id="Line-8" fill="#FACAC0" fill-rule="nonzero"></path>
                        <polygon id="Rectangle-26" fill="#FACAC0" points="36.3954155 128.594202 137.604585 125.73814 137.604585 165.313093 36.3954155 168.169154"></polygon>
                        <path d="M125.228207,125.237192 L128.297303,127.275065 L128.606782,147.779886 L139.598854,165.773893 L139.598854,264 L34.8997135,264 L34.8997135,164.039235 L47.466446,145.961836 C58.33146,154.788813 72.986639,161.066729 86.5542548,161.768811 C115.976558,159.705644 125.995683,139.792296 125.06231,125.237186 L125.228207,125.237192 Z" id="Combined-Shape" fill="#ED6565"></path>
                        <path d="M164.789312,66.1109009 C165.134316,63.6451518 167.403379,61.9272842 169.857407,62.2739362 C172.311434,62.6205883 174.021135,64.9004899 173.676131,67.366239 C170.621536,89.1974743 167.706164,103.503688 164.787366,110.630724 L164.710451,110.818533 L164.617042,110.998633 C164.473518,111.27536 163.189784,113.801654 162.759316,114.620347 C161.929856,116.197868 161.165793,117.541789 160.334949,118.846829 C157.636225,123.085825 154.485836,126.461131 150.38521,129.068992 C148.077864,130.536386 144.27478,132.603906 138.909145,135.317589 C136.695583,136.437103 133.997906,135.541631 132.883714,133.317496 C131.769522,131.093362 132.660737,128.382799 134.874298,127.263285 C139.996112,124.672915 143.588833,122.719758 145.585651,121.449849 C148.47495,119.612352 150.737863,117.187882 152.77514,113.987847 C153.455936,112.918494 154.102152,111.781855 154.824407,110.408223 C155.173387,109.74451 156.205495,107.716062 156.558218,107.026971 C159.076444,100.751856 161.866395,87.00103 164.789312,66.1109009 Z" id="Line-9" fill="#FACAC0" fill-rule="nonzero"></path>
                        <path d="M42.3782235,159.2972 L42.3782235,153.281307 L46.8653295,146.82655 L46.8653295,165.313093 L42.3782235,165.313093 L42.3782235,159.2972 L42.3782235,37.0702087 L73.2893983,37.0702087 L73.2893983,165.313093 L42.3782235,165.313093 L42.3782235,159.2972 Z" id="Combined-Shape" fill="#F4D57B"></path>
                        <rect id="Rectangle-27" fill="#F8BFB6" x="73.2893983" y="91.6736243" width="29.9140401" height="55.1043643" rx="14.9570201"></rect>
                        <g id="Ears" transform="translate(40.383954, 57.609108)" fill="#F8BFB4">
                            <ellipse id="Oval-13" cx="86.5014327" cy="7.26375712" rx="6.73065903" ry="7.26375712"></ellipse>
                            <ellipse id="Oval-13-Copy" cx="6.73065903" cy="7.26375712" rx="6.73065903" ry="7.26375712"></ellipse>
                        </g>
                        <path d="M86.7507163,113.71537 C106.096474,113.71537 122.3038,97.6618654 126.548574,76.0970651 C127.257955,72.4931865 127.633238,53.706922 127.633238,49.8444023 C127.633238,22.8694318 109.329509,16.0303605 86.7507163,16.0303605 C64.1719232,16.0303605 45.8681948,22.8694318 45.8681948,49.8444023 C45.8681948,53.715803 46.2452057,72.5104663 46.9577571,76.1219215 C51.2100888,97.6742002 67.4123922,113.71537 86.7507163,113.71537 Z" id="Path" fill="#FACFC6"></path>
                        <g id="Face" transform="translate(62.320917, 52.098672)" fill="#F8BFB6">
                            <ellipse id="Oval-12" cx="4.98567335" cy="5.00948767" rx="4.98567335" ry="5.00948767"></ellipse>
                            <ellipse id="Oval-12-Copy" cx="45.3696275" cy="5.00948767" rx="4.98567335" ry="5.00948767"></ellipse>
                            <rect id="Rectangle-30" x="19.4441261" y="1.5028463" width="11.965616" height="14.5275142"></rect>
                        </g>
                        <path d="M75.7215129,50.5958254 L76.0184732,31.7492653 L60.7856423,50.5958254 L40.013369,50.5958254 C39.9285476,49.4380789 39.8853868,48.2686959 39.8853868,47.0891841 C39.8853868,21.0825458 60.8677095,0 86.7507163,0 C112.633723,0 133.616046,21.0825458 133.616046,47.0891841 C133.616046,48.2686959 133.572885,49.4380789 133.488064,50.5958254 L75.7215129,50.5958254 Z" id="Combined-Shape" fill="#F4D57B"></path>
                        <g id="Mouth" transform="translate(65.810888, 73.138520)">
                            <path d="M0.358347554,6.0113852 C0.123050777,4.79383838 0,3.53797691 0,2.25426945 C0,1.49230587 0.0433531494,0.740152972 0.127799907,-9.98090499e-14 L41.7518563,-9.9475983e-14 C41.836303,0.740152972 41.8796562,1.49230587 41.8796562,2.25426945 C41.8796562,3.53797691 41.7566054,4.79383838 41.5213086,6.0113852 L0.358347554,6.0113852 Z" id="Combined-Shape" fill="#FFFFFF"></path>
                            <path d="M0.358347554,6.0113852 L41.5213086,6.0113852 C39.7027905,15.4213354 31.1796522,22.5426945 20.9398281,22.5426945 C10.700004,22.5426945 2.17686567,15.4213354 0.358347554,6.0113852 Z" id="Combined-Shape" fill="#923A38"></path>
                            <path d="M8.5480592,18.6104379 C10.93164,14.9532711 15.1439287,12.5237192 19.9426934,12.5237192 C25.140945,12.5237192 29.6510105,15.3746184 31.893875,19.5486213 C28.7070763,21.4475169 24.9554548,22.5426945 20.9398281,22.5426945 C16.3028081,22.5426945 12.0178215,21.0823483 8.5480592,18.6104379 Z" id="Combined-Shape" fill="#B53A46"></path>
                        </g>
                    </g>
                    <g id="Kin-Jhon-Wung" transform="translate(0.000000, 137.000000)">
                        <g id="arms" transform="translate(0.000000, 42.000000)" fill="#EACDAF" fill-rule="nonzero">
                            <path d="M0.265902543,3.54801578 C0.10065197,1.89935685 1.30855952,0.429428504 2.96383958,0.264838933 C4.61911963,0.100249363 6.0949513,1.30332529 6.26020187,2.95198422 C7.43936372,14.7161535 9.20115556,22.9970157 11.4496833,27.6666817 C13.7202356,32.3820873 19.6203853,39.962863 29.0762008,50.2211186 C30.2012211,51.4416105 30.1198526,53.3393758 28.8944592,54.459896 C27.6690657,55.5804163 25.7636789,55.4993732 24.6386586,54.2788814 C14.8016467,43.6070802 8.61938997,35.6638408 6.01795694,30.2612733 C3.39449941,24.812966 1.50911264,15.9511766 0.265902543,3.54801578 Z" id="Line-7"></path>
                            <path d="M95.1454206,3.54801578 C94.98017,1.89935685 96.1880776,0.429428504 97.8433577,0.264838933 C99.4986377,0.100249363 100.974469,1.30332529 101.13972,2.95198422 C102.318882,14.7161535 104.080674,22.9970157 106.329201,27.6666817 C108.599754,32.3820873 114.499903,39.962863 123.955719,50.2211186 C125.080739,51.4416105 124.999371,53.3393758 123.773977,54.459896 C122.548584,55.5804163 120.643197,55.4993732 119.518177,54.2788814 C109.681165,43.6070802 103.498908,35.6638408 100.897475,30.2612733 C98.2740175,24.812966 96.3886307,15.9511766 95.1454206,3.54801578 Z" id="Line-7-Copy" transform="translate(109.939655, 27.749897) scale(-1, 1) translate(-109.939655, -27.749897) "></path>
                        </g>
                        <path d="M96.2971357,105.385519 C98.0972043,110.495046 99.0887934,116.08284 99.0887934,121.937727 C99.0887934,123.628358 99.0061149,125.29672 98.8451664,126.937727 L23.0271994,126.937727 C22.866251,125.29672 22.7835725,123.628358 22.7835725,121.937727 C22.7835725,115.300963 24.057684,109.007392 26.3392058,103.364592 L10.6025141,87.6279001 L21.2517126,76.9787016 L34.4930981,90.220087 C41.3510195,82.6139023 50.6700842,77.9377267 60.9361829,77.9377267 C71.859993,77.9377267 81.7115361,83.2322666 88.6666502,91.7176078 L103.405556,76.9787016 L114.054755,87.6279001 L96.2971357,105.385519 Z" id="Combined-Shape" fill="#FECB5E"></path>
                        <rect id="Rectangle-21" fill="#FFFFFF" x="51.7068273" y="81" width="21.0843373" height="46"></rect>
                        <rect id="Rectangle-21-Copy" fill="#E5BDA3" x="51.7068273" y="50" width="21.0843373" height="46" rx="10.5421687"></rect>
                        <g id="Face" transform="translate(29.618474, 0.000000)">
                            <g id="Ears" transform="translate(0.000000, 37.500000)" fill="#E5BDA3">
                                <ellipse id="Oval-7" cx="6.2751004" cy="6.25" rx="6.2751004" ry="6.25"></ellipse>
                                <ellipse id="Oval-7-Copy" cx="58.9859438" cy="6.25" rx="6.2751004" ry="6.25"></ellipse>
                            </g>
                            <rect fill="#EBCEB0" x="5.52208835" y="0.5" width="54.2168675" height="74.5" rx="27.1084337"></rect>
                            <g id="Hat" transform="translate(3.012048, 0.000000)">
                                <path d="M57.1556708,25 L2.58328504,25 C2.96540717,19.8020501 1.96784926,15.0128138 4.45234566,11.0471349 C8.64887801,4.34875555 18.1286237,0 27.1084337,0 L32.1285141,0 C41.1207378,0 50.6073358,4.36078733 54.8019901,11.074928 C57.2761557,15.0351818 56.2724329,19.8141873 56.6536627,25 L57.1556708,25 Z" id="Combined-Shape" fill="#F36B55"></path>
                                <rect id="Rectangle-22-Copy" fill="#ED573F" x="0" y="20.5" width="59.2369478" height="9" rx="4.5"></rect>
                                <path d="M33.1325301,18.5 L48.1927711,18.5 C48.1927711,25.0751322 42.2063917,29.5 39.1566265,29.5 L33.1325301,29.5 L18.0722892,29.5 C18.0722892,22.9248678 24.0586686,18.5 27.1084337,18.5 L33.1325301,18.5 Z" id="Combined-Shape" fill="#18181A"></path>
                            </g>
                            <g id="Eyes" transform="translate(15.562249, 34.000000)" fill="#E1B495">
                                <path d="M0.0102420233,3.5 C0.00345537853,3.41748959 0,3.334118 0,3.25 C0,1.45507456 1.57329656,0 3.51405622,0 C5.45481589,0 7.02811245,1.45507456 7.02811245,3.25 C7.02811245,3.334118 7.02465707,3.41748959 7.01787043,3.5 L0.0102420233,3.5 Z" id="Eye"></path>
                                <path d="M27.6206838,3.5 C27.6138971,3.41748959 27.6104418,3.334118 27.6104418,3.25 C27.6104418,1.45507456 29.1837383,0 31.124498,0 C33.0652577,0 34.6385542,1.45507456 34.6385542,3.25 C34.6385542,3.334118 34.6350988,3.41748959 34.6283122,3.5 L27.6206838,3.5 Z" id="Eye"></path>
                            </g>
                            <rect id="Nose" fill="#E1B495" x="28.6144578" y="39" width="8.03212851" height="6"></rect>
                            <g id="Mouth" transform="translate(18.574297, 51.500000)">
                                <path d="M0.165318896,0 L27.9471309,0 C28.0559768,0.651939763 28.1124498,1.31987046 28.1124498,2 C28.1124498,9.17970175 21.8192636,15 14.0562249,15 C6.29318625,15 0,9.17970175 0,2 C0,1.31987046 0.0564730258,0.651939763 0.165318896,0 Z" id="Combined-Shape" fill="#FFFFFF"></path>
                                <path d="M27.9471309,4 C26.9069591,10.2301801 21.0838748,15 14.0562249,15 C7.028575,15 1.20549073,10.2301801 0.165318896,4 L27.9471309,4 Z" id="Combined-Shape" fill="#903A36"></path>
                                <path d="M21.5457852,13.0029024 C19.3775546,14.2679769 16.809322,15 14.0562249,15 C11.1363542,15 8.42442331,14.1766036 6.17708307,12.7671763 C7.43680179,10.2590869 10.377927,8.5 13.8052209,8.5 C17.338915,8.5 20.3557857,10.3700039 21.5457852,13.0029024 Z" id="Combined-Shape" fill="#B33A46"></path>
                            </g>
                        </g>
                    </g>
                    <g id="Radisha" transform="translate(292.000000, 19.000000)">
                        <path d="M138.5,244 L39.5,244 L39.5,43.8812297 C39.5,19.6462957 61.8724343,0 87.0031056,0 L90.9968944,0 C116.127566,0 138.5,19.6462957 138.5,43.8812297 L138.5,244 Z" id="Combined-Shape" fill="#36231D"></path>
                        <path d="M0.373484418,78.6402994 C-0.204731963,76.2280219 1.28596381,73.8046795 3.70304663,73.2276127 C6.12012944,72.6505458 8.5482992,74.138278 9.12651558,76.5505555 C14.0049539,96.9030521 18.0281408,110.742333 21.1152647,117.896488 C24.0307214,124.652819 30.4402408,132.503028 40.3733454,141.304082 C42.2318746,142.950799 42.4009229,145.789368 40.7509252,147.644202 C39.1009275,149.499036 36.2567044,149.667748 34.3981751,148.021031 C23.5646457,138.422172 16.3718178,129.612587 12.8492139,121.449243 C9.4982771,113.683723 5.36663784,99.4713791 0.373484418,78.6402994 Z" id="Line-11" fill="#A36848" fill-rule="nonzero"></path>
                        <path d="M170.557518,81.838776 C170.829988,79.3733868 173.053443,77.5952359 175.523743,77.8671646 C177.994044,78.1390933 179.775737,80.3581279 179.503266,82.823517 C178.07977,95.7037155 176.630762,104.568725 175.090107,109.609177 C172.949741,116.611656 171.299017,120.62842 168.726202,124.223201 C168.481003,124.565798 168.224693,124.937348 167.933571,125.370718 C167.689005,125.734783 166.319451,127.818778 165.883184,128.464315 C164.973449,129.810432 164.13971,130.962888 163.21956,132.118131 C160.873779,135.063248 158.148948,137.76818 154.662092,140.472455 C149.535631,144.448345 138.765517,151.0552 122.175466,160.429319 C120.012755,161.651347 117.26691,160.892258 116.042448,158.733848 C114.817985,156.575437 115.578586,153.83505 117.741296,152.613022 C133.949628,143.454592 144.47449,136.998186 149.139595,133.380105 C152.053808,131.119951 154.26915,128.920787 156.174299,126.528881 C156.932905,125.576456 157.633938,124.607436 158.421738,123.441743 C158.816813,122.857157 160.177123,120.787231 160.45812,120.368932 C160.795459,119.866764 161.100753,119.424203 161.402601,119.002457 C163.25077,116.420164 164.609169,113.114724 166.481729,106.988406 C167.811836,102.636791 169.192478,94.1900368 170.557518,81.838776 Z" id="Line-12" fill="#A36A49" fill-rule="nonzero"></path>
                        <path d="M117.499319,123.1762 C117.405322,138.11724 105.017477,150.200795 89.7498571,150.200795 C74.4539767,150.200795 62.0485426,138.072465 62,123.093203 C70.078471,117.178411 79.556593,113.77336 89.693138,113.77336 C99.8770018,113.77336 109.396281,117.210276 117.499319,123.1762 Z" id="Combined-Shape" fill="#A46949"></path>
                        <path d="M117.061432,122.857157 C132.71111,134.13285 143.193281,154.785157 143.193281,178.394632 C143.193281,180.258052 143.127983,182.10305 143,183.926471 L143,245 L36,245 L36,177.646123 L36.1967961,177.646123 C36.2477406,172.22445 36.8514505,166.963163 37.9430453,161.940629 L17.5,141.538226 L33.763456,125.307103 L47.3598868,138.876503 C51.487392,132.435075 56.6002255,126.961368 62.4254495,122.785055 C64.7263534,135.530331 76.0846506,145.210736 89.75,145.210736 C103.389569,145.210736 114.730782,135.566821 117.061432,122.857157 Z" id="Combined-Shape" fill="#FF974B"></path>
                        <path d="M74.5,101.298211 L104.5,101.298211 L104.5,120.230616 C104.5,128.514888 97.7842712,135.230616 89.5,135.230616 L89.5,135.230616 C81.2157288,135.230616 74.5,128.514888 74.5,120.230616 L74.5,101.298211 Z" id="Rectangle-39" fill="#8F6046"></path>
                        <path d="M87.6481009,26.961461 C88.1626603,25.2513771 88.4444444,23.395966 88.4444444,21.4572565 C88.4444444,18.108015 87.6034676,15.0073754 86.1741974,12.4751491 L92.3813581,12.4751491 C90.9520879,15.0073754 90.1111111,18.108015 90.1111111,21.4572565 C90.1111111,23.4125117 90.3977255,25.2830406 90.9206798,27.0052127 C110.94173,28.0943403 126.969058,44.1580542 127.952193,64.1678526 C127.98394,64.8140074 128,68.4583129 128,69.112326 C128,90.7464067 110.427176,108.284294 88.75,108.284294 C67.0728236,108.284294 49.5,90.7464067 49.5,69.112326 C49.5,68.2378132 49.5287142,64.3759578 49.5852531,63.5157193 C50.9036191,43.4567735 67.3508893,27.519841 87.6481009,26.961461 Z" id="Combined-Shape" fill="#A46949"></path>
                        <path d="M42,55.389662 C42.2681502,29.713744 63.2068833,8.98210736 88.9973954,8.98210736 C114.787907,8.98210736 135.726641,29.713744 135.994791,55.389662 L131.425086,55.389662 C130.131042,33.1255641 111.63026,15.4691849 88.9973954,15.4691849 C66.3645305,15.4691849 47.8637488,33.1255641 46.5697043,55.389662 L42,55.389662 Z" id="Combined-Shape" fill="#3CA099"></path>
                        <path d="M53.0550245,50.9404347 C51.407176,54.8497797 50.3766536,59.0820591 50.0852531,63.5157193 C50.055691,63.9655063 50.0337358,65.235893 50.0195146,66.4707971 C47.4833302,65.7848147 45.3708317,63.8044787 44.6418708,61.0839596 C43.5525978,57.0187373 45.9650813,52.8401932 50.0303037,51.7509201 L53.0550179,50.9404504 Z" id="Combined-Shape-Copy-15" fill="#8E5F47"></path>
                        <path d="M127.486466,66.4370064 C127.478516,65.4330152 127.467079,64.4708352 127.452193,64.1678526 C127.223346,59.5101175 126.179357,55.0661936 124.4596,50.9751764 L127.354715,51.7509201 C131.419937,52.8401932 133.832421,57.0187373 132.743148,61.0839596 C132.025807,63.7611105 129.968688,65.7214889 127.486466,66.4370064 Z" id="Combined-Shape-Copy-14" fill="#8E5F47"></path>
                        <rect id="Rectangle-42" fill="#805138" x="83.5" y="51.8966203" width="11" height="11.9761431"></rect>
                        <g id="Mouth-Copy-2" transform="translate(69.000000, 69.860835)">
                            <path d="M0.359377288,5.98807157 C0.123404371,4.7752467 0,3.52425577 0,2.24552684 C0,1.48651834 0.0434777274,0.737282477 0.128167148,-1.06692433e-13 L41.8718329,-1.0658141e-13 C41.9565223,0.737282477 42,1.48651834 42,2.24552684 C42,3.52425577 41.8765956,4.7752467 41.6406227,5.98807157 L0.359377288,5.98807157 Z" id="Combined-Shape" fill="#FFFFFF"></path>
                            <path d="M0.359377288,5.98807157 L41.6406227,5.98807157 C39.816879,15.3615276 31.2692489,22.4552684 21,22.4552684 C10.7307511,22.4552684 2.18312103,15.3615276 0.359377288,5.98807157 Z" id="Combined-Shape" fill="#923A38"></path>
                            <path d="M8.57262259,18.538262 C10.9630528,14.8952786 15.1874457,12.4751491 20,12.4751491 C25.2131891,12.4751491 29.7362145,15.3149919 31.9855241,19.4728069 C28.7895679,21.3643381 25.0271659,22.4552684 21,22.4552684 C16.3496553,22.4552684 12.0523555,21.0005858 8.57262259,18.538262 Z" id="Combined-Shape" fill="#B53A46"></path>
                        </g>
                        <g id="Group-6" transform="translate(63.000000, 48.403579)" fill="#805138">
                            <ellipse id="Oval-24" cx="5" cy="4.99005964" rx="5" ry="4.99005964"></ellipse>
                            <ellipse id="Oval-24-Copy" cx="46.5" cy="4.99005964" rx="5" ry="4.99005964"></ellipse>
                        </g>
                    </g>
                    <g id="Shaft" transform="translate(169.000000, 79.000000)">
                        <rect id="Rectangle-35" fill="#7C645A" x="75" y="93.7466307" width="32" height="31.4150943"></rect>
                        <ellipse id="Oval-19" fill="#7D655B" cx="47" cy="56.8463612" rx="6" ry="7.97843666"></ellipse>
                        <ellipse id="Oval-19-Copy" fill="#7D655B" cx="133.5" cy="56.8463612" rx="6" ry="7.97843666"></ellipse>
                        <path d="M90.5492819,104.665773 C113.883313,104.665773 132.799282,83.6798751 132.799282,57.7924579 C132.799282,46.6292469 130.28182,26.4044373 124.409432,18.3538707 C116.663789,7.73522314 103.821177,10.9191425 90.5492819,10.9191425 C76.0016671,10.9191425 58.8113078,10.4317343 51.2114801,22.8480599 C46.6213636,30.3472274 48.2992819,48.0445657 48.2992819,57.7924579 C48.2992819,83.6798751 67.2152512,104.665773 90.5492819,104.665773 Z" id="Oval-17" fill="#8A6A5D"></path>
                        <g id="Eyes" transform="translate(64.500000, 43.881402)" fill="#70564B">
                            <ellipse id="Oval-18" cx="5" cy="4.98652291" rx="5" ry="4.98652291"></ellipse>
                            <ellipse id="Oval-18-Copy" cx="47" cy="4.98652291" rx="5" ry="4.98652291"></ellipse>
                        </g>
                        <path d="M95.5,0 L142.5,0 C142.5,18.7780364 123.817707,31.4150943 114.3,31.4150943 L95.5,31.4150943 L48.5,31.4150943 C48.5,12.637058 67.1822928,0 76.7,0 L95.5,0 Z" id="Combined-Shape-Copy-10" fill="#18181A"></path>
                        <rect id="Rectangle-36" fill="#70564B" x="84.5" y="43.8814016" width="12" height="14.9595687"></rect>
                        <ellipse id="Oval-20" fill="#70564B" cx="90.5" cy="56.597035" rx="7.5" ry="3.24123989"></ellipse>
                        <path d="M0.27057816,63.5314579 C0.0203022731,60.7888117 2.04677667,58.3631159 4.79683542,58.1135146 C7.54689417,57.8639133 9.97914595,59.8849255 10.2294218,62.6275717 C11.4783817,76.3142873 13.7907166,87.2276895 17.11098,95.3285823 C20.3348389,103.194264 28.7854144,114.126894 42.4191671,127.840191 C44.3634563,129.795824 44.3499756,132.953087 42.3890573,134.892135 C40.4281389,136.831184 37.2623427,136.817739 35.3180536,134.862106 C20.8333341,120.292878 11.6933076,108.468296 7.85443451,99.1020811 C4.11196584,89.9710772 1.60249598,78.1272682 0.27057816,63.5314579 Z" id="Line-10" fill="#8C6A5F" fill-rule="nonzero"></path>
                        <path d="M136.270578,67.5206763 C136.020302,64.7780301 138.046777,62.3523342 140.796835,62.1027329 C143.546894,61.8531316 145.979146,63.8741439 146.229422,66.61679 C147.478382,80.3035056 149.790717,91.2169079 153.11098,99.3178007 C156.334839,107.183483 164.785414,118.116112 178.419167,131.829409 C180.363456,133.785042 180.349976,136.942305 178.389057,138.881353 C176.428139,140.820402 173.262343,140.806958 171.318054,138.851325 C156.833334,124.282096 147.693308,112.457514 143.854435,103.091299 C140.111966,93.9602955 137.602496,82.1164865 136.270578,67.5206763 Z" id="Line-10-Copy" fill="#8C6A5F" fill-rule="nonzero" transform="translate(158.059145, 101.204390) scale(-1, 1) translate(-158.059145, -101.204390) "></path>
                        <path d="M132.526963,125.86231 L150.720403,107.66887 L166.940022,123.888489 L144.48097,146.347541 L144.48097,184.981022 L38.4809704,184.981022 L38.4809704,146.347541 L16.0219184,123.888489 L32.2415376,107.66887 L48.9198686,124.347201 C58.7337751,114.775578 73.4855641,108.687221 89.9809704,108.687221 C107.33084,108.687221 122.751775,115.42267 132.526963,125.86231 Z" id="Combined-Shape" fill="#DBDCDE"></path>
                        <g id="Mouth-Copy" transform="translate(69.500000, 65.822102)">
                            <path d="M0.359377288,5.98382749 C0.123404371,4.77186222 0,3.52175793 0,2.24393531 C0,1.48546477 0.0434777274,0.736759924 0.128167148,-1.05915277e-13 L41.8718329,-1.0658141e-13 C41.9565223,0.736759924 42,1.48546477 42,2.24393531 C42,3.52175793 41.8765956,4.77186222 41.6406227,5.98382749 L0.359377288,5.98382749 Z" id="Combined-Shape" fill="#FFFFFF"></path>
                            <path d="M0.359377288,5.98382749 L41.6406227,5.98382749 C39.816879,15.3506401 31.2692489,22.4393531 21,22.4393531 C10.7307511,22.4393531 2.18312103,15.3506401 0.359377288,5.98382749 Z" id="Combined-Shape" fill="#923A38"></path>
                            <path d="M8.57262259,18.5251229 C10.9630528,14.8847215 15.1874457,12.4663073 20,12.4663073 C25.2131891,12.4663073 29.7362145,15.3041373 31.9855241,19.4590055 C28.7895679,21.349196 25.0271659,22.4393531 21,22.4393531 C16.3496553,22.4393531 12.0523555,20.9857015 8.57262259,18.5251229 Z" id="Combined-Shape" fill="#B53A46"></path>
                        </g>
                    </g>
                    <g id="Madalena" transform="translate(360.000000, 121.000000)">
                        <ellipse id="Oval-27-Copy" fill="#EFC8AE" cx="64.5" cy="104.389305" rx="32.6235521" ry="22.3871039"></ellipse>
                        <g id="Group-7" transform="translate(0.000000, 43.768046)">
                            <path d="M40.9197138,45.2511888 C40.516937,46.9427003 40.3037975,48.7069397 40.3037975,50.5205829 C40.3037975,63.1267985 50.6012482,73.3461554 63.3037975,73.3461554 C76.0063467,73.3461554 86.3037975,63.1267985 86.3037975,50.5205829 C86.3037975,48.1577532 85.9420337,45.8787773 85.2704757,43.7352305 C87.467572,45.0461376 89.4092904,46.5587804 91.0364804,48.2319542 L103,48.2319542 L103,99.2319542 L25,99.2319542 L25,48.2319542 L37.4571904,48.2319542 C38.4897505,47.1702144 39.6489631,46.1731164 40.9197138,45.2511888 Z" id="Combined-Shape" fill="#0F0F0E"></path>
                            <path d="M24.9034749,47.2896127 L37.3552124,47.2896127 L37.3552124,57.1623355 C37.3552124,60.6007879 34.567796,63.3882042 31.1293436,63.3882042 L31.1293436,63.3882042 C27.6908913,63.3882042 24.9034749,60.6007879 24.9034749,57.1623355 L24.9034749,47.2896127 Z" id="Rectangle-47" fill="#EFC8AE"></path>
                            <path d="M91.1467181,47.2896127 L103.598456,47.2896127 L103.598456,57.1623355 C103.598456,60.6007879 100.811039,63.3882042 97.3725869,63.3882042 L97.3725869,63.3882042 C93.9341345,63.3882042 91.1467181,60.6007879 91.1467181,57.1623355 L91.1467181,47.2896127 Z" id="Rectangle-47-Copy" fill="#EFC8AE"></path>
                            <path d="M103.167115,58.5185897 C101.465661,59.9282449 98.954992,59.6778167 97.5593792,57.9592426 C96.1637664,56.2406685 96.4116999,53.7047375 98.1131543,52.2950823 C101.745581,49.285616 104.199076,46.8397733 105.425206,45.0737429 C108.975352,39.960363 111.185017,36.2522984 114.091008,30.8898589 C116.594675,26.2698286 118.893586,17.1301167 120.823148,3.69825963 C121.13915,1.49854414 123.160778,-0.0259300828 125.338581,0.29325115 C127.516384,0.612432382 129.025672,2.65440163 128.70967,4.85411713 C126.652502,19.1742481 124.164617,29.0652609 121.081424,34.7546919 C118.046068,40.3558507 115.695468,44.3004198 111.949856,49.6953333 C110.223029,52.1825339 107.311592,55.0848898 103.167115,58.5185897 Z" id="Line-13" fill="#EFC8AE" fill-rule="nonzero"></path>
                            <path d="M6.54163283,58.5185897 C4.84017846,59.9282449 2.32950942,59.6778167 0.933896577,57.9592426 C-0.461716261,56.2406685 -0.213782705,53.7047375 1.48767167,52.2950823 C5.1200985,49.285616 7.57359314,46.8397733 8.79972294,45.0737429 C12.3498698,39.960363 14.5595348,36.2522984 17.4655253,30.8898589 C19.9691925,26.2698286 22.2681029,17.1301167 24.1976658,3.69825963 C24.5136675,1.49854414 26.5352955,-0.0259300828 28.7130983,0.29325115 C30.8909011,0.612432382 32.4001892,2.65440163 32.0841875,4.85411713 C30.027019,19.1742481 27.5391339,29.0652609 24.4559416,34.7546919 C21.4205854,40.3558507 19.0699855,44.3004198 15.3243738,49.6953333 C13.5975459,52.1825339 10.6861098,55.0848898 6.54163283,58.5185897 Z" id="Line-13-Copy" fill="#EFC8AE" fill-rule="nonzero" transform="translate(16.077990, 29.841310) scale(-1, 1) translate(-16.077990, -29.841310) "></path>
                        </g>
                        <path d="M27.9165702,77.9775528 L27.8918919,77.9775528 L27.8918919,27.1663732 L27.8732097,27.1663732 C28.9724656,23.4813027 30.5350899,20.0418191 32.5777612,16.9327998 C39.3246644,6.6637698 50.6934731,0 62.9512852,0 C75.1882493,0 87.5426276,6.64112166 94.2920422,16.8804345 C96.350454,20.0031829 97.7184984,23.4606011 98.5990785,27.1663732 L98.6177606,27.1663732 L98.6177606,77.9775528 L38.3513514,77.9775528 L38.3513514,81.4080861 C37.7124458,81.4675933 37.0452927,81.4991197 36.3590734,81.4991197 C31.6827782,81.4991197 27.8918919,80.035079 27.8918919,78.2290933 C27.8918919,78.144457 27.9002177,78.0605716 27.9165702,77.9775528 Z" id="Combined-Shape" fill="#0E0E0E"></path>
                        <rect id="Rectangle-48" fill="#E7BCA0" x="53.7915058" y="65.4005282" width="21.9150579" height="34.209507" rx="10.957529"></rect>
                        <ellipse id="Oval-30" fill="#DFB497" cx="34.1177606" cy="45.5288292" rx="4.23359073" ry="5.78543134"></ellipse>
                        <ellipse id="Oval-30-Copy" fill="#DFB497" cx="92.3918919" cy="45.5288292" rx="4.23359073" ry="5.78543134"></ellipse>
                        <path d="M64.2509653,76.9713908 C80.2053842,76.9713908 91.1467181,63.8928338 91.1467181,45.2772887 C91.1467181,36.9407662 90.5451861,29.3111081 86.2478408,23.4270829 C80.9491675,16.1720161 73.0605828,11.5708627 64.2509653,11.5708627 C63.8936975,11.5708627 63.5379446,11.57843 63.1838177,11.5934347 C52.9527676,12.0269341 43.0828489,17.1590865 38.2505649,26.8764356 C35.7808358,31.8428696 35.3629344,39.1220237 35.3629344,45.2772887 C35.3629344,51.5619895 36.3390008,57.4449592 38.9058353,62.4811385 C40.5386199,65.6846938 43.1116168,68.5456091 45.5305085,70.9493303 C50.5725575,75.9597574 57.1091021,76.9713908 64.2509653,76.9713908 Z" id="Oval-28" fill="#F0C8AE"></path>
                        <rect id="Rectangle-51" fill="#D9AF94" x="59.2702703" y="38.7372359" width="8.96525097" height="9.05545775"></rect>
                        <path d="M45.8300187,38.7372359 C45.8249621,38.6540958 45.8223938,38.5702202 45.8223938,38.4856954 C45.8223938,36.4018657 47.383347,34.712588 49.3088803,34.712588 C51.2344136,34.712588 52.7953668,36.4018657 52.7953668,38.4856954 C52.7953668,38.5702202 52.7927986,38.6540958 52.787742,38.7372359 L45.8300187,38.7372359 Z" id="Combined-Shape" fill="#D9AF94"></path>
                        <path d="M75.2161191,38.7372359 C75.2110624,38.6540958 75.2084942,38.5702202 75.2084942,38.4856954 C75.2084942,36.4018657 76.7694474,34.712588 78.6949807,34.712588 C80.620514,34.712588 82.1814672,36.4018657 82.1814672,38.4856954 C82.1814672,38.5702202 82.178899,38.6540958 82.1738423,38.7372359 L75.2161191,38.7372359 Z" id="Combined-Shape-Copy-16" fill="#D9AF94"></path>
                        <path d="M67.0968641,7.73110517 C64.433882,11.9066371 63.102391,15.2115311 63.102391,17.6457873 C63.102391,19.2672085 63.0471543,23.2725864 64.228637,26.1602113 C64.6234965,27.1252752 65.5795722,28.1483589 67.0968641,29.2294624 L90.0137732,40.3710704 L92.8999231,36.4514481 L92.8999231,22.6223995 C84.2989034,15.9915884 79.9983936,12.6761828 79.9983936,12.6761828 C79.9983936,12.6761828 75.6978838,11.0278236 67.0968641,7.73110517 Z" id="Path-2" fill="#0E0E0E"></path>
                        <g id="Mouth-Copy-3" transform="translate(48.810811, 51.314261)">
                            <path d="M0.255706951,4.52772887 C0.0878056472,3.61068202 0,2.66477687 0,1.69789833 C0,1.12399325 0.0309356141,0.557477498 0.091194496,9.25926003e-14 L29.7929754,9.23705556e-14 C29.8532343,0.557477498 29.8841699,1.12399325 29.8841699,1.69789833 C29.8841699,2.66477687 29.7963642,3.61068202 29.6284629,4.52772887 L0.255706951,4.52772887 Z" id="Combined-Shape" fill="#FFFFFF"></path>
                            <path d="M0.498069498,4.52772887 L29.8841699,4.52772887 C28.5859359,11.1140941 22.5012959,16.0985915 15.1911197,16.0985915 C7.88094348,16.0985915 1.79630351,11.1140941 0.498069498,4.52772887 Z" id="Combined-Shape" fill="#923A38"></path>
                            <path d="M5.97683398,13.3342959 C7.60410822,10.7633828 10.4798441,9.05545775 13.7559681,9.05545775 C17.3048224,9.05545775 20.3838509,11.0595813 21.9150579,13.9938196 C19.7394256,15.3287042 17.1781879,16.0985915 14.4367134,16.0985915 C11.2710129,16.0985915 8.34564598,15.0719982 5.97683398,13.3342959 Z" id="Combined-Shape" fill="#B53A46"></path>
                        </g>
                    </g>
                </g>
                <path d="M40,128 L38.26,126.417439 C32.08,120.818529 28,117.113896 28,112.594005 C28,108.889373 30.904,106 34.6,106 C36.688,106 38.692,106.971117 40,108.493733 C41.308,106.971117 43.312,106 45.4,106 C49.096,106 52,108.889373 52,112.594005 C52,117.113896 47.92,120.818529 41.74,126.417439 L40,128 Z" id="Shape" fill="#FA578A" fill-rule="nonzero" transform="translate(40.000000, 117.000000) rotate(-30.000000) translate(-40.000000, -117.000000) "></path>
                <path d="M287.5,46 L285.3975,44.0577657 C277.93,37.186376 273,32.639782 273,27.0926431 C273,22.546049 276.509,19 280.975,19 C283.498,19 285.9195,20.1918256 287.5,22.0604905 C289.0805,20.1918256 291.502,19 294.025,19 C298.491,19 302,22.546049 302,27.0926431 C302,32.639782 297.07,37.186376 289.6025,44.0577657 L287.5,46 Z" id="Shape-Copy" fill="#FA578A" fill-rule="nonzero"></path>
                <path d="M604,171 L602.26,169.417439 C596.08,163.818529 592,160.113896 592,155.594005 C592,151.889373 594.904,149 598.6,149 C600.688,149 602.692,149.971117 604,151.493733 C605.308,149.971117 607.312,149 609.4,149 C613.096,149 616,151.889373 616,155.594005 C616,160.113896 611.92,163.818529 605.74,169.417439 L604,171 Z" id="Shape-Copy-2" fill="#FA578A" fill-rule="nonzero" transform="translate(604.000000, 160.000000) rotate(-340.000000) translate(-604.000000, -160.000000) "></path>
                <path d="M511.5,148 L510.4125,146.992916 C506.55,143.429973 504,141.07248 504,138.196185 C504,135.838692 505.815,134 508.125,134 C509.43,134 510.6825,134.617984 511.5,135.586921 C512.3175,134.617984 513.57,134 514.875,134 C517.185,134 519,135.838692 519,138.196185 C519,141.07248 516.45,143.429973 512.5875,146.992916 L511.5,148 Z" id="Shape-Copy-3" fill="#FA578A" fill-rule="nonzero" transform="translate(511.500000, 141.000000) rotate(-329.000000) translate(-511.500000, -141.000000) "></path>
                <path d="M672.5,222 L671.7025,221.280654 C668.87,218.735695 667,217.051771 667,214.997275 C667,213.313351 668.331,212 670.025,212 C670.982,212 671.9005,212.441417 672.5,213.133515 C673.0995,212.441417 674.018,212 674.975,212 C676.669,212 678,213.313351 678,214.997275 C678,217.051771 676.13,218.735695 673.2975,221.280654 L672.5,222 Z" id="Shape-Copy-5" fill="#FA578A" fill-rule="nonzero" transform="translate(672.500000, 217.000000) rotate(-329.000000) translate(-672.500000, -217.000000) "></path>
                <path d="M88.5,44 L87.7025,43.280654 C84.87,40.7356948 83,39.0517711 83,36.9972752 C83,35.3133515 84.331,34 86.025,34 C86.982,34 87.9005,34.4414169 88.5,35.133515 C89.0995,34.4414169 90.018,34 90.975,34 C92.669,34 94,35.3133515 94,36.9972752 C94,39.0517711 92.13,40.7356948 89.2975,43.280654 L88.5,44 Z" id="Shape-Copy-6" fill="#FA578A" fill-rule="nonzero" transform="translate(88.500000, 39.000000) scale(-1, 1) rotate(-329.000000) translate(-88.500000, -39.000000) "></path>
                <path d="M10.5,238 L9.4125,236.992916 C5.55,233.429973 3,231.07248 3,228.196185 C3,225.838692 4.815,224 7.125,224 C8.43,224 9.6825,224.617984 10.5,225.586921 C11.3175,224.617984 12.57,224 13.875,224 C16.185,224 18,225.838692 18,228.196185 C18,231.07248 15.45,233.429973 11.5875,236.992916 L10.5,238 Z" id="Shape-Copy-4" fill="#FA578A" fill-rule="nonzero" transform="translate(10.500000, 231.000000) scale(-1, 1) rotate(-315.000000) translate(-10.500000, -231.000000) "></path>
                <g id="cat" transform="translate(588.000000, 196.000000)">
                    <path d="M47.1414349,68 C46.8481508,67.6479107 46.648106,67.2110593 46.5848276,66.7229817 C46.4073062,65.3537295 47.3733948,64.0998218 48.742647,63.9223005 C57.0127445,62.8500954 61.8588599,61.0738331 63.1204653,59.1225402 C63.5719882,58.4241811 63.9059903,57.6922108 64.1461532,56.9026058 C64.557935,55.5487544 64.6578586,54.4723271 64.721431,51.8320503 C64.8151695,47.9389171 65.1652345,46.2500875 66.9887519,44.5219174 C71.8823015,39.8842397 78.221659,40.3946455 82.4874284,45.5470579 C84.0872916,47.4794537 85.6641075,49.9691498 85.5197707,53.3551082 C85.4630182,54.6864495 85.5199746,56.0942332 84.2598405,56.6585271 C82.9997065,57.2228209 81.5207155,56.658731 80.9564217,55.3985969 C76.9810032,46.5210233 73.9297496,44.832532 70.428133,48.1510575 C69.9497442,48.6044325 69.7809922,49.418548 69.7199822,51.9524049 C69.6455986,55.0416946 69.5170147,56.4268643 68.9297785,58.357573 C68.5572769,59.5822795 68.0296288,60.7386279 67.3192933,61.8372857 C66.0822777,63.7505462 63.3273932,64.8342624 60.0619358,66.0166764 C58.2357549,66.6779319 56.2916683,67.404498 53.9707429,68 L47.1414349,68 Z" id="Combined-Shape" fill="#EF9067" fill-rule="nonzero"></path>
                    <path d="M7.22544399,67.9999991 C8.3678753,60.1926985 12.257197,53.4126206 18.6878661,49.3942926 C32.036241,41.0533022 51.2797161,47.7703779 61.6693707,64.397301 C62.4094858,65.5817327 63.0847069,66.7845017 63.6956985,68 L7.22544558,68 Z" id="Combined-Shape" fill="#FFB089"></path>
                    <path d="M6.27840342,23 L4.55342121,20.3474453 C2.76565717,17.5965427 1.88683307,14.4241157 2.01166811,11.1721356 C2.13638172,7.92015551 3.25588971,4.82042546 5.24887866,2.20770635 C5.90584126,1.34645351 6.80045189,0.697144998 7.8360484,0.330231904 C8.87176633,-0.0366811906 9.98593119,-0.0992124493 11.0579582,0.149494107 C14.3097409,0.903888234 17.2142199,2.57804743 19.4571218,4.9911157 C21.7001451,7.40418397 23.1217831,10.384289 23.5686634,13.609318 L24,16.7211051 L6.27840342,23 Z" id="Shape" fill="#EA8962" fill-rule="nonzero"></path>
                    <path d="M18,13.5752999 L8.65301683,17 L8.51909882,16.7869114 C6.35147851,13.3376099 6.51600635,8.90114281 8.93319551,5.62417586 C9.29940263,5.1277975 9.92418876,4.89880493 10.5215742,5.04218931 C14.4656755,5.98835233 17.4245846,9.28047776 17.9664279,13.3253091 L18,13.5752999 Z" id="Shape" fill="#F5D7B7" fill-rule="nonzero"></path>
                    <path d="M3,15.9956929 C3.43499839,17.5542385 4.13288603,19.0496646 5.0854554,20.4340601 L6.85193685,23 L25,16.9263607 L24.5582864,13.9161839 C24.2482661,11.8028282 23.4788736,9.79901662 22.301468,8 C15.0832057,8.95090715 7.72603739,11.1949611 3,15.9956929 Z" id="Shape" fill="#000000" fill-rule="nonzero" opacity="0.05"></path>
                    <path d="M55.7215955,23 L57.4465776,20.3474453 C59.234463,17.5965427 60.1131656,14.4241157 59.9883306,11.1721356 C59.863617,7.92015551 58.744109,4.82042546 56.7511202,2.20770635 C56.0941576,1.34645351 55.1995471,0.697144998 54.1639506,0.330231904 C53.1282328,-0.0366811906 52.014068,-0.0992124493 50.9420411,0.149494107 C47.6902585,0.903888234 44.7857797,2.57804743 42.5428779,4.9911157 C40.2998547,7.40418397 38.8782169,10.384289 38.4313366,13.609318 L38,16.7211051 L55.7215955,23 Z" id="Shape" fill="#EA8962" fill-rule="nonzero"></path>
                    <path d="M44,13.5752999 L53.3469832,17 L53.4809012,16.7869114 C55.6485215,13.3376099 55.4839937,8.90114281 53.0668045,5.62417586 C52.7005974,5.1277975 52.0758112,4.89880493 51.4784258,5.04218931 C47.5343245,5.98835233 44.5754154,9.28047776 44.0335721,13.3253091 L44,13.5752999 Z" id="Shape" fill="#F5D7B7" fill-rule="nonzero"></path>
                    <path d="M57.9145328,20.4341744 C58.8669832,19.0497789 59.5649992,17.5544671 60,15.9958073 C55.2739359,11.1950755 47.916726,8.9510215 40.6984229,8 C39.521135,9.79901662 38.7516138,11.8028282 38.4417161,13.9161839 L38,16.9263607 L56.1480414,23 L57.9145328,20.4341744 Z" id="Shape" fill="#000000" fill-rule="nonzero" opacity="0.05"></path>
                    <path d="M31,55 C47.9585492,55 59.6835553,47.446528 61.7063023,33.2987183 C64.4129858,14.3664653 47.9586703,9 31,9 C14.0413297,9 -2.41298584,14.3664653 0.293697663,33.2987183 C2.31644468,47.446406 14.0414508,55 31,55 Z" id="Shape" fill="#F49E73" fill-rule="nonzero"></path>
                    <g id="Group" transform="translate(7.000000, 27.000000)" fill="#F27281" fill-rule="nonzero">
                        <ellipse id="Oval" cx="6.82518337" cy="5.5248427" rx="6.71479218" ry="5.40619101"></ellipse>
                        <ellipse id="Oval" cx="43.1687042" cy="5.5248427" rx="6.71479218" ry="5.40619101"></ellipse>
                    </g>
                    <g id="Group" transform="translate(9.000000, 23.000000)" fill="#464D59">
                        <path d="M9.14333511,4.05256552 C8.03853511,4.05256552 7.14333511,3.65898621 7.14333511,3.17325517 L7.14333511,0.899241379 C7.14333511,0.413510345 8.03853511,0.0199310345 9.14333511,0.0199310345 C10.2481351,0.0199310345 11.1433351,0.413510345 11.1433351,0.899241379 L11.1433351,3.17325517 C11.1433351,3.65898621 10.2478684,4.05256552 9.14333511,4.05256552 Z" id="Shape" fill-rule="nonzero"></path>
                        <path d="M39.0215585,4.05256552 C37.9170252,4.05256552 37.0215585,3.65898621 37.0215585,3.17325517 L37.0215585,0.899241379 C37.0215585,0.413510345 37.9170252,0.0199310345 39.0215585,0.0199310345 C40.1263585,0.0199310345 41.0215585,0.413510345 41.0215585,0.899241379 L41.0215585,3.17325517 C41.0215585,3.65898621 40.1263585,4.05256552 39.0215585,4.05256552 Z" id="Shape" fill-rule="nonzero"></path>
                        <path d="M26.467617,16.8991724 C25.1962553,16.8991724 23.9748085,16.4783931 23,15.7227724 C22.0251915,16.4783931 20.8037447,16.8991724 19.532383,16.8991724 C17.9384096,16.8991724 16.422367,16.2373448 15.3731755,15.0836897 C15.0401649,14.7175448 15.0801702,14.1621724 15.462117,13.8430414 C15.8440638,13.5240276 16.4235904,13.562131 16.7567234,13.9282759 C17.4572447,14.6987862 18.469,15.140669 19.532383,15.140669 C20.595766,15.140669 21.6076436,14.6987862 22.3081649,13.9282759 C22.4825,13.7367034 22.7346436,13.626731 22.9998777,13.626731 C23.2651117,13.626731 23.5173777,13.7368207 23.6915904,13.9282759 C24.392234,14.6987862 25.4039894,15.140669 26.4673723,15.140669 C27.5307553,15.140669 28.5425106,14.6987862 29.2430319,13.9282759 C29.5760426,13.562131 30.1554468,13.5240276 30.5376383,13.8430414 C30.9195851,14.1621724 30.9594681,14.7175448 30.6265798,15.0836897 C29.577633,16.2373448 28.0615904,16.8991724 26.467617,16.8991724 Z" id="Shape" fill-rule="nonzero"></path>
                        <rect id="Rectangle-52" x="20" y="5" width="6" height="6"></rect>
                        <path d="M23,15.3852345 C22.4931436,15.3852345 22.0824468,14.9916552 22.0824468,14.5059241 L22.0824468,11.0140069 C22.0824468,10.5282759 22.4931436,10.1346966 23,10.1346966 C23.5068564,10.1346966 23.9175532,10.5282759 23.9175532,11.0140069 L23.9175532,14.5059241 C23.9175532,14.9915379 23.5068564,15.3852345 23,15.3852345 Z" id="Shape" fill-rule="nonzero"></path>
                        <path d="M44.0095213,16.9220345 C43.7806223,16.9220345 43.5513564,16.8404345 43.3733511,16.6762966 C41.3566915,14.8162621 37.7065426,13.5542759 35.1431436,13.2691448 C34.6398351,13.2131034 34.2790532,12.776731 34.3375319,12.2942828 C34.3960106,11.8119517 34.8529521,11.4659724 35.3547926,11.5222483 C38.1353457,11.8316483 42.2289787,13.1799241 44.6459362,15.4090345 C45.011,15.745869 45.022133,16.302531 44.6707713,16.6523793 C44.4906862,16.8317586 44.2502872,16.9220345 44.0095213,16.9220345 Z" id="Shape" fill-rule="nonzero"></path>
                        <path d="M45.0704574,11.9071517 C44.9093351,11.9071517 44.746133,11.866469 44.5979787,11.781 C42.2002287,10.3970828 38.3493191,9.94406207 35.7833511,10.2121931 C35.2788191,10.265069 34.8267713,9.91592414 34.7718404,9.43324138 C34.7170319,8.95055862 35.08075,8.51653103 35.5845479,8.46377241 C38.3676702,8.17313103 42.6709947,8.61571724 45.5446489,10.274331 C45.9788351,10.5248759 46.1186702,11.0652414 45.8573511,11.4812138 C45.6850957,11.7554414 45.3815691,11.9071517 45.0704574,11.9071517 Z" id="Shape" fill-rule="nonzero"></path>
                        <path d="M1.99047872,16.9220345 C1.74971277,16.9220345 1.50931383,16.8317586 1.32922872,16.6524966 C0.977867021,16.3026483 0.989,15.7459862 1.35406383,15.4091517 C3.77114362,13.1799241 7.8647766,11.8316483 10.6452074,11.5223655 C11.1487606,11.4658552 11.604234,11.812069 11.6624681,12.2944 C11.7209468,12.7768483 11.3601649,13.2133379 10.8568564,13.2692621 C8.29345745,13.5543931 4.64330851,14.8162621 2.62664894,16.6764138 C2.44864362,16.8404345 2.21937766,16.9220345 1.99047872,16.9220345 Z" id="Shape" fill-rule="nonzero"></path>
                        <path d="M0.929542553,11.9071517 C0.618430851,11.9071517 0.315026596,11.7554414 0.142648936,11.481331 C-0.118792553,11.0653586 0.0211648936,10.5249931 0.455351064,10.2744483 C3.32888298,8.61595172 7.63257447,8.17313103 10.4154521,8.46388966 C10.91925,8.51653103 11.2830904,8.95055862 11.2282819,9.43335862 C11.1733511,9.91615862 10.7209362,10.2662414 10.2166489,10.2123103 C7.65043617,9.94394483 3.79977128,10.3970828 1.40202128,11.7811172 C1.25398936,11.866469 1.09066489,11.9071517 0.929542553,11.9071517 Z" id="Shape" fill-rule="nonzero"></path>
                    </g>
                    <path d="M31.5,9 C29.9926823,9 28.489223,9.03539319 27,9.10996298 C27.029537,14.0296164 29.032331,18 31.5,18 C33.967669,18 35.970463,14.0296164 36,9.10996298 C34.510777,9.03539319 33.0073177,9 31.5,9 Z" id="Shape" fill="#000000" fill-rule="nonzero" opacity="0.1"></path>
                    <path d="M16,10.4449817 C16.7327743,13.1548319 18.1797814,15 19.8458097,15 C21.793694,15 23.4425971,12.4781849 24,9 C21.2071913,9.30418827 18.5130128,9.77509175 16,10.4449817 Z" id="Shape" fill="#000000" fill-rule="nonzero" opacity="0.1"></path>
                    <path d="M47,10.4449817 C46.2672257,13.1548319 44.8202186,15 43.1541903,15 C41.206306,15 39.5574029,12.4781849 39,9 C41.7928087,9.30418827 44.4869872,9.77509175 47,10.4449817 Z" id="Shape" fill="#000000" fill-rule="nonzero" opacity="0.1"></path>
                </g>
                <g id="dog" transform="translate(490.000000, 177.000000)">
                    <path d="M82.3155029,83.7095825 L74.2538918,76.1137437 C82.5273826,71.1559754 88.7958564,63.5405954 91.7352487,54.6019314 C92.6442377,57.0151807 93.1796283,59.6014543 93.2739093,62.3013096 C93.5781612,71.0139431 89.2173738,78.8670581 82.3155029,83.7095825 Z" id="Combined-Shape" fill="#B7BABC"></path>
                    <path d="M15.6603171,87 C19.0321341,69.356918 34.915181,56 54,56 C73.084819,56 88.9678659,69.356918 92.3396829,87 L15.6603171,87 Z" id="Combined-Shape" fill="#D8D8D8"></path>
                    <path d="M20.5587299,87 C23.4118058,69.356918 36.851307,56 53,56 C69.148693,56 82.5881942,69.356918 85.4412701,87 L20.5587299,87 Z" id="Combined-Shape" fill="#D8D8D8"></path>
                    <path d="M81,34.6650657 C81,13.0893643 65.3298948,0 46,0 C26.6701052,0 11,13.0895463 11,34.6650657 C11,56.2405851 26.6701052,65 46,65 C65.3298948,65 81,56.240767 81,34.6650657 Z" id="Shape" fill="#C1C4C7" fill-rule="nonzero"></path>
                    <path d="M56.3567887,1 C53.0902331,8.12475104 54.2145319,21.2196289 77,15.6611984 C72.5155872,8.11696984 65.1349468,3.0402664 56.3567887,1 Z" id="Shape" fill="#000000" fill-rule="nonzero" opacity="0.1"></path>
                    <g id="Group" transform="translate(27.000000, 23.000000)" fill="#464D59" fill-rule="nonzero">
                        <path d="M3.5905049,7.04625806 C1.6571049,7.04625806 0.090504902,6.26117855 0.090504902,5.29228239 L0.090504902,1.80023374 C0.090504902,0.831337578 1.6571049,0.0462580645 3.5905049,0.0462580645 C5.5239049,0.0462580645 7.0905049,0.831337578 7.0905049,1.80023374 L7.0905049,5.29228239 C7.0905049,6.26117855 5.5239049,7.04625806 3.5905049,7.04625806 Z" id="Shape"></path>
                        <path d="M37.6889069,7.04625806 C35.7555069,7.04625806 34.1889069,6.26117855 34.1889069,5.29228239 L34.1889069,1.80023374 C34.1889069,0.831337578 35.7555069,0.0462580645 37.6889069,0.0462580645 C39.6223069,0.0462580645 41.1889069,0.831337578 41.1889069,1.80023374 L41.1889069,5.29228239 C41.1889069,6.26117855 39.6223069,7.04625806 37.6889069,7.04625806 Z" id="Shape"></path>
                    </g>
                    <path d="M46.9999305,60 C55.1337998,60 63.640707,57.1236358 61.7275421,43.7871258 C59.3444771,27.1771223 51.8501536,22 46.9999305,22 C42.1497073,22 34.6553838,27.1771223 32.2725012,43.7871258 C30.3591539,57.1236358 38.8662436,60 46.9999305,60 Z" id="Shape" fill="#FFFFFF" fill-rule="nonzero"></path>
                    <path d="M46.5,48.4804521 C44.8188693,48.4804521 43.2660147,47.9298812 42,47 L42,53.4225415 C42,55.950673 44.014827,58 46.5,58 C48.985173,58 51,55.9504918 51,53.4225415 L51,47 C49.7339853,47.9298812 48.1811307,48.4804521 46.5,48.4804521 Z" id="Shape" fill="#F27281" fill-rule="nonzero"></path>
                    <path d="M46.5,54 C45.6714,54 45,53.3966323 45,52.6523949 L45,48.3476051 C45,47.603188 45.6714,47 46.5,47 C47.3286,47 48,47.603188 48,48.3476051 L48,52.6523949 C48,53.3966323 47.3286,54 46.5,54 Z" id="Shape" fill="#000000" fill-rule="nonzero" opacity="0.1"></path>
                    <g id="Group" transform="translate(0.000000, 4.000000)" fill="#464D59" fill-rule="nonzero">
                        <path d="M46.5454545,45.852 C43.8796364,45.852 41.3441818,44.6970909 39.5892727,42.6836364 C39.0943636,42.1158182 39.1536364,41.2545455 39.7214545,40.7596364 C40.2890909,40.2649091 41.1503636,40.324 41.6454545,40.8918182 C42.8821818,42.3109091 44.6681818,43.1247273 46.5454545,43.1247273 C48.4227273,43.1247273 50.2087273,42.3107273 51.4454545,40.8918182 C51.9403636,40.3241818 52.8014545,40.2650909 53.3694545,40.7596364 C53.9370909,41.2545455 53.9963636,42.1158182 53.5016364,42.6836364 C51.7467273,44.6970909 49.2112727,45.852 46.5454545,45.852 Z" id="Shape"></path>
                        <path d="M46.5454545,45.852 C45.7921818,45.852 45.1818182,44.9590604 45.1818182,43.85705 L45.1818182,34.99495 C45.1818182,33.8929396 45.7921818,33 46.5454545,33 C47.2987273,33 47.9090909,33.8929396 47.9090909,34.99495 L47.9090909,43.85705 C47.9090909,44.9587944 47.2987273,45.852 46.5454545,45.852 Z" id="Shape"></path>
                        <path d="M8.18909091,29.9127273 C4.22345455,29.4294545 1.02181818,26.4441818 0.262545455,22.522 C-0.687636364,17.6129091 0.978727273,12.5625455 4.66381818,9.18309091 L10.944,3.42381818 C13.9070909,0.706363636 17.9621818,-0.484545455 21.9241818,0.198909091 C25.5710909,0.828 27.6227273,4.75127273 26.0587273,8.10527273 L18.578,24.1478182 C16.728,28.1154545 12.5349091,30.4421818 8.18909091,29.9127273 Z" id="Shape"></path>
                    </g>
                    <rect id="Rectangle-53" fill="#464D59" x="42" y="33" width="9" height="7"></rect>
                    <path d="M5.57963208,13 L4.84456198,13.6352009 C1.01660703,16.9432644 -0.714358398,21.8869391 0.272660184,26.6923255 C1.06136849,30.5316512 4.38712628,33.45386 8.50650291,33.9269236 C13.0208003,34.4453714 17.3764495,32.1677962 19.2983594,28.2837982 L20,26.8656753 C8.13670146,32.357876 3.87208616,19.6522565 5.57963208,13 Z" id="Shape" fill="#000000" fill-rule="nonzero" opacity="0.1"></path>
                    <path d="M84.9922596,33.9253372 C88.8701045,33.4417017 92.0008628,30.4541879 92.7433267,26.5290617 C93.6724734,21.6162855 92.0429998,16.5621305 88.4394896,13.1801389 L82.2983388,7.41654265 C79.400845,4.69704808 75.4355259,3.50524497 71.5612368,4.18921259 C67.9950632,4.81877576 65.9888461,8.74499373 67.5182222,12.1015116 L74.8333407,28.1561004 C76.6423853,32.1267153 80.7426493,34.4551892 84.9922596,33.9253372 Z" id="Shape" fill="#464D59" fill-rule="nonzero"></path>
                    <path d="M91,30.0880892 C77.2684616,31.6335442 71.023273,10.5555822 70.6005994,4 C67.638436,5.11091871 66.1259577,8.52429016 67.5288203,11.4873955 L74.9957516,27.2590449 C76.8425213,31.1598621 81.0278792,33.4473 85.3656828,32.9266071 C87.5804998,32.6608089 89.5561223,31.6244281 91,30.0880892 Z" id="Shape" fill="#000000" fill-rule="nonzero" opacity="0.1"></path>
                </g>
                <g id="bird" transform="translate(0.000000, 22.000000)" fill-rule="nonzero">
                    <path d="M30.2762509,43.2183849 L27.2183849,46.2762509 C26.2533862,47.2412497 24.6887478,47.2412497 23.7237491,46.2762509 C22.7587503,45.3112522 22.7587503,43.7466138 23.7237491,42.7816151 L26.7816151,39.7237491 C27.7466138,38.7587503 29.3112522,38.7587503 30.2762509,39.7237491 C31.2412497,40.6887478 31.2412497,42.2533862 30.2762509,43.2183849 Z" id="Shape" fill="#B38A82"></path>
                    <path d="M30.2762509,43.2183849 L27.2183849,46.2762509 C26.2533862,47.2412497 24.6887478,47.2412497 23.7237491,46.2762509 C22.7587503,45.3112522 22.7587503,43.7466138 23.7237491,42.7816151 L26.7816151,39.7237491 C27.7466138,38.7587503 29.3112522,38.7587503 30.2762509,39.7237491 C31.2412497,40.6887478 31.2412497,42.2533862 30.2762509,43.2183849 Z" id="Shape" fill="#000000" opacity="0.1"></path>
                    <path d="M25.2762509,43.2183849 L22.2183849,46.2762509 C21.2533862,47.2412497 19.6887478,47.2412497 18.7237491,46.2762509 C17.7587503,45.3112522 17.7587503,43.7466138 18.7237491,42.7816151 L21.7816151,39.7237491 C22.7466138,38.7587503 24.3112522,38.7587503 25.2762509,39.7237491 C26.2412497,40.6887478 26.2412497,42.2533862 25.2762509,43.2183849 Z" id="Shape" fill="#B38A82"></path>
                    <path d="M40.7150328,28 C44.1861536,28 47,30.9101188 47,34.5 C47,38.0898812 44.1861536,41 40.7150328,41 L32.926043,41 C30.7577969,41 29,39.1821579 29,36.939632 C29,34.976811 30.3466993,33.3393062 32.1366465,32.9614795 C31.7764149,32.4464354 31.5635002,31.8140092 31.5635002,31.1297432 C31.5635002,29.4013032 32.9183529,28.0000958 34.5896127,28.0000958 L40.7150328,28 L40.7150328,28.0158107" id="Shape" fill="#DD7D37"></path>
                    <path d="M40.2785303,41 C40.8767943,41 41.4542747,40.9052319 42,40.7315063 C34.9970907,39.7558452 34.0566557,29.9341702 35.5300604,28 L34.3813435,28 C32.7723549,28 31.4679841,29.4012074 31.4679841,31.1296474 C31.4679841,31.8139134 31.6729656,32.4463396 32.0197749,32.9613837 C30.2965212,33.3392104 29,34.9767152 29,36.9395362 C29,39.1819663 30.6922122,40.9999042 32.7797585,40.9999042 L40.2785303,40.9999042 L40.2785303,41 Z" id="Shape" fill="#D17597"></path>
                    <g id="Group">
                        <path d="M20.4801402,8.91464135 C17.6204124,8.48522363 15.0407423,7.33918143 12.8120742,5.50807595 C10.6288577,3.71428692 9.50300206,1.83583966 9.21006186,1.302827 C8.53382268,0.0728691983 7.01115052,-0.363232068 5.80899794,0.328607595 C4.60693608,1.02054008 4.18063505,2.57854852 4.85687423,3.80859916 C5.26376082,4.54870886 6.62894021,6.81628692 9.16152577,9.04738397 C9.44339794,9.29578903 9.26322474,9.76920675 8.8913567,9.75611814 C7.07075464,9.69206751 5.25813608,9.32967089 3.74435464,8.53414346 C2.52287835,7.8921519 0.995216495,8.37624473 0.365154639,9.62467511 C-0.267628866,10.8787679 0.213014433,12.4202532 1.43875464,13.0676287 C4.15877113,14.5042194 7.11257732,14.8839747 9.47533196,14.8839747 C10.0224742,14.8839747 10.5382268,14.8636456 11.0117938,14.8312489 C13.2460866,14.6786414 15.5242887,14.1877722 17.3897072,13.4774599 C18.159934,13.684557 18.9684454,13.8554515 19.8179629,13.9804895 C19.938532,13.9982194 20.0582845,14.0068523 20.1765856,14.0068523 C21.3930722,14.0068523 22.4572371,13.0963122 22.6430351,11.8312658 C22.8476124,10.4388608 21.8416907,9.11913924 20.4801402,8.91464135 Z" id="Shape" fill="#FFC9A1"></path>
                        <ellipse id="Oval" fill="#FF974B" cx="23.8933608" cy="25.2786498" rx="20.1039175" ry="18.65173"></ellipse>
                    </g>
                    <g id="Group" transform="translate(24.000000, 30.000000)" fill="#FFC9A1">
                        <path d="M5.49195122,3.4087 C5.12152846,3.4087 4.82121951,3.0729 4.82121951,2.6587 L4.82121951,0.7772 C4.82121951,0.363 5.12152846,0.0272 5.49195122,0.0272 C5.86237398,0.0272 6.16268293,0.363 6.16268293,0.7772 L6.16268293,2.6587 C6.16268293,3.0729 5.86237398,3.4087 5.49195122,3.4087 Z" id="Shape"></path>
                        <path d="M10.2674715,3.4087 C9.89704878,3.4087 9.59673984,3.0729 9.59673984,2.6587 L9.59673984,0.7772 C9.59673984,0.363 9.89704878,0.0272 10.2674715,0.0272 C10.6378943,0.0272 10.9382033,0.363 10.9382033,0.7772 L10.9382033,2.6587 C10.9382033,3.0729 10.6378943,3.4087 10.2674715,3.4087 Z" id="Shape"></path>
                        <path d="M0.716341463,3.4087 C0.345918699,3.4087 0.0456097561,3.0729 0.0456097561,2.6587 L0.0456097561,0.7772 C0.0456097561,0.363 0.345918699,0.0272 0.716341463,0.0272 C1.08676423,0.0272 1.38707317,0.363 1.38707317,0.7772 L1.38707317,2.6587 C1.38707317,3.0729 1.08676423,3.4087 0.716341463,3.4087 Z" id="Shape"></path>
                        <path d="M3.10414634,7.9045 C2.73372358,7.9045 2.43341463,7.5687 2.43341463,7.1545 L2.43341463,5.273 C2.43341463,4.8588 2.73372358,4.523 3.10414634,4.523 C3.47456911,4.523 3.77487805,4.8588 3.77487805,5.273 L3.77487805,7.1545 C3.77487805,7.5687 3.47456911,7.9045 3.10414634,7.9045 Z" id="Shape"></path>
                        <path d="M7.87966667,7.9045 C7.5092439,7.9045 7.20893496,7.5687 7.20893496,7.1545 L7.20893496,5.273 C7.20893496,4.8588 7.5092439,4.523 7.87966667,4.523 C8.25008943,4.523 8.55039837,4.8588 8.55039837,5.273 L8.55039837,7.1545 C8.55039837,7.5687 8.25008943,7.9045 7.87966667,7.9045 Z" id="Shape"></path>
                    </g>
                    <path d="M29.0000478,20 C31.1758442,20 33.3964253,20.8841628 32.9397732,23.3469017 C32.6293416,25.0207528 31.0172791,26.1681451 29.9538307,26.7560746 C29.3655035,27.0813085 28.6344964,27.0813085 28.0461692,26.7560746 C26.9827209,26.1681451 25.3706584,25.0207528 25.0602268,23.3469017 C24.6035746,20.8841628 26.8241558,20 29.0000478,20 Z" id="Shape" fill="#B38A82"></path>
                    <path d="M26.7224849,20 C25.6030192,20.4265709 24.7884256,21.4125834 25.0487484,23.211046 C25.300084,24.9472253 26.6052622,26.1373423 27.4662645,26.7471643 C27.9390294,27.0820173 28.5254531,27.0841395 29,26.7542692 C27.2433631,25.4914423 25.9938908,21.5355812 26.7224849,20 Z" id="Shape" fill="#000000" opacity="0.1"></path>
                    <g id="Group" transform="translate(17.000000, 19.000000)" fill="#FFC9A1">
                        <ellipse id="Oval" cx="3.4375" cy="2.984" rx="3.35778986" ry="2.9519"></ellipse>
                        <ellipse id="Oval" cx="21.6367754" cy="2.984" rx="3.35778986" ry="2.9519"></ellipse>
                    </g>
                    <g id="Group" transform="translate(20.000000, 17.000000)" fill="#464D59">
                        <path d="M3.92690909,2.93082353 C3.55036364,2.93082353 3.24509091,2.63452941 3.24509091,2.26905882 C3.24509091,1.77555882 2.83145455,1.37408824 2.32290909,1.37408824 C1.81445455,1.37408824 1.40072727,1.77555882 1.40072727,2.26905882 C1.40072727,2.63452941 1.09545455,2.93082353 0.718909091,2.93082353 C0.342363636,2.93082353 0.0370909091,2.63452941 0.0370909091,2.26905882 C0.0370909091,1.04576471 1.06245455,0.0505588235 2.32290909,0.0505588235 C3.58327273,0.0505588235 4.60872727,1.04576471 4.60872727,2.26905882 C4.60872727,2.63452941 4.30345455,2.93082353 3.92690909,2.93082353 Z" id="Shape"></path>
                        <path d="M18.2646364,2.93082353 C17.8880909,2.93082353 17.5828182,2.63452941 17.5828182,2.26905882 C17.5828182,1.77555882 17.1691818,1.37408824 16.6607273,1.37408824 C16.1522727,1.37408824 15.7385455,1.77555882 15.7385455,2.26905882 C15.7385455,2.63452941 15.4332727,2.93082353 15.0567273,2.93082353 C14.6801818,2.93082353 14.3749091,2.63452941 14.3749091,2.26905882 C14.3749091,1.04576471 15.4002727,0.0505588235 16.6607273,0.0505588235 C17.9210909,0.0505588235 18.9464545,1.04576471 18.9464545,2.26905882 C18.9464545,2.63452941 18.6411818,2.93082353 18.2646364,2.93082353 Z" id="Shape"></path>
                    </g>
                    <path d="M20.5175341,7 C11.1229018,8.58326894 4,16.195603 4,25.3485052 C4,35.6494074 13.0214512,44 24.1500476,44 C28.5794808,44 32.6741969,42.6759988 36,40.4337461 C10.9424037,44 10.7913672,15.5304926 20.5175341,7 Z" id="Shape" fill="#F68F44"></path>
                    <path d="M11.7150328,28 C15.1861536,28 18,30.9101188 18,34.5 C18,38.0898812 15.1861536,41 11.7150328,41 L3.92604298,41 C1.75779694,41 0,39.1821579 0,36.939632 C0,34.976811 1.34669927,33.3393062 3.13664651,32.9614795 C2.77641488,32.4464354 2.56350019,31.8140092 2.56350019,31.1297432 C2.56350019,29.4013032 3.91835285,28.0000958 5.58961266,28.0000958 L11.7150328,28 L11.7150328,28.0158107" id="Shape" fill="#D4732D"></path>
                    <path d="M11.2785303,41 C11.8767943,41 12.4541855,40.9052319 13,40.7315063 C5.99709071,39.7558452 5.05665569,29.9341702 6.53006038,28 L5.38134349,28 C3.77235488,28 2.46798408,29.4012074 2.46798408,31.1296474 C2.46798408,31.8139134 2.67296556,32.4463396 3.01977494,32.9613837 C1.2965212,33.3392104 0,34.9767152 0,36.9395362 C0,39.1819663 1.69221216,40.9999042 3.77975847,40.9999042 L11.2785303,40.9999042 L11.2785303,41 Z" id="Shape" fill="#DD7D37"></path>
                </g>
            </g>
        </g>
    </g>
</svg>