<?xml version="1.0" encoding="UTF-8"?>
<svg width="493px" height="250px" viewBox="0 0 493 250" version="1.1" xmlns="http://www.w3.org/2000/svg" xmlns:xlink="http://www.w3.org/1999/xlink">
    <!-- Generator: Sketch 50 (54983) - http://www.bohemiancoding.com/sketch -->
    <title>Image</title>
    <desc>Created with Sketch.</desc>
    <defs></defs>
    <g id="Page-1" stroke="none" stroke-width="1" fill="none" fill-rule="evenodd">
        <g id="Letter" transform="translate(-266.000000, -371.000000)">
            <g id="Group-4" transform="translate(184.000000, 81.000000)">
                <g id="Image" transform="translate(83.000000, 290.000000)">
                    <g id="Safe" transform="translate(363.000000, 182.000000)">
                        <rect id="Rectangle-2" fill="#31E0D5" x="0" y="0" width="123" height="47"></rect>
                        <rect id="Rectangle-4" fill="#FFFFFF" x="25" y="10" width="74" height="10" rx="5"></rect>
                    </g>
                    <g id="Tshirt" transform="translate(252.000000, 65.000000)">
                        <path d="M35,133.865504 L31.9640968,133.865504 L31.9640968,63.0276241 L27.6737321,70.002291 L0.958257294,55.3227985 C8.2245944,38.400136 14.8658753,26.2358611 20.8820999,18.8299737 C26.8983246,11.4240863 35.6197134,5.38747532 47.0462664,0.720140709 C49.8575602,5.12975447 52.6471024,7.97204794 55.4148932,9.24702111 C58.0349219,10.4539282 62.5404588,11.2171062 68.9315041,11.536555 C75.3225494,11.2171062 79.8280864,10.4539282 82.4481151,9.24702111 C85.2159058,7.97204794 88.0054481,5.12975447 90.8167419,0.720140709 C102.243295,5.38747532 110.964684,11.4240863 116.980908,18.8299737 C122.997133,26.2358611 129.638414,38.400136 136.904751,55.3227985 L110.189276,70.002291 L105.898912,63.0276241 L105.898912,113 L106,113 L106,164 L35,164 L35,133.865504 Z" id="Combined-Shape" fill="#948CF9"></path>
                        <path d="M17.4831845,49.9337616 C21.6399125,40.0251968 25.3359289,32.8933054 28.5712337,28.5380873 C31.8065386,24.1828692 36.782794,19.8368401 43.5,15.5" id="Line-3" stroke="#100F0F" stroke-width="2" stroke-linecap="square"></path>
                        <path d="M3.13414351,50.3557986 L30.7323492,65.0300248 L27.6737321,70.002291 L0.958257294,55.3227985 C1.68988955,53.6188911 2.41518496,51.9632244 3.13414351,50.3557986 Z" id="Combined-Shape-Copy-6" fill="#8580D0"></path>
                        <path d="M95.5727403,2.81591061 C92.2121339,7.98342408 88.8768049,11.3295627 85.5667531,12.8543265 C82.3422149,14.3396989 76.7971319,15.2789621 68.9315041,15.6721161 C61.0658764,15.2789621 55.5207934,14.3396989 52.2962551,12.8543265 C48.9862034,11.3295627 45.6508744,7.98342408 42.290268,2.81591061 C43.8197985,2.08907514 45.4051313,1.39048517 47.0462664,0.720140709 C49.8575602,5.12975447 52.6471024,7.97204794 55.4148932,9.24702111 C58.0349219,10.4539282 62.5404588,11.2171062 68.9315041,11.536555 C75.3225494,11.2171062 79.8280864,10.4539282 82.4481151,9.24702111 C85.2159058,7.97204794 88.0054481,5.12975447 90.8167419,0.720140709 C92.4578769,1.39048517 94.0432098,2.08907514 95.5727403,2.81591061 Z" id="Combined-Shape-Copy-4" fill="#847ECD"></path>
                        <path d="M109.134144,50.3557986 L136.732349,65.0300248 L133.673732,70.002291 L106.958257,55.3227985 C107.68989,53.6188911 108.415185,51.9632244 109.134144,50.3557986 Z" id="Combined-Shape-Copy-5" fill="#8580D0" transform="translate(121.845303, 60.179045) scale(-1, 1) translate(-121.845303, -60.179045) "></path>
                    </g>
                    <g id="Wallet" transform="translate(1.000000, 50.000000)">
                        <g id="Coin-Hand" transform="translate(371.000000, 0.000000)">
                            <path d="M56.1017002,97 L51.566625,123.884374 L8.68296292,85.863631 C7.61264023,84.9146807 7,83.5527577 7,82.1223391 L7,29.9635705 L25,54.4285479 L25,50 L27,50 L27,27 L52,27 L52,37.089075 C58.19634,37.8301084 63,43.1040767 63,49.5 L63,78 L63,97 L56.1017002,97 Z" id="Combined-Shape" fill="#BE9278"></path>
                            <circle id="Oval-2" fill="#FF974B" cx="55.5" cy="109.5" r="28.5"></circle>
                            <path d="M43,69.2920398 L57.3006792,83.5927191 C60.2296114,86.5216512 60.2296114,91.2703886 57.3006792,94.1993208 L56.5935724,94.9064276 C53.6646403,97.8353597 48.9159029,97.8353597 45.9869707,94.9064276 L9.34357244,58.2630293 C8.30552205,57.2249789 7.63536976,55.9583459 7.33311559,54.6251554 L7,54.2920398 L7,27 L32,27 L32,37.089075 C38.19634,37.8301084 43,43.1040767 43,49.5 L43,69.2920398 Z" id="Combined-Shape" fill="#A47961"></path>
                            <rect id="Rectangle-8" fill="#16C0DB" x="0" y="0" width="63" height="29"></rect>
                            <rect id="Rectangle-8-Copy" fill="#1BADC4" x="0" y="20" width="63" height="9"></rect>
                        </g>
                        <polygon id="Rectangle-12" fill="#CF7736" points="0 83 89 65.0878466 178 83 178 123 0 123"></polygon>
                        <g id="Tshirt" transform="translate(20.000000, 0.000000)">
                            <path d="M68.9315041,11.536555 C75.3225494,11.2171062 79.8280864,10.4539282 82.4481151,9.24702111 C85.2159058,7.97204794 88.0054481,5.12975447 90.8167419,0.720140709 C102.243295,5.38747532 110.964684,11.4240863 116.980908,18.8299737 C122.997133,26.2358611 129.638414,38.400136 136.904751,55.3227985 L110.189276,70.002291 L105.898912,63.0276241 L105.898912,133.865504 L70.0308047,133.865504 L31.9640968,133.865504 L31.9640968,63.0276241 L27.6737321,70.002291 L0.958257294,55.3227985 C8.2245944,38.400136 14.8658753,26.2358611 20.8820999,18.8299737 C26.8983246,11.4240863 35.6197134,5.38747532 47.0462664,0.720140709 C49.8575602,5.12975447 52.6471024,7.97204794 55.4148932,9.24702111 C58.0349219,10.4539282 62.5404588,11.2171062 68.9315041,11.536555 Z" id="Combined-Shape" fill="#948CF9"></path>
                            <path d="M3.13414351,50.3557986 L30.7323492,65.0300248 L27.6737321,70.002291 L0.958257294,55.3227985 C1.68988955,53.6188911 2.41518496,51.9632244 3.13414351,50.3557986 Z" id="Combined-Shape" fill="#8580D0"></path>
                            <path d="M109.134144,50.3557986 L136.732349,65.0300248 L133.673732,70.002291 L106.958257,55.3227985 C107.68989,53.6188911 108.415185,51.9632244 109.134144,50.3557986 Z" id="Combined-Shape-Copy-3" fill="#8580D0" transform="translate(121.845303, 60.179045) scale(-1, 1) translate(-121.845303, -60.179045) "></path>
                            <path d="M95.5727403,2.81591061 C92.2121339,7.98342408 88.8768049,11.3295627 85.5667531,12.8543265 C82.3422149,14.3396989 76.7971319,15.2789621 68.9315041,15.6721161 C61.0658764,15.2789621 55.5207934,14.3396989 52.2962551,12.8543265 C48.9862034,11.3295627 45.6508744,7.98342408 42.290268,2.81591061 C43.8197985,2.08907514 45.4051313,1.39048517 47.0462664,0.720140709 C49.8575602,5.12975447 52.6471024,7.97204794 55.4148932,9.24702111 C58.0349219,10.4539282 62.5404588,11.2171062 68.9315041,11.536555 C75.3225494,11.2171062 79.8280864,10.4539282 82.4481151,9.24702111 C85.2159058,7.97204794 88.0054481,5.12975447 90.8167419,0.720140709 C92.4578769,1.39048517 94.0432098,2.08907514 95.5727403,2.81591061 Z" id="Combined-Shape" fill="#847ECD"></path>
                        </g>
                        <g id="Tshirt-Copy" transform="translate(4.000000, 1.000000)"></g>
                        <polygon id="Rectangle-11" fill="#FF974B" points="0 83.2400485 90 105.235775 90 179.235775 0 157.240049"></polygon>
                        <polygon id="Rectangle-11-Copy" fill="#EB8338" transform="translate(133.000000, 131.237912) scale(-1, 1) translate(-133.000000, -131.237912) " points="88 83.2400485 178 105.235775 178 179.235775 88 157.240049"></polygon>
                    </g>
                    <g id="Open-Hand" transform="translate(40.000000, 168.000000)">
                        <path d="M28.4953955,16.419637 L65.2543247,16.4973362 L65.2543247,32.4973362 L18.5375471,32.4973362 L18.1964655,27.9164535 L21.1572722,21.1947416 C22.4380548,18.2870707 25.3181468,16.4129211 28.4953955,16.419637 Z" id="Rectangle-13-Copy-4" fill="#E9BCBC" transform="translate(41.725395, 24.458478) rotate(-310.000000) translate(-41.725395, -24.458478) "></path>
                        <path d="M18.4953955,15.419637 L55.2543247,15.4973362 L55.2543247,31.4973362 L8.5375471,31.4973362 L8.19646547,26.9164535 L11.1572722,20.1947416 C12.4380548,17.2870707 15.3181468,15.4129211 18.4953955,15.419637 Z" id="Rectangle-13-Copy-3" fill="#F9CFCF" transform="translate(31.725395, 23.458478) rotate(-310.000000) translate(-31.725395, -23.458478) "></path>
                        <path d="M62.8616863,22.5663264 C59.4311835,22.5158123 56.4148285,20.2835156 55.3639753,17.0175382 L53.3979212,10.907181 L53.7419758,6.33160603 L89.9158207,6.96302284 L100.392249,7.59469612 C119.707121,8.4523922 135.179571,29.3349919 134.321875,48.6498637 C134.000016,55.8979797 149.456991,50.484445 145.001833,56.2107303 C129.340506,58.8100892 119.319984,59.5995672 114.940266,58.5791644 C102.96896,56.2107303 105.159515,53.4238581 100.392249,49.9076471 C96.8033611,47.2605771 89.592887,46.8917088 87.839345,47.0333696 L36,47 C34.1490275,47 32.4448762,46.3713835 31.0893871,45.3159916 L30.6913766,45.6499621 L0.662410754,9.86283425 L3.95232745,6.65701592 L11.0046274,4.60449233 C14.0553037,3.71661387 17.342273,4.71821223 19.3794244,7.15644285 C24.3135586,13.062021 28.0141591,17.4912046 30.4812262,20.4439936 C32.4411341,22.7897728 35.3809959,26.3084416 39.3008116,31 L87.5031872,31 C88.6311881,30.6928145 89.204688,29.2704647 89.2236869,26.7329505 C89.2426858,24.1954364 88.6127639,22.9266793 87.3339209,22.9266793 L62.8616863,22.5663264 Z" id="Combined-Shape" fill="#FBDEDE"></path>
                    </g>
                    <g id="Ribow" transform="translate(312.000000, 94.000000)">
                        <path d="M51,0.83651068 L51,0.733684459 C51.2552733,0.743971376 51.510778,0.757673227 51.7664529,0.774817701 C52.0221277,0.757673227 52.2776324,0.743971376 52.5329057,0.733684459 L52.5329057,0.836510755 C55.0427579,1.07232391 57.5631227,1.64182167 60.0364659,2.57111195 C67.8553457,5.50883979 74.0279046,11.6751859 76.9735048,19.4911034 L85.5329057,42.202798 C79.8687255,29.0170119 68.6132412,22.3261137 51.7664529,22.1301032 C34.9196645,22.3261137 23.6641802,29.0170119 18,42.202798 L26.559401,19.4911034 C29.5050011,11.6751859 35.67756,5.50883979 43.4964398,2.57111195 C45.969783,1.64182167 48.4901478,1.07232391 51,0.83651068 Z" id="Combined-Shape" fill="#FA578A"></path>
                        <path d="M34.8969247,16.6594996 L34.8969247,16.6594996 C50.8469357,16.2253218 64.1289451,28.8033898 64.563123,44.7534008 C64.5681762,44.9390368 64.5714395,45.1247173 64.5729123,45.3104162 L64.838815,78.8362782 L65.216627,126.472023 L43.216627,126.472023 L43.1317865,32.5656383 C41.7841649,28.3312746 40.6118004,25.2511058 39.6146929,23.3251317 C38.6175854,21.3991577 37.044996,19.1772803 34.8969247,16.6594996 Z" id="Rectangle-9" fill="#DF4776" transform="translate(50.056776, 71.560306) rotate(-315.000000) translate(-50.056776, -71.560306) "></path>
                        <path d="M38.8969247,16.6594996 L38.8969247,16.6594996 C54.8469357,16.2253218 68.1289451,28.8033898 68.563123,44.7534008 C68.5681762,44.9390368 68.5714395,45.1247173 68.5729123,45.3104162 L69.216627,126.472023 L47.216627,126.472023 L47.1317865,32.5656383 C45.7841649,28.3312746 44.6118004,25.2511058 43.6146929,23.3251317 C42.6175854,21.3991577 41.044996,19.1772803 38.8969247,16.6594996 Z" id="Rectangle-9-Copy" fill="#E75A86" transform="translate(54.056776, 71.560306) scale(-1, 1) rotate(-315.000000) translate(-54.056776, -71.560306) "></path>
                    </g>
                    <g id="Left-Hand" transform="translate(148.000000, 28.000000)">
                        <rect id="Rectangle-3" fill="#E9BCBC" x="23" y="122" width="69" height="35"></rect>
                        <rect id="Rectangle-3-Copy" fill="#16C0DB" x="13" y="154" width="85" height="47"></rect>
                        <circle id="Oval" fill="#FFFFFF" cx="28.5" cy="182.5" r="7.5"></circle>
                        <rect id="Rectangle-3-Copy-2" fill="#1BADC4" x="13" y="154" width="85" height="12"></rect>
                        <g id="Group">
                            <path d="M20,89 L26,89 L26,22 C26,16.4771525 30.4771525,12 36,12 C39.2711979,12 42.1755424,13.5706862 44,15.9990251 L44,10 C44,4.4771525 48.4771525,0 54,0 C59.5225225,0 63.9994731,4.47662567 64,9.99902515 C65.8244575,7.57068622 68.7288021,6 72,6 C77.5228475,6 82,10.4771525 82,16 L82,24.9990251 C83.8244576,22.5706862 86.7288021,21 90,21 C95.5228475,21 100,25.4771525 100,31 L100,101 C100,101.281671 99.9883544,101.560623 99.9655185,101.836399 C99.0003464,127.495059 77.894766,148 52,148 L48,148 C22.8373449,148 2.19689871,128.638122 0.164295108,104 L0,52 L8,52 C14.627417,52 20,58.4237405 20,66.3478261 L20,89 Z" id="Combined-Shape" fill="#FBDEDE"></path>
                            <path d="M0,52 L8,52 C14.627417,52 20,58.4237405 20,66.3478261 L20,89 L29,89 C48.5450795,90.3684766 64,106.629393 64,126.5 L64,146.48779 C60.1645609,147.474964 56.1435948,148 52,148 L48,148 C22.8373449,148 2.19689871,128.638122 0.164295108,104 L0,52 Z" id="Combined-Shape-Copy" fill="#F9CFCF"></path>
                        </g>
                    </g>
                    <g id="Right-Hand" transform="translate(303.000000, 128.500000) scale(-1, 1) translate(-303.000000, -128.500000) translate(253.000000, 28.000000)">
                        <rect id="Rectangle-3" fill="#E9BCBC" x="23" y="122" width="69" height="35"></rect>
                        <rect id="Rectangle-3-Copy" fill="#16C0DB" x="13" y="154" width="85" height="47"></rect>
                        <rect id="Rectangle-3-Copy-2" fill="#1BADC4" x="13" y="154" width="85" height="12"></rect>
                        <g id="Group">
                            <path d="M20,89 L26,89 L26,22 C26,16.4771525 30.4771525,12 36,12 C39.2711979,12 42.1755424,13.5706862 44,15.9990251 L44,10 C44,4.4771525 48.4771525,0 54,0 C59.5225225,0 63.9994731,4.47662567 64,9.99902515 C65.8244575,7.57068622 68.7288021,6 72,6 C77.5228475,6 82,10.4771525 82,16 L82,24.9990251 C83.8244576,22.5706862 86.7288021,21 90,21 C95.5228475,21 100,25.4771525 100,31 L100,101 C100,101.281671 99.9883544,101.560623 99.9655185,101.836399 C99.0003464,127.495059 77.894766,148 52,148 L48,148 C22.8373449,148 2.19689871,128.638122 0.164295108,104 L0,52 L8,52 C14.627417,52 20,58.4237405 20,66.3478261 L20,89 Z" id="Combined-Shape" fill="#FBDEDE"></path>
                            <path d="M0,52 L8,52 C14.627417,52 20,58.4237405 20,66.3478261 L20,89 L29,89 C48.5450795,90.3684766 64,106.629393 64,126.5 L64,146.48779 C60.1645609,147.474964 56.1435948,148 52,148 L48,148 C22.8373449,148 2.19689871,128.638122 0.164295108,104 L0,52 Z" id="Combined-Shape-Copy" fill="#F9CFCF"></path>
                        </g>
                    </g>
                    <path d="M210.90202,124 L210.447962,123.545942 C199.513282,112.611261 199.513282,94.882642 210.447962,83.9479618 C221.382642,73.0132816 239.111261,73.0132816 250.045942,83.9479618 L250.5,84.4020203 L250.954058,83.9479618 C261.888739,73.0132816 279.617358,73.0132816 290.552038,83.9479618 C301.486718,94.882642 301.486718,112.611261 290.552038,123.545942 L290.09798,124 L290.351028,124.253048 L250.753048,163.851028 L250.5,163.59798 L250.246952,163.851028 L210.648972,124.253048 L210.90202,124 Z" id="heart" fill="#FA578A"></path>
                    <g id="User" transform="translate(56.000000, 89.000000)">
                        <path d="M40.9997581,77.6394707 L40.9997581,77.6457236 L40.935933,77.6425971 L40.8721079,77.6457236 L40.8721079,77.6394707 L10.3314091,76.1434429 C4.88575186,75.8766889 0.669997488,71.2753921 0.879596294,65.8272356 C1.10603758,59.9412882 4.62061916,54.6818856 9.9721039,52.2207347 L9.97209607,52.2207176 C17.4648422,48.7747993 23.7541267,45.2960335 28.8399495,41.7844203 C29.8354324,39.0777512 30.9895079,34.6340308 30.0542862,30.8030562 C29.7795534,29.6776607 29.1438292,27.8052435 28.1471136,25.1858047 L40.8721079,24.4065606 L40.8721079,24.3987437 L40.935933,24.4026522 L40.9997581,24.3987437 L40.9997581,24.4065606 L53.7247524,25.1858047 C52.7280368,27.8052435 52.0923126,29.6776607 51.8175798,30.8030562 C50.8823581,34.6340308 52.0364336,39.0777512 53.0319165,41.7844203 C58.1177393,45.2960335 64.4070238,48.7747993 71.8997699,52.2207176 L71.8997621,52.2207347 C77.2512468,54.6818856 80.7658284,59.9412882 80.9922697,65.8272356 C81.2018685,71.2753921 76.9861141,75.8766889 71.5404569,76.1434429 L40.9997581,77.6394707 Z" id="Combined-Shape" fill="#2BD4CA"></path>
                        <path d="M53.9975529,30.3298658 C52.013754,37.9883281 47.2341534,43 40.9999697,43 C34.7657731,43 29.9861657,37.9883074 28.0023742,30.3298185 C26.8055305,29.5528006 25.7083744,27.9622881 25.1355841,25.9647307 C24.2222022,22.7793897 24.9880603,19.7652359 26.8461759,19.2324298 C26.8666859,19.2265487 26.8872433,19.2209944 26.9078457,19.2157649 C26.7018448,15.5630292 26.3241954,12.1893599 27.7052846,9.3216934 C30.4211726,3.68247658 35.9346001,0 40.9999697,0 C46.0885927,0 51.6198771,3.71636426 54.3319464,9.39948031 C55.6924856,12.2504774 55.3056131,15.5964344 55.0948974,19.2164631 C55.1145815,19.2214881 55.1342245,19.2268097 55.1538241,19.2324298 C57.0119397,19.7652359 57.7777978,22.7793897 56.8644159,25.9647307 C56.2916139,27.9623287 55.1944249,29.5528652 53.9975529,30.3298658 Z" id="Combined-Shape" fill="#31E0D5"></path>
                    </g>
                    <path d="M0.5,64.5 L25.5,64.5" id="Line-4" stroke="#3E4C63" stroke-width="3" stroke-linecap="round"></path>
                    <path d="M14.5,53.5 L39.5,53.5" id="Line-4-Copy" stroke="#3E4C63" stroke-width="3" stroke-linecap="round"></path>
                    <path d="M81.5,18.5 L66.5,18.5" id="Line-4-Copy-2" stroke="#3E4C63" stroke-width="3" stroke-linecap="round"></path>
                    <path d="M151.5,18.5 L116.5,18.5" id="Line-4-Copy-3" stroke="#3E4C63" stroke-width="3" stroke-linecap="round"></path>
                    <path d="M281.5,18.5 L227.5,18.5" id="Line-4-Copy-4" stroke="#3E4C63" stroke-width="3" stroke-linecap="round"></path>
                    <path d="M406.5,18.5 L322.5,18.5" id="Line-4-Copy-5" stroke="#3E4C63" stroke-width="3" stroke-linecap="round"></path>
                    <path d="M471.5,41.5 L445.5,41.5" id="Line-4-Copy-8" stroke="#3E4C63" stroke-width="3" stroke-linecap="round"></path>
                    <path d="M490.5,64.5 L452.5,64.5" id="Line-4-Copy-9" stroke="#3E4C63" stroke-width="3" stroke-linecap="round"></path>
                    <path d="M470.5,102.5 L452.5,102.5" id="Line-4-Copy-10" stroke="#3E4C63" stroke-width="3" stroke-linecap="round"></path>
                    <path d="M470.5,111.5 L442.5,111.5" id="Line-4-Copy-11" stroke="#3E4C63" stroke-width="3" stroke-linecap="round"></path>
                    <path d="M361.5,1.5 L337.5,1.5" id="Line-4-Copy-6" stroke="#3E4C63" stroke-width="3" stroke-linecap="round"></path>
                    <path d="M304.5,1.5 L124.5,1.5" id="Line-4-Copy-7" stroke="#3E4C63" stroke-width="3" stroke-linecap="round"></path>
                    <g id="Group-2" transform="translate(63.000000, 247.000000)" stroke="#3E4C63" stroke-linecap="round" stroke-width="3">
                        <path d="M44.5,1.5 L0.5,1.5" id="Line-4-Copy-13"></path>
                        <path d="M359.5,1.5 L315.5,1.5" id="Line-4-Copy-14"></path>
                        <path d="M287.5,1.5 L77.5,1.5" id="Line-4-Copy-12"></path>
                    </g>
                </g>
            </g>
        </g>
    </g>
</svg>