<?xml version="1.0" encoding="UTF-8"?>
<svg width="190px" height="33px" viewBox="0 0 190 33" version="1.1" xmlns="http://www.w3.org/2000/svg" xmlns:xlink="http://www.w3.org/1999/xlink">
    <!-- Generator: Sketch 50.2 (55047) - http://www.bohemiancoding.com/sketch -->
    <title>Vitrine Social</title>
    <desc>Created with Sketch.</desc>
    <defs></defs>
    <g id="Page-1" stroke="none" stroke-width="1" fill="none" fill-rule="evenodd">
        <g id="Listagem" transform="translate(-407.000000, -27.000000)" fill="#FFFFFF">
            <g id="topo">
                <path d="M413.353701,58.7 C410.753701,58.7 409.403701,58.25 408.103701,54.95 C405.953701,49.45 407.303701,30.95 409.103701,30.95 C411.703701,30.95 413.253701,31.6 413.653701,32.35 C411.853701,33.5 410.553701,55.8 412.553701,55.8 C415.653701,55.8 422.153701,29.95 419.103701,28.15 C419.503701,26.85 425.003701,28.9 425.003701,31.05 C425.003701,37.45 418.553701,58.7 413.353701,58.7 Z M482.620143,51.0919085 C482.609187,50.8952547 482.603701,50.6978063 482.603701,50.5 C482.603701,45 485.853701,38.35 489.203701,38.35 C489.603701,38.35 490.103701,38.45 490.603701,38.65 C491.053701,38 491.853701,37.6 492.353701,37.6 C494.453701,38.15 495.303701,40.05 495.303701,42.25 C495.303701,46.9 491.553701,52.8 487.353701,50.65 L487.353701,51.3 C487.353701,53.4 488.453701,55.6 490.653701,55.6 C494.403701,55.6 497.753701,49.15 498.903701,45.7 C499.653701,45.7 500.153701,46.25 500.253701,46.6 C500.253701,46.6 497.153701,58.45 489.353701,58.45 C486.312229,58.45 484.275109,56.6281518 483.290234,54.1817545 C482.182247,56.141661 480.828199,57.7 479.353701,57.7 C476.603701,57.7 474.553701,55.75 474.253701,53.25 C473.903701,49.95 475.303701,45.05 476.003701,42.45 C476.303701,41.4 475.753701,41.3 474.953701,42.4 C473.403701,44.65 470.103701,50.2 469.653701,56.65 C467.843468,56.65 466.311993,55.6588645 465.619957,54.1885214 C464.531777,56.0439488 463.184593,57.5 461.653701,57.5 C460.342943,57.5 457.929014,56.5602619 457.292814,54.0528975 C456.111225,55.9724996 454.671704,57.5 453.103701,57.5 C451.153701,57.5 448.503701,56.35 448.253701,53.2 C448.103701,51.3 449.053701,45.15 450.453701,42.5 C449.253701,42.7 448.253701,42.8 447.403701,42.75 L445.803701,47.95 C445.796572,47.9561106 445.789214,47.9619309 445.781641,47.9674611 C444.722615,51.1952239 441.771756,58.1 438.053701,58.1 C435.119774,58.1 433.371512,56.281981 432.808915,54.1217351 C431.713997,56.0088886 430.352914,57.5 428.803701,57.5 C427.353701,57.5 424.553701,56.35 424.303701,53.2 C424.103701,50.7 425.053701,40.15 427.053701,40.15 C427.753701,40.15 430.053701,40.8 431.053701,41.5 C430.453701,42.6 428.703701,49.75 428.703701,52.95 C428.703701,54.15 428.953701,54.65 429.403701,54.65 C430.424999,54.65 431.694022,52.3422503 432.691453,50.0836523 C432.876518,47.8087544 433.314879,44.9391933 433.853701,42.15 L433.803701,42.15 C431.303701,42.15 431.603701,39.4 431.953701,39 C432.353701,39.2 433.353701,39.2 434.503701,39.1 C435.453701,35 436.453701,31.7 437.053701,31.7 C438.303701,31.7 440.603701,32.3 441.353701,33.3 C441.053701,33.85 440.353701,35.85 439.653701,38.45 C440.503701,38.35 441.253701,38.25 441.703701,38.25 C442.953701,38.25 443.453701,40.05 442.853701,41.8 C442.603701,41.55 440.753701,41.65 438.753701,41.8 C437.203701,48 436.003701,55.25 438.303701,55.25 C440.353701,55.25 443.153701,50.55 444.853701,45.7 C444.857017,45.699171 444.86037,45.6983799 444.863761,45.6976261 C445.151323,44.7823459 445.524223,43.5543285 445.853701,42.5 C444.303701,42 443.553701,40.95 443.553701,39.55 C443.553701,37.85 444.603701,35.05 446.153701,35.05 C447.353701,35.05 448.753701,35.8 449.453701,36.85 C449.103701,37.1 448.203701,39.4 447.703701,40.75 C449.103701,40.75 451.103701,39.9 451.503701,39.75 C452.453701,39.75 455.603701,41.75 455.753701,42.55 C455.153701,43.65 452.653701,49.75 452.653701,52.95 C452.653701,54.15 453.253701,54.65 453.703701,54.65 C454.761258,54.65 456.12315,52.3928555 457.214642,50.151957 C457.487432,46.1295033 458.398008,40.15 459.903701,40.15 C460.603701,40.15 462.903701,40.8 463.903701,41.5 C463.303701,42.6 461.553701,49.75 461.553701,52.95 C461.553701,54.15 461.803701,54.65 462.253701,54.65 C463.173831,54.65 464.295037,52.7768115 465.237549,50.7540111 C465.453728,46.3565013 466.854499,39.35 467.653701,39.35 C468.603701,39.35 470.603701,39.6 472.003701,40.9 C471.553701,41.95 470.653701,44.75 470.003701,47.6 C471.953701,42.8 475.103701,38.2 476.103701,38.2 C478.303701,38.2 481.603701,41.05 481.603701,41.95 C480.753701,43.5 477.203701,54.85 479.553701,54.85 C480.484552,54.85 481.631532,53.0718428 482.620143,51.0919085 Z M430.003701,27.4 C431.353701,27.4 433.903701,28.55 433.903701,30.4 C433.903701,32.5 431.603701,36.6 429.653701,36.6 C428.553701,36.6 427.053701,35.35 427.053701,32.65 C427.053701,30.45 427.853701,27.4 430.003701,27.4 Z M462.853701,27.4 C464.203701,27.4 466.753701,28.55 466.753701,30.4 C466.753701,32.5 464.453701,36.6 462.503701,36.6 C461.403701,36.6 459.903701,35.35 459.903701,32.65 C459.903701,30.45 460.703701,27.4 462.853701,27.4 Z M487.503701,49.2 C491.253701,49.9 492.803701,42.75 491.403701,41.3 C489.853701,42.2 488.053701,45.7 487.503701,49.2 Z M582.179186,49.4415495 C582.211561,40.7477875 585.826209,27 589.403701,27 C590.003701,27 590.853701,27.25 591.603701,27.75 C591.853701,27.4 592.253701,27.1 592.553701,27.1 C593.703701,27.1 594.253701,28.75 594.253701,31.45 C594.203701,35.45 590.403701,46.55 586.353701,50.15 C586.303701,53.25 586.803701,55.45 588.353701,55.45 C591.653701,55.45 594.903701,45.7 594.903701,45.7 L595.053701,45.7 C595.653701,45.7 596.203701,46.15 596.203701,46.3 C596.253701,46.75 593.603701,58.3 587.403701,58.3 C584.854849,58.3 583.055322,56.4017104 582.454512,53.1543888 C581.299272,55.2858423 579.795375,57.1 578.053701,57.1 C575.353701,57.1 573.653701,55.15 573.403701,52.65 C573.353701,52.55 573.353701,52.4 573.353701,52.3 C572.353701,55.55 571.003701,58.15 568.653701,58.15 C567.234365,58.15 565.15282,57.0346986 564.242302,54.4840065 C563.186463,56.1962286 561.902329,57.5 560.453701,57.5 C559.085277,57.5 556.514482,56.4757575 556.019415,53.7128151 C554.274648,56.2306171 551.779305,58.45 548.403701,58.45 C544.43711,58.45 542.576045,55.3513011 542.218515,51.8097525 C541.406662,52.3356623 540.515415,52.6900502 539.603701,52.85 C538.403701,56.1 536.203701,58.65 533.053701,58.65 C528.453701,58.65 526.503701,54.25 526.503701,50.55 C526.503701,45.9 528.703701,40.75 530.453701,40.75 L530.553701,40.75 C530.953701,39.45 532.053701,38.6 533.153701,38.6 C535.303701,38.6 538.153701,40.5 538.803701,41.05 C540.053701,42.15 540.653701,44.3 540.653701,46.9 C540.653701,48.05 540.503701,49.25 540.303701,50.4 C540.980538,50.1931886 541.622028,49.8308464 542.201586,49.3156318 C542.615036,44.0904908 545.641207,38.35 548.753701,38.35 C549.403701,38.35 550.153701,38.6 550.903701,38.95 C551.303701,38.65 551.803701,38.4 552.303701,38.4 C553.503701,38.4 555.003701,40.15 555.103701,41.9 C555.103701,45.8 552.753701,48.55 550.903701,48.55 C550.403701,48.55 549.803701,48.35 549.503701,47.75 C550.203701,47.7 551.653701,45 551.653701,42.7 C551.653701,42.2 551.553701,41.65 551.403701,41.1 C549.503701,41.6 546.903701,46.95 546.903701,51.3 C546.903701,53.4 547.503701,55.6 549.703701,55.6 C552.166055,55.6 554.434387,52.8405759 556.027407,49.9688215 C556.315008,45.950664 557.220696,40.15 558.703701,40.15 C559.403701,40.15 561.703701,40.8 562.703701,41.5 C562.103701,42.6 560.353701,49.75 560.353701,52.95 C560.353701,54.15 560.603701,54.65 561.053701,54.65 C561.89181,54.65 562.896745,53.0958812 563.78151,51.2901644 C563.805565,46.0001317 566.387655,37.8 571.153701,37.8 C573.253701,37.8 578.853701,40.65 577.603701,42.95 L577.453701,43.15 C578.403701,43.6 579.303701,44.35 579.653701,45.3 C578.303701,49.15 577.353701,54.25 578.653701,54.25 C579.800643,54.25 581.171305,51.7294177 582.179186,49.4415495 Z M518.853701,27.25 C520.353701,27.25 521.503701,27.85 522.303701,28.5 C524.003701,28.8 526.853701,29.95 526.853701,32.4 C526.853701,35.2 524.203701,40.2 522.053701,40.2 C521.303701,40.2 520.853701,39.6 520.703701,39.1 C521.653701,38.55 522.553701,35.7 522.553701,33.45 C522.553701,32.3 522.303701,31.05 522.053701,30.05 C517.203701,31.2 512.153701,37.15 512.153701,39.65 C512.153701,44.3 524.203701,40 524.203701,50.35 C524.203701,56.4 516.353701,59.15 512.003701,59.15 C507.503701,59.15 507.503701,57.25 507.303701,56.45 C506.203701,55.75 505.653701,54.9 505.653701,54.15 C505.653701,52 509.303701,50.15 510.753701,50.15 C511.053701,50.15 511.503701,50.3 511.503701,50.6 C511.503701,50.6 508.103701,52.6 508.103701,53.9 C508.103701,54.5 508.653701,54.75 509.703701,54.75 C514.903701,54.75 520.753701,52.2 520.753701,49.25 C520.753701,45 507.253701,46.85 507.253701,39.45 C507.253701,34.2 514.353701,27.25 518.853701,27.25 Z M532.403701,46.15 C533.353701,48.1 534.603701,49.45 536.203701,50.15 C536.653701,48.35 536.953701,46.4 536.953701,44.8 C536.953701,42.65 536.453701,41.05 535.303701,41.05 C534.803701,41.05 534.203701,41.35 533.653701,41.85 C534.253701,42.15 534.703701,42.55 534.703701,42.85 C534.703701,42.95 534.703701,43 534.603701,43.1 C533.803701,43.45 533.003701,44.6 532.403701,46.15 Z M535.453701,52.55 C533.803701,52 532.453701,51 531.353701,49.55 C531.103701,50.75 530.953701,51.95 530.953701,53 C530.953701,54.85 531.403701,56.15 532.503701,56.15 C533.603701,56.15 534.653701,54.65 535.453701,52.55 Z M561.653701,27.4 C563.003701,27.4 565.553701,28.55 565.553701,30.4 C565.553701,32.5 563.253701,36.6 561.303701,36.6 C560.203701,36.6 558.703701,35.35 558.703701,32.65 C558.703701,30.45 559.503701,27.4 561.653701,27.4 Z M569.203701,55.1 C570.753701,55.1 573.453701,46.95 574.553701,43.45 C574.253701,41.6 573.753701,40.7 572.953701,40.7 C569.603701,40.7 567.103701,55.1 569.203701,55.1 Z M586.553701,47.3 C589.403701,42.45 591.953701,32.05 591.553701,29.8 C590.353701,29.8 587.353701,39.8 586.553701,47.3 Z" id="Vitrine-Social"></path>
            </g>
        </g>
    </g>
</svg>